AllBirdsCombinations-Thin.ufo
<glyph name="quotedouble" format="2">
  <advance width="308.75"/>
  <unicode hex="0022"/>
  <outline>
    <contour>
      <point x="35.625" y="700" type="line"/>
      <point x="74.05974194901201" y="700.0"/>
      <point x="135.625" y="719.1317977482743"/>
      <point x="135.625" y="825.4926660587556" type="curve"/>
      <point x="135.625" y="900" type="line"/>
      <point x="35.625" y="900" type="line"/>
    </contour>
    <contour>
      <point x="173.125" y="700" type="line"/>
      <point x="211.559741949012" y="700.0"/>
      <point x="273.125" y="719.1317977482743"/>
      <point x="273.125" y="825.4926660587556" type="curve"/>
      <point x="273.125" y="900" type="line"/>
      <point x="173.125" y="900" type="line"/>
    </contour>
  </outline>
</glyph>
<glyph name="numbersign" format="2">
  <advance width="575.5977617600447"/>
  <unicode hex="0023"/>
  <outline>
    <contour>
      <point x="92.92801666259766" y="-5" type="line"/>
      <point x="116.3838601053902" y="-5.0"/>
      <point x="194.1426652334576" y="1.4625194123351974"/>
      <point x="216.6839698974103" y="121.39322613748607" type="curve"/>
      <point x="231.4583282470703" y="200" type="line"/>
      <point x="268.9583282470703" y="200" type="line"/>
      <point x="230.42801666259766" y="-5" type="line"/>
      <point x="253.8838601053902" y="-5.0"/>
      <point x="331.6426687322761" y="1.4625187547226943"/>
      <point x="354.1839689101577" y="121.39322632304282" type="curve"/>
      <point x="368.9784240722656" y="200.10694122314453" type="line"/>
      <point x="419.98316" y="200.0"/>
      <point x="473.2135409955374" y="244.8085"/>
      <point x="483.5869354400112" y="300.0" type="curve"/>
      <point x="387.75360107421875" y="300" type="line"/>
      <point x="425.3642578125" y="500.10694122314453" type="line"/>
      <point x="476.3689863200335" y="500.0"/>
      <point x="529.5993673155709" y="544.8085"/>
      <point x="539.9727617600447" y="600.0" type="curve"/>
      <point x="444.1394348144531" y="600" type="line"/>
      <point x="482.6697463989258" y="805" type="line"/>
      <point x="459.21390295613327" y="805.0"/>
      <point x="381.45509540674647" y="798.5374807981419"/>
      <point x="358.9137921786169" y="678.6067738031242" type="curve"/>
      <point x="344.1394348144531" y="600" type="line"/>
      <point x="306.6394348144531" y="600" type="line"/>
      <point x="345.1697463989258" y="805" type="line"/>
      <point x="321.71390295613327" y="805.0"/>
      <point x="243.9550931416489" y="798.5374812238732"/>
      <point x="221.4137928177536" y="678.6067736829967" type="curve"/>
      <point x="206.6193389892578" y="599.89306640625" type="line"/>
      <point x="155.6146017600447" y="600.0"/>
      <point x="102.3842207645073" y="555.1915"/>
      <point x="92.01082632003353" y="500.0" type="curve"/>
      <point x="187.84415435791016" y="500" type="line"/>
      <point x="150.23350524902344" y="299.89305877685547" type="line"/>
      <point x="99.22877544001118" y="300.0"/>
      <point x="45.99839444447376" y="255.1915"/>
      <point x="35.625" y="200.0" type="curve"/>
      <point x="131.4583282470703" y="200" type="line"/>
    </contour>
    <contour>
      <point x="287.75360107421875" y="300" type="line"/>
      <point x="250.25360107421875" y="300" type="line"/>
      <point x="287.84415435791016" y="500" type="line"/>
      <point x="325.34415435791016" y="500" type="line"/>
    </contour>
  </outline>
</glyph>
<glyph name="dollar" format="2">
  <advance width="308.75"/>
  <unicode hex="0024"/>
  <outline>
    <contour>
      <point x="35.62500000000001" y="475.4926660587556" type="line"/>
      <point x="35.62499999999999" y="369.1317977482742"/>
      <point x="97.19025805098799" y="350.0"/>
      <point x="135.625" y="350.0" type="curve"/>
      <point x="135.625" y="800" type="line"/>
      <point x="85.625" y="800" type="line"/>
      <point x="85.625" y="686.5763397216797" type="line"/>
      <point x="37.068089206159655" y="658.507025658589"/>
      <point x="35.625000000000014" y="613.2493091650679"/>
      <point x="35.625000000000014" y="574.5073340292791" type="curve"/>
    </contour>
    <contour>
      <point x="170.0" y="725.4926660587556" type="line"/>
      <point x="170.0" y="619.1317977482743"/>
      <point x="231.565258050988" y="600.0"/>
      <point x="270.0" y="600.0" type="curve"/>
      <point x="270" y="700" type="line"/>
      <point x="220" y="700" type="line"/>
      <point x="220" y="800" type="line"/>
      <point x="170" y="800" type="line"/>
    </contour>
    <contour>
      <point x="173.125" y="0" type="line"/>
      <point x="223.125" y="0" type="line"/>
      <point x="223.125" y="113.42366027832031" type="line"/>
      <point x="271.6819107938404" y="141.49297434141099"/>
      <point x="273.125" y="186.75069083493213"/>
      <point x="273.125" y="225.49266597072088" type="curve"/>
      <point x="273.125" y="324.5073339412444" type="line"/>
      <point x="273.125" y="430.8682022517258"/>
      <point x="211.559741949012" y="450.0"/>
      <point x="173.125" y="450.0" type="curve"/>
    </contour>
    <contour>
      <point x="85.625" y="0" type="line"/>
      <point x="135.625" y="0" type="line"/>
      <point x="135.625" y="74.50733394124443" type="line"/>
      <point x="135.625" y="180.86820225172582"/>
      <point x="74.05974194901201" y="200.0"/>
      <point x="35.625" y="200.0" type="curve"/>
      <point x="35.625" y="100" type="line"/>
      <point x="85.625" y="100" type="line"/>
    </contour>
  </outline>
</glyph>
<glyph name="percent" format="2">
  <advance width="531.25"/>
  <unicode hex="0025"/>
  <outline>
    <contour>
      <point x="90.625" y="805.0" type="line"/>
      <point x="60.269670000000005" y="805.0"/>
      <point x="35.625" y="780.35533"/>
      <point x="35.625" y="750.0" type="curve" smooth="yes"/>
      <point x="35.625" y="719.64467"/>
      <point x="60.269670000000005" y="695.0"/>
      <point x="90.625" y="695.0" type="curve"/>
    </contour>
    <contour>
      <point x="128.125" y="695.0" type="line"/>
      <point x="158.48033" y="695.0"/>
      <point x="183.125" y="719.64467"/>
      <point x="183.125" y="750.0" type="curve" smooth="yes"/>
      <point x="183.125" y="780.35533"/>
      <point x="158.48033" y="805.0"/>
      <point x="128.125" y="805.0" type="curve"/>
    </contour>
    <contour>
      <point x="215.625" y="0" type="line"/>
      <point x="254.059741949012" y="0.0"/>
      <point x="315.625" y="19.13179774827421"/>
      <point x="315.625" y="125.4926660587556" type="curve"/>
      <point x="315.625" y="800" type="line"/>
      <point x="277.190258050988" y="800.0"/>
      <point x="215.625" y="780.8682022517257"/>
      <point x="215.625" y="674.5073339412444" type="curve"/>
    </contour>
    <contour>
      <point x="403.125" y="105.0" type="line"/>
      <point x="372.76967" y="105.0"/>
      <point x="348.125" y="80.35533"/>
      <point x="348.125" y="50.0" type="curve" smooth="yes"/>
      <point x="348.125" y="19.64467"/>
      <point x="372.76967" y="-5.0"/>
      <point x="403.125" y="-5.0" type="curve"/>
    </contour>
    <contour>
      <point x="440.625" y="-5.0" type="line"/>
      <point x="470.98033" y="-5.0"/>
      <point x="495.625" y="19.64467"/>
      <point x="495.625" y="50.0" type="curve" smooth="yes"/>
      <point x="495.625" y="80.35533"/>
      <point x="470.98033" y="105.0"/>
      <point x="440.625" y="105.0" type="curve"/>
    </contour>
  </outline>
</glyph>
<glyph name="ampersand" format="2">
  <advance width="408.75"/>
  <unicode hex="0026"/>
  <outline>
    <contour>
      <point x="35.625" y="525.4926660587556" type="line"/>
      <point x="35.62500000000001" y="419.1317977482742"/>
      <point x="97.19025805098799" y="400.0"/>
      <point x="135.625" y="400.0" type="curve"/>
      <point x="135.625" y="800" type="line"/>
      <point x="97.19025805098799" y="800.0"/>
      <point x="35.62500000000001" y="780.8682022517257"/>
      <point x="35.625" y="674.5073339412444" type="curve"/>
    </contour>
    <contour>
      <point x="166.875" y="800.0" type="line"/>
      <point x="166.875" y="744.8085"/>
      <point x="211.6835" y="700.0"/>
      <point x="266.875" y="700.0" type="curve"/>
      <point x="266.875" y="800.0" type="line"/>
    </contour>
    <contour>
      <point x="173.125" y="-5" type="line"/>
      <point x="211.559741949012" y="-5.0"/>
      <point x="273.125" y="14.131797748274195"/>
      <point x="273.125" y="120.49266605875559" type="curve"/>
      <point x="273.125" y="400" type="line"/>
      <point x="328.3165" y="400.0"/>
      <point x="373.125" y="444.8085"/>
      <point x="373.125" y="500.0" type="curve"/>
      <point x="313.125" y="500.0" type="line"/>
      <point x="188.82853644562354" y="500.0"/>
      <point x="173.125" y="476.8255838458053"/>
      <point x="173.125" y="374.5073339412444" type="curve"/>
    </contour>
    <contour>
      <point x="35.625" y="120.49266605875559" type="line"/>
      <point x="35.62500000000001" y="14.131797748274195"/>
      <point x="97.19025805098799" y="-4.999999999999996"/>
      <point x="135.625" y="-5.0" type="curve"/>
      <point x="135.625" y="400" type="line"/>
      <point x="97.19025805098799" y="400.0"/>
      <point x="35.62500000000001" y="380.8682022517258"/>
      <point x="35.625" y="274.5073339412444" type="curve"/>
    </contour>
  </outline>
</glyph>
<glyph name="quotesingle" format="2">
  <advance width="171.25"/>
  <unicode hex="0027"/>
  <outline>
    <contour>
      <point x="35.625" y="700" type="line"/>
      <point x="74.05974194901201" y="700.0"/>
      <point x="135.625" y="719.1317977482743"/>
      <point x="135.625" y="825.4926660587556" type="curve"/>
      <point x="135.625" y="900" type="line"/>
      <point x="35.625" y="900" type="line"/>
    </contour>
  </outline>
</glyph>
<glyph name="parenleft" format="2">
  <advance width="171.25"/>
  <unicode hex="0028"/>
  <outline>
    <contour>
      <point x="35.625" y="25.492666058755592" type="line"/>
      <point x="35.62500000000001" y="-80.8682022517258"/>
      <point x="97.19025805098799" y="-100.0"/>
      <point x="135.625" y="-100.0" type="curve"/>
      <point x="135.625" y="900" type="line"/>
      <point x="97.19025805098799" y="900.0"/>
      <point x="35.62500000000001" y="880.8682022517257"/>
      <point x="35.625" y="774.5073339412444" type="curve"/>
    </contour>
  </outline>
</glyph>
<glyph name="parenright" format="2">
  <advance width="171.25"/>
  <unicode hex="0029"/>
  <outline>
    <contour>
      <point x="35.625" y="-100" type="line"/>
      <point x="74.05974194901201" y="-100.0"/>
      <point x="135.625" y="-80.8682022517258"/>
      <point x="135.625" y="25.492666058755592" type="curve"/>
      <point x="135.625" y="774.5073339412444" type="line"/>
      <point x="135.625" y="880.8682022517257"/>
      <point x="74.05974194901201" y="900.0"/>
      <point x="35.625" y="900.0" type="curve"/>
    </contour>
  </outline>
</glyph>
<glyph name="comma" format="2">
  <advance width="171.25"/>
  <unicode hex="002C"/>
  <outline>
    <contour>
      <point x="35.625" y="-100" type="line"/>
      <point x="74.05974194901201" y="-100.0"/>
      <point x="135.625" y="-80.8682022517258"/>
      <point x="135.625" y="25.492666058755592" type="curve"/>
      <point x="135.625" y="100" type="line"/>
      <point x="35.625" y="100" type="line"/>
    </contour>
  </outline>
</glyph>
<glyph name="slash" format="2">
  <advance width="357.4205614471749"/>
  <unicode hex="002F"/>
  <outline>
    <contour>
      <point x="35.625" y="-81.69139862060547" type="line"/>
      <point x="73.37476082860906" y="-88.91531349205543"/>
      <point x="137.4386810708663" y="-81.69584056012421"/>
      <point x="157.4294993539547" y="22.769471826964846" type="curve"/>
      <point x="321.7955627441406" y="881.6913986206055" type="line"/>
      <point x="284.0458018836252" y="888.9153133253234"/>
      <point x="219.98188006877757" y="881.6958395620533"/>
      <point x="199.99106193354834" y="777.2305271466694" type="curve"/>
    </contour>
  </outline>
</glyph>
<glyph name="two" format="2">
  <advance width="308.75"/>
  <unicode hex="0032"/>
  <outline>
    <contour>
      <point x="143.75" y="750.0" type="curve" smooth="yes"/>
      <point x="143.75" y="780.35533"/>
      <point x="119.10533" y="805.0"/>
      <point x="88.75" y="805.0" type="curve" smooth="yes"/>
      <point x="58.394670000000005" y="805.0"/>
      <point x="33.75" y="780.35533"/>
      <point x="33.75" y="750.0" type="curve" smooth="yes"/>
      <point x="33.75" y="719.64467"/>
      <point x="58.394670000000005" y="695.0"/>
      <point x="88.75" y="695.0" type="curve" smooth="yes"/>
      <point x="119.10533" y="695.0"/>
      <point x="143.75" y="719.64467"/>
    </contour>
    <contour>
      <point x="173.125" y="161.6666717529297" type="line"/>
      <point x="211.559741949012" y="161.6666705322091"/>
      <point x="273.125" y="180.79846774827422"/>
      <point x="273.125" y="287.1593360587556" type="curve"/>
      <point x="273.125" y="679.5073339412444" type="line"/>
      <point x="273.125" y="785.8682022517257"/>
      <point x="211.559741949012" y="805.0"/>
      <point x="173.125" y="805.0" type="curve"/>
    </contour>
    <contour>
      <point x="35.625" y="0.0" type="curve"/>
      <point x="273.125" y="0" type="line"/>
      <point x="273.125" y="100" type="line"/>
      <point x="161.1176660587556" y="100.0" type="line"/>
      <point x="54.756797748274195" y="100.00000000000001"/>
      <point x="35.625" y="38.43474194901201"/>
    </contour>
  </outline>
</glyph>
<glyph name="three" format="2">
  <advance width="308.75"/>
  <unicode hex="0033"/>
  <outline>
    <contour>
      <point x="140.625" y="750.0" type="curve" smooth="yes"/>
      <point x="140.625" y="780.35533"/>
      <point x="115.98033" y="805.0"/>
      <point x="85.625" y="805.0" type="curve" smooth="yes"/>
      <point x="55.269670000000005" y="805.0"/>
      <point x="30.625" y="780.35533"/>
      <point x="30.625" y="750.0" type="curve" smooth="yes"/>
      <point x="30.625" y="719.64467"/>
      <point x="55.269670000000005" y="695.0"/>
      <point x="85.625" y="695.0" type="curve" smooth="yes"/>
      <point x="115.98033" y="695.0"/>
      <point x="140.625" y="719.64467"/>
    </contour>
    <contour>
      <point x="173.125" y="400" type="line"/>
      <point x="211.559741949012" y="400.0"/>
      <point x="273.125" y="419.1317977482742"/>
      <point x="273.125" y="525.4926660587556" type="curve"/>
      <point x="273.125" y="679.5073339412444" type="line"/>
      <point x="273.125" y="785.8682022517257"/>
      <point x="211.559741949012" y="805.0"/>
      <point x="173.125" y="805.0" type="curve"/>
    </contour>
    <contour>
      <point x="173.125" y="-5" type="line"/>
      <point x="211.559741949012" y="-5.0"/>
      <point x="273.125" y="14.131797748274195"/>
      <point x="273.125" y="120.49266605875559" type="curve"/>
      <point x="273.125" y="274.5073339412444" type="line"/>
      <point x="273.125" y="380.8682022517258"/>
      <point x="211.559741949012" y="400.0"/>
      <point x="173.125" y="400.0" type="curve"/>
    </contour>
    <contour>
      <point x="140.625" y="50.0" type="curve" smooth="yes"/>
      <point x="140.625" y="80.35533"/>
      <point x="115.98033" y="105.0"/>
      <point x="85.625" y="105.0" type="curve" smooth="yes"/>
      <point x="55.269670000000005" y="105.0"/>
      <point x="30.625" y="80.35533"/>
      <point x="30.625" y="50.0" type="curve" smooth="yes"/>
      <point x="30.625" y="19.64467"/>
      <point x="55.269670000000005" y="-5.0"/>
      <point x="85.625" y="-5.0" type="curve" smooth="yes"/>
      <point x="115.98033" y="-5.0"/>
      <point x="140.625" y="19.64467"/>
    </contour>
  </outline>
</glyph>
<glyph name="five" format="2">
  <advance width="308.75"/>
  <unicode hex="0035"/>
  <outline>
    <contour>
      <point x="38.75" y="475.4926660587556" type="line"/>
      <point x="38.75000000000001" y="369.1317977482742"/>
      <point x="100.31525805098799" y="350.0"/>
      <point x="138.75" y="350.0" type="curve"/>
      <point x="138.75" y="800" type="line"/>
      <point x="38.75" y="800" type="line"/>
    </contour>
    <contour>
      <point x="170.0" y="800.0" type="line"/>
      <point x="170.0" y="744.8085"/>
      <point x="214.8085" y="700.0"/>
      <point x="270.0" y="700.0" type="curve"/>
      <point x="270.0" y="800.0" type="line"/>
    </contour>
    <contour>
      <point x="173.125" y="-5" type="line"/>
      <point x="211.559741949012" y="-5.0"/>
      <point x="273.125" y="14.131797748274195"/>
      <point x="273.125" y="120.49266605875559" type="curve"/>
      <point x="273.125" y="324.5073339412444" type="line"/>
      <point x="273.125" y="430.8682022517258"/>
      <point x="211.559741949012" y="450.0"/>
      <point x="173.125" y="450.0" type="curve"/>
    </contour>
    <contour>
      <point x="140.625" y="45.0" type="curve" smooth="yes"/>
      <point x="140.625" y="75.35533"/>
      <point x="115.98033" y="100.0"/>
      <point x="85.625" y="100.0" type="curve" smooth="yes"/>
      <point x="55.269670000000005" y="100.0"/>
      <point x="30.625" y="75.35533"/>
      <point x="30.625" y="45.0" type="curve" smooth="yes"/>
      <point x="30.625" y="14.64467"/>
      <point x="55.269670000000005" y="-10.0"/>
      <point x="85.625" y="-10.0" type="curve" smooth="yes"/>
      <point x="115.98033" y="-10.0"/>
      <point x="140.625" y="14.64467"/>
    </contour>
  </outline>
</glyph>
<glyph name="six" format="2">
  <advance width="308.75"/>
  <unicode hex="0036"/>
  <outline>
    <contour>
      <point x="35.625" y="120.49266605875559" type="line"/>
      <point x="35.62500000000001" y="14.131797748274195"/>
      <point x="97.19025805098799" y="-4.999999999999996"/>
      <point x="135.625" y="-5.0" type="curve"/>
      <point x="135.625" y="805" type="line"/>
      <point x="97.19025805098799" y="805.0"/>
      <point x="35.62500000000001" y="785.8682022517257"/>
      <point x="35.625" y="679.5073339412444" type="curve"/>
    </contour>
    <contour>
      <point x="270.0" y="755.0" type="curve" smooth="yes"/>
      <point x="270.0" y="782.59575"/>
      <point x="247.59575" y="805.0"/>
      <point x="220.0" y="805.0" type="curve" smooth="yes"/>
      <point x="192.40425" y="805.0"/>
      <point x="170.0" y="782.59575"/>
      <point x="170.0" y="755.0" type="curve" smooth="yes"/>
      <point x="170.0" y="727.40425"/>
      <point x="192.40425" y="705.0"/>
      <point x="220.0" y="705.0" type="curve" smooth="yes"/>
      <point x="247.59575" y="705.0"/>
      <point x="270.0" y="727.40425"/>
    </contour>
    <contour>
      <point x="173.125" y="-5" type="line"/>
      <point x="211.559741949012" y="-5.0"/>
      <point x="273.125" y="14.131797748274195"/>
      <point x="273.125" y="120.49266605875559" type="curve"/>
      <point x="273.125" y="374.5073339412444" type="line"/>
      <point x="273.125" y="480.8682022517258"/>
      <point x="211.559741949012" y="500.0"/>
      <point x="173.125" y="500.0" type="curve"/>
    </contour>
  </outline>
</glyph>
<glyph name="nine" format="2">
  <advance width="308.75"/>
  <unicode hex="0039"/>
  <outline>
    <contour>
      <point x="35.625" y="425.4926660587556" type="line"/>
      <point x="35.62500000000001" y="319.1317977482742"/>
      <point x="97.19025805098799" y="300.0"/>
      <point x="135.625" y="300.0" type="curve"/>
      <point x="135.625" y="805" type="line"/>
      <point x="97.19025805098799" y="805.0"/>
      <point x="35.62500000000001" y="785.8682022517257"/>
      <point x="35.625" y="679.5073339412444" type="curve"/>
    </contour>
    <contour>
      <point x="173.125" y="-5" type="line"/>
      <point x="211.559741949012" y="-5.0"/>
      <point x="273.125" y="14.131797748274195"/>
      <point x="273.125" y="120.49266605875559" type="curve"/>
      <point x="273.125" y="679.5073339412444" type="line"/>
      <point x="273.125" y="785.8682022517257"/>
      <point x="211.559741949012" y="805.0"/>
      <point x="173.125" y="805.0" type="curve"/>
    </contour>
    <contour>
      <point x="143.75" y="45.0" type="curve" smooth="yes"/>
      <point x="143.75" y="75.35533"/>
      <point x="119.10533" y="100.0"/>
      <point x="88.75" y="100.0" type="curve" smooth="yes"/>
      <point x="58.394670000000005" y="100.0"/>
      <point x="33.75" y="75.35533"/>
      <point x="33.75" y="45.0" type="curve" smooth="yes"/>
      <point x="33.75" y="14.64467"/>
      <point x="58.394670000000005" y="-10.0"/>
      <point x="88.75" y="-10.0" type="curve" smooth="yes"/>
      <point x="119.10533" y="-10.0"/>
      <point x="143.75" y="14.64467"/>
    </contour>
  </outline>
</glyph>
<glyph name="colon" format="2">
  <advance width="171.25"/>
  <unicode hex="003A"/>
  <outline>
    <contour>
      <point x="140.625" y="550.0" type="curve" smooth="yes"/>
      <point x="140.625" y="580.35533"/>
      <point x="115.98033" y="605.0"/>
      <point x="85.625" y="605.0" type="curve" smooth="yes"/>
      <point x="55.269670000000005" y="605.0"/>
      <point x="30.625" y="580.35533"/>
      <point x="30.625" y="550.0" type="curve" smooth="yes"/>
      <point x="30.625" y="519.64467"/>
      <point x="55.269670000000005" y="495.0"/>
      <point x="85.625" y="495.0" type="curve" smooth="yes"/>
      <point x="115.98033" y="495.0"/>
      <point x="140.625" y="519.64467"/>
    </contour>
    <contour>
      <point x="140.625" y="45.0" type="curve" smooth="yes"/>
      <point x="140.625" y="75.35533"/>
      <point x="115.98033" y="100.0"/>
      <point x="85.625" y="100.0" type="curve" smooth="yes"/>
      <point x="55.269670000000005" y="100.0"/>
      <point x="30.625" y="75.35533"/>
      <point x="30.625" y="45.0" type="curve" smooth="yes"/>
      <point x="30.625" y="14.64467"/>
      <point x="55.269670000000005" y="-10.0"/>
      <point x="85.625" y="-10.0" type="curve" smooth="yes"/>
      <point x="115.98033" y="-10.0"/>
      <point x="140.625" y="14.64467"/>
    </contour>
  </outline>
</glyph>
<glyph name="semicolon" format="2">
  <advance width="171.25"/>
  <unicode hex="003B"/>
  <outline>
    <contour>
      <point x="140.625" y="550.0" type="curve" smooth="yes"/>
      <point x="140.625" y="580.35533"/>
      <point x="115.98033" y="605.0"/>
      <point x="85.625" y="605.0" type="curve" smooth="yes"/>
      <point x="55.269670000000005" y="605.0"/>
      <point x="30.625" y="580.35533"/>
      <point x="30.625" y="550.0" type="curve" smooth="yes"/>
      <point x="30.625" y="519.64467"/>
      <point x="55.269670000000005" y="495.0"/>
      <point x="85.625" y="495.0" type="curve" smooth="yes"/>
      <point x="115.98033" y="495.0"/>
      <point x="140.625" y="519.64467"/>
    </contour>
    <contour>
      <point x="35.625" y="-100" type="line"/>
      <point x="74.05974194901201" y="-100.0"/>
      <point x="135.625" y="-80.8682022517258"/>
      <point x="135.625" y="25.492666058755592" type="curve"/>
      <point x="135.625" y="100" type="line"/>
      <point x="35.625" y="100" type="line"/>
    </contour>
  </outline>
</glyph>
<glyph name="less" format="2">
  <advance width="271.25"/>
  <unicode hex="003C"/>
  <outline>
    <contour>
      <point x="35.625" y="225.4926660587556" type="line"/>
      <point x="35.62500000000001" y="123.1744135096663"/>
      <point x="51.328536900629985" y="100.00000000000001"/>
      <point x="175.625" y="100.0" type="curve"/>
      <point x="235.625" y="100" type="line"/>
      <point x="235.625" y="155.1915"/>
      <point x="190.8165" y="200.0"/>
      <point x="135.625" y="200.0" type="curve"/>
      <point x="135.625" y="600" type="line"/>
      <point x="190.8165" y="600.0"/>
      <point x="235.625" y="644.8085"/>
      <point x="235.625" y="700.0" type="curve"/>
      <point x="175.625" y="700.0" type="line"/>
      <point x="51.32853644562354" y="700.0"/>
      <point x="35.62500000000001" y="676.8255838458052"/>
      <point x="35.625" y="574.5073339412444" type="curve"/>
    </contour>
  </outline>
</glyph>
<glyph name="greater" format="2">
  <advance width="271.25"/>
  <unicode hex="003E"/>
  <outline>
    <contour>
      <point x="110.13233394124443" y="100.0" type="line"/>
      <point x="212.4505864903337" y="100.0"/>
      <point x="235.625" y="115.70353690062998"/>
      <point x="235.625" y="240.0" type="curve"/>
      <point x="235.625" y="574.5073339412444" type="line"/>
      <point x="235.625" y="676.8255864903336"/>
      <point x="219.92146309937002" y="700.0"/>
      <point x="95.625" y="700.0" type="curve"/>
      <point x="35.625" y="700" type="line"/>
      <point x="35.625" y="644.8085"/>
      <point x="80.4335" y="600.0"/>
      <point x="135.625" y="600.0" type="curve"/>
      <point x="135.625" y="200" type="line"/>
      <point x="80.4335" y="200.0"/>
      <point x="35.625" y="155.1915"/>
      <point x="35.625" y="100.0" type="curve"/>
    </contour>
  </outline>
</glyph>
<glyph name="question" format="2">
  <advance width="308.75"/>
  <unicode hex="003F"/>
  <outline>
    <contour>
      <point x="140.625" y="762.5" type="curve" smooth="yes"/>
      <point x="140.625" y="792.85533"/>
      <point x="115.98033" y="817.5"/>
      <point x="85.625" y="817.5" type="curve" smooth="yes"/>
      <point x="55.269670000000005" y="817.5"/>
      <point x="30.625" y="792.85533"/>
      <point x="30.625" y="762.5" type="curve" smooth="yes"/>
      <point x="30.625" y="732.14467"/>
      <point x="55.269670000000005" y="707.5"/>
      <point x="85.625" y="707.5" type="curve" smooth="yes"/>
      <point x="115.98033" y="707.5"/>
      <point x="140.625" y="732.14467"/>
    </contour>
    <contour>
      <point x="173.125" y="405" type="line"/>
      <point x="211.559741949012" y="405.0"/>
      <point x="273.125" y="424.1317977482742"/>
      <point x="273.125" y="530.4926660587556" type="curve"/>
      <point x="273.125" y="679.5073339412444" type="line"/>
      <point x="273.125" y="785.8682022517257"/>
      <point x="211.559741949012" y="805.0"/>
      <point x="173.125" y="805.0" type="curve"/>
    </contour>
    <contour>
      <point x="35.625" y="191.6666717529297" type="line"/>
      <point x="135.625" y="191.6666717529297" type="line"/>
      <point x="135.625" y="500" type="line"/>
      <point x="97.19025805098799" y="500.0"/>
      <point x="35.62500000000001" y="480.8682022517258"/>
      <point x="35.625" y="374.5073339412444" type="curve"/>
    </contour>
    <contour>
      <point x="140.625" y="43.75" type="curve" smooth="yes"/>
      <point x="140.625" y="74.10533"/>
      <point x="115.98033" y="98.75"/>
      <point x="85.625" y="98.75" type="curve" smooth="yes"/>
      <point x="55.269670000000005" y="98.75"/>
      <point x="30.625" y="74.10533"/>
      <point x="30.625" y="43.75" type="curve" smooth="yes"/>
      <point x="30.625" y="13.39467"/>
      <point x="55.269670000000005" y="-11.25"/>
      <point x="85.625" y="-11.25" type="curve" smooth="yes"/>
      <point x="115.98033" y="-11.25"/>
      <point x="140.625" y="13.39467"/>
    </contour>
  </outline>
</glyph>
<glyph name="at" format="2">
  <advance width="842.0704"/>
  <unicode hex="0040"/>
  <outline>
    <contour>
      <point x="756.4454" y="400.0" type="curve" smooth="yes"/>
      <point x="756.4454" y="585.11793"/>
      <point x="606.15313" y="735.4102"/>
      <point x="421.03520000000003" y="735.4102" type="curve" smooth="yes"/>
      <point x="235.91727" y="735.4102"/>
      <point x="85.625" y="585.11793"/>
      <point x="85.625" y="400.0" type="curve" smooth="yes"/>
      <point x="85.625" y="214.88207"/>
      <point x="235.91727" y="64.5898"/>
      <point x="421.03520000000003" y="64.5898" type="curve" smooth="yes"/>
      <point x="606.15313" y="64.5898"/>
      <point x="756.4454" y="214.88207"/>
    </contour>
    <contour>
      <point x="296.03520025828755" y="325.49266793069245" type="curve"/>
      <point x="296.0352017680797" y="474.50733383834756" type="line"/>
      <point x="296.03520284571056" y="580.8682021488289"/>
      <point x="357.60045805098804" y="600.0"/>
      <point x="396.03520000000003" y="600.0" type="curve"/>
      <point x="396.0352020263672" y="200" type="line"/>
      <point x="357.6004600773552" y="200.0"/>
      <point x="296.03519918065666" y="219.13179962021104"/>
    </contour>
    <contour>
      <point x="433.5352001721917" y="325.49266793069245" type="curve"/>
      <point x="433.5352020263672" y="600" type="line"/>
      <point x="533.5352020263672" y="600" type="line"/>
      <point x="533.5352020263672" y="200" type="line"/>
      <point x="495.1004600773552" y="200.0"/>
      <point x="433.5351994537711" y="219.13179962021104"/>
    </contour>
  </outline>
</glyph>
<glyph name="A" format="2">
  <advance width="308.75"/>
  <unicode hex="0041"/>
  <outline>
    <contour>
      <point x="35.625" y="0" type="line"/>
      <point x="135.625" y="0" type="line"/>
      <point x="135.625" y="805" type="line"/>
      <point x="97.19025805098799" y="805.0"/>
      <point x="35.62500000000001" y="785.8682022517257"/>
      <point x="35.625" y="679.5073339412444" type="curve"/>
    </contour>
    <contour>
      <point x="173.125" y="0" type="line"/>
      <point x="273.125" y="0" type="line"/>
      <point x="273.125" y="679.5073339412444" type="line"/>
      <point x="273.125" y="785.8682022517257"/>
      <point x="211.559741949012" y="805.0"/>
      <point x="173.125" y="805.0" type="curve"/>
    </contour>
  </outline>
</glyph>
<glyph name="B" format="2">
  <advance width="308.75"/>
  <unicode hex="0042"/>
  <outline>
    <contour>
      <point x="35.625" y="0" type="line"/>
      <point x="135.625" y="0" type="line"/>
      <point x="135.625" y="800" type="line"/>
      <point x="35.625" y="800" type="line"/>
    </contour>
    <contour>
      <point x="173.125" y="400" type="line"/>
      <point x="211.559741949012" y="400.0"/>
      <point x="273.125" y="419.1317977482742"/>
      <point x="273.125" y="525.4926660587556" type="curve"/>
      <point x="273.125" y="674.5073339412444" type="line"/>
      <point x="273.125" y="780.8682022517257"/>
      <point x="211.559741949012" y="800.0"/>
      <point x="173.125" y="800.0" type="curve"/>
    </contour>
    <contour>
      <point x="173.125" y="0" type="line"/>
      <point x="211.559741949012" y="0.0"/>
      <point x="273.125" y="19.131797748274195"/>
      <point x="273.125" y="125.49266605875559" type="curve"/>
      <point x="273.125" y="274.5073339412444" type="line"/>
      <point x="273.125" y="380.8682022517258"/>
      <point x="211.559741949012" y="400.0"/>
      <point x="173.125" y="400.0" type="curve"/>
    </contour>
  </outline>
</glyph>
<glyph name="E" format="2">
  <advance width="308.75"/>
  <unicode hex="0045"/>
  <outline>
    <contour>
      <point x="35.625" y="0" type="line"/>
      <point x="135.625" y="0" type="line"/>
      <point x="135.625" y="800" type="line"/>
      <point x="35.625" y="800" type="line"/>
    </contour>
    <contour>
      <point x="173.125" y="800.0" type="line"/>
      <point x="173.125" y="744.8085"/>
      <point x="217.9335" y="700.0"/>
      <point x="273.125" y="700.0" type="curve"/>
      <point x="273.125" y="800.0" type="line"/>
    </contour>
    <contour>
      <point x="173.125" y="450.0" type="line"/>
      <point x="173.125" y="394.8085"/>
      <point x="217.9335" y="350.0"/>
      <point x="273.125" y="350.0" type="curve"/>
      <point x="273.125" y="450.0" type="line"/>
    </contour>
    <contour>
      <point x="273.125" y="100.0" type="line"/>
      <point x="217.9335" y="100.0"/>
      <point x="173.125" y="55.1915"/>
      <point x="173.125" y="0.0" type="curve"/>
      <point x="273.125" y="0.0" type="line"/>
    </contour>
  </outline>
</glyph>
<glyph name="J" format="2">
  <advance width="308.75"/>
  <unicode hex="004A"/>
  <outline>
    <contour>
      <point x="173.125" y="-5" type="line"/>
      <point x="211.559741949012" y="-5.0"/>
      <point x="273.125" y="14.131797748274195"/>
      <point x="273.125" y="120.49266605875559" type="curve"/>
      <point x="273.125" y="800" type="line"/>
      <point x="173.125" y="800" type="line"/>
    </contour>
    <contour>
      <point x="140.625" y="45.0" type="curve" smooth="yes"/>
      <point x="140.625" y="75.35533"/>
      <point x="115.98033" y="100.0"/>
      <point x="85.625" y="100.0" type="curve" smooth="yes"/>
      <point x="55.269670000000005" y="100.0"/>
      <point x="30.625" y="75.35533"/>
      <point x="30.625" y="45.0" type="curve" smooth="yes"/>
      <point x="30.625" y="14.64467"/>
      <point x="55.269670000000005" y="-10.0"/>
      <point x="85.625" y="-10.0" type="curve" smooth="yes"/>
      <point x="115.98033" y="-10.0"/>
      <point x="140.625" y="14.64467"/>
    </contour>
  </outline>
</glyph>
<glyph name="K" format="2">
  <advance width="308.75"/>
  <unicode hex="004B"/>
  <outline>
    <contour>
      <point x="35.625" y="0" type="line"/>
      <point x="135.625" y="0" type="line"/>
      <point x="135.625" y="800" type="line"/>
      <point x="35.625" y="800" type="line"/>
    </contour>
    <contour>
      <point x="173.125" y="400" type="line"/>
      <point x="211.559741949012" y="400.0"/>
      <point x="273.125" y="419.1317977482742"/>
      <point x="273.125" y="525.4926660587556" type="curve"/>
      <point x="273.125" y="800" type="line"/>
      <point x="173.125" y="800" type="line"/>
    </contour>
    <contour>
      <point x="173.125" y="0" type="line"/>
      <point x="273.125" y="0" type="line"/>
      <point x="273.125" y="274.5073339412444" type="line"/>
      <point x="273.125" y="380.8682022517258"/>
      <point x="211.559741949012" y="400.0"/>
      <point x="173.125" y="400.0" type="curve"/>
    </contour>
  </outline>
</glyph>
<glyph name="M" format="2">
  <advance width="446.25"/>
  <unicode hex="004D"/>
  <outline>
    <contour>
      <point x="35.625" y="0" type="line"/>
      <point x="135.625" y="0" type="line"/>
      <point x="135.625" y="800" type="line"/>
      <point x="35.625" y="800" type="line"/>
    </contour>
    <contour>
      <point x="173.125" y="0" type="line"/>
      <point x="273.125" y="0" type="line"/>
      <point x="273.125" y="800" type="line"/>
      <point x="173.125" y="800" type="line"/>
    </contour>
    <contour>
      <point x="310.625" y="0" type="line"/>
      <point x="410.625" y="0" type="line"/>
      <point x="410.625" y="674.5073339412444" type="line"/>
      <point x="410.625" y="780.8682022517257"/>
      <point x="349.059741949012" y="800.0"/>
      <point x="310.625" y="800.0" type="curve"/>
    </contour>
  </outline>
</glyph>
<glyph name="Q" format="2">
  <advance width="308.75"/>
  <unicode hex="0051"/>
  <outline>
    <contour>
      <point x="35.625" y="120.49266605875559" type="line"/>
      <point x="35.62500000000001" y="14.131797748274195"/>
      <point x="97.19025805098799" y="-4.999999999999996"/>
      <point x="135.625" y="-5.0" type="curve"/>
      <point x="135.625" y="805" type="line"/>
      <point x="97.19025805098799" y="805.0"/>
      <point x="35.62500000000001" y="785.8682022517257"/>
      <point x="35.625" y="679.5073339412444" type="curve"/>
    </contour>
    <contour>
      <point x="173.19120793456702" y="20.494535412374844" type="line"/>
      <point x="173.19990413767434" y="-82.54777973446197"/>
      <point x="237.22842457236385" y="-100.0"/>
      <point x="273.125" y="-100.0" type="curve"/>
      <point x="273.125" y="0" type="line"/>
      <point x="204.35401916503906" y="0" type="line"/>
      <point x="271.2396007803552" y="21.965976671767894"/>
      <point x="273.125" y="85.03941145869177"/>
      <point x="273.125" y="120.49266613853607" type="curve"/>
      <point x="273.125" y="679.5073339412444" type="line"/>
      <point x="273.125" y="785.8682022517257"/>
      <point x="211.559741949012" y="805.0"/>
      <point x="173.125" y="805.0" type="curve"/>
    </contour>
  </outline>
</glyph>
<glyph name="R" format="2">
  <advance width="308.75"/>
  <unicode hex="0052"/>
  <outline>
    <contour>
      <point x="35.625" y="0" type="line"/>
      <point x="135.625" y="0" type="line"/>
      <point x="135.625" y="800" type="line"/>
      <point x="35.625" y="800" type="line"/>
    </contour>
    <contour>
      <point x="173.125" y="200" type="line"/>
      <point x="211.559741949012" y="200.0"/>
      <point x="273.125" y="219.13179774827415"/>
      <point x="273.125" y="325.49266605875556" type="curve"/>
      <point x="273.125" y="674.5073339412444" type="line"/>
      <point x="273.125" y="780.8682022517257"/>
      <point x="211.559741949012" y="800.0"/>
      <point x="173.125" y="800.0" type="curve"/>
    </contour>
    <contour>
      <point x="173.125" y="0" type="line"/>
      <point x="273.125" y="0" type="line"/>
      <point x="273.125" y="74.50733394124443" type="line"/>
      <point x="273.125" y="180.86820225172582"/>
      <point x="211.559741949012" y="200.0"/>
      <point x="173.125" y="200.0" type="curve"/>
    </contour>
  </outline>
</glyph>
<glyph name="T" format="2">
  <advance width="446.25"/>
  <unicode hex="0054"/>
  <outline>
    <contour>
      <point x="35.625" y="700.0" type="line"/>
      <point x="90.81649999999999" y="700.0"/>
      <point x="135.625" y="744.8085"/>
      <point x="135.625" y="800.0" type="curve"/>
      <point x="35.625" y="800.0" type="line"/>
    </contour>
    <contour>
      <point x="173.125" y="0" type="line"/>
      <point x="273.125" y="0" type="line"/>
      <point x="273.125" y="800" type="line"/>
      <point x="173.125" y="800" type="line"/>
    </contour>
    <contour>
      <point x="310.625" y="800.0" type="line"/>
      <point x="310.625" y="744.8085"/>
      <point x="355.4335" y="700.0"/>
      <point x="410.625" y="700.0" type="curve"/>
      <point x="410.625" y="800.0" type="line"/>
    </contour>
  </outline>
</glyph>
<glyph name="Z" format="2">
  <advance width="308.75"/>
  <unicode hex="005A"/>
  <outline>
    <contour>
      <point x="35.625" y="700.0" type="line"/>
      <point x="90.81649999999999" y="700.0"/>
      <point x="135.625" y="744.8085"/>
      <point x="135.625" y="800.0" type="curve"/>
      <point x="35.625" y="800.0" type="line"/>
    </contour>
    <contour>
      <point x="173.125" y="350" type="line"/>
      <point x="211.559741949012" y="350.0"/>
      <point x="273.125" y="369.1317977482742"/>
      <point x="273.125" y="475.4926660587556" type="curve"/>
      <point x="273.125" y="800" type="line"/>
      <point x="173.125" y="800" type="line"/>
    </contour>
    <contour>
      <point x="35.625" y="0" type="line"/>
      <point x="135.625" y="0" type="line"/>
      <point x="135.625" y="450" type="line"/>
      <point x="97.19025805098799" y="450.0"/>
      <point x="35.62500000000001" y="430.8682022517258"/>
      <point x="35.625" y="324.5073339412444" type="curve"/>
    </contour>
    <contour>
      <point x="273.125" y="100.0" type="line"/>
      <point x="217.9335" y="100.0"/>
      <point x="173.125" y="55.1915"/>
      <point x="173.125" y="0.0" type="curve"/>
      <point x="273.125" y="0.0" type="line"/>
    </contour>
  </outline>
</glyph>
<glyph name="backslash" format="2">
  <advance width="357.4205614471749"/>
  <unicode hex="005C"/>
  <outline>
    <contour>
      <point x="199.99106154569807" y="22.769470122624085" type="line"/>
      <point x="219.98187959892797" y="-81.69584230845143"/>
      <point x="284.0458007606577" y="-88.91531312928414"/>
      <point x="321.7955614471749" y="-81.6913975153098" type="curve"/>
      <point x="157.4295011360559" y="777.2305300114134" type="line"/>
      <point x="137.43868323068517" y="881.6958424707838"/>
      <point x="73.37476068651719" y="888.9153131292842"/>
      <point x="35.625" y="881.6913975153097" type="curve"/>
    </contour>
  </outline>
</glyph>
<glyph name="bracketright" format="2">
  <advance width="271.25"/>
  <unicode hex="005D"/>
  <outline>
    <contour>
      <point x="135.625" y="0" type="line"/>
      <point x="80.4335" y="0.0"/>
      <point x="35.625" y="-44.8085"/>
      <point x="35.625" y="-100.0" type="curve"/>
      <point x="235.625" y="-100" type="line"/>
      <point x="235.625" y="900" type="line"/>
      <point x="35.625" y="900" type="line"/>
      <point x="35.625" y="844.8085"/>
      <point x="80.4335" y="800.0"/>
      <point x="135.625" y="800.0" type="curve"/>
    </contour>
  </outline>
</glyph>
<glyph name="asciicircum" format="2">
  <advance width="271.25"/>
  <unicode hex="005E"/>
  <outline>
    <contour>
      <point x="35.625" y="700.0" type="line"/>
      <point x="90.81649999999999" y="700.0"/>
      <point x="135.625" y="744.8085"/>
      <point x="135.625" y="800.0" type="curve"/>
      <point x="35.625" y="800.0" type="line"/>
    </contour>
    <contour>
      <point x="135.625" y="800.0" type="line"/>
      <point x="135.625" y="744.8085"/>
      <point x="180.4335" y="700.0"/>
      <point x="235.625" y="700.0" type="curve"/>
      <point x="235.625" y="800.0" type="line"/>
    </contour>
  </outline>
</glyph>
<glyph name="grave" format="2">
  <advance width="171.25"/>
  <unicode hex="0060"/>
  <outline>
    <contour>
      <point x="-8.125" y="900.0" type="line"/>
      <point x="-8.125" y="844.8085"/>
      <point x="36.6835" y="800.0"/>
      <point x="91.875" y="800.0" type="curve"/>
      <point x="91.875" y="900.0" type="line"/>
    </contour>
  </outline>
</glyph>
<glyph name="c" format="2">
  <advance width="308.75"/>
  <unicode hex="0063"/>
  <outline>
    <contour>
      <point x="35.625" y="125.49266605875559" type="line"/>
      <point x="35.62500000000001" y="19.131797748274195"/>
      <point x="97.19025805098799" y="4.706898370391206e-15"/>
      <point x="135.625" y="0.0" type="curve"/>
      <point x="135.625" y="605" type="line"/>
      <point x="97.19025805098799" y="605.0"/>
      <point x="35.62500000000001" y="585.8682022517257"/>
      <point x="35.625" y="479.5073339412444" type="curve"/>
    </contour>
    <contour>
      <point x="278.125" y="550.0" type="curve" smooth="yes"/>
      <point x="278.125" y="580.35533"/>
      <point x="253.48033" y="605.0"/>
      <point x="223.125" y="605.0" type="curve" smooth="yes"/>
      <point x="192.76967" y="605.0"/>
      <point x="168.125" y="580.35533"/>
      <point x="168.125" y="550.0" type="curve" smooth="yes"/>
      <point x="168.125" y="519.64467"/>
      <point x="192.76967" y="495.0"/>
      <point x="223.125" y="495.0" type="curve" smooth="yes"/>
      <point x="253.48033" y="495.0"/>
      <point x="278.125" y="519.64467"/>
    </contour>
    <contour>
      <point x="271.5625" y="100.0" type="line"/>
      <point x="216.371" y="100.0"/>
      <point x="171.5625" y="55.1915"/>
      <point x="171.5625" y="0.0" type="curve"/>
      <point x="271.5625" y="0.0" type="line"/>
    </contour>
  </outline>
</glyph>
<glyph name="d" format="2">
  <advance width="308.75"/>
  <unicode hex="0064"/>
  <outline>
    <contour>
      <point x="173.125" y="0" type="line"/>
      <point x="273.125" y="0" type="line"/>
      <point x="273.125" y="800" type="line"/>
      <point x="173.125" y="800" type="line"/>
    </contour>
    <contour>
      <point x="35.625" y="125.49266605875559" type="line"/>
      <point x="35.62500000000001" y="19.131797748274195"/>
      <point x="97.19025805098799" y="4.706898370391206e-15"/>
      <point x="135.625" y="0.0" type="curve"/>
      <point x="135.625" y="605" type="line"/>
      <point x="97.19025805098799" y="605.0"/>
      <point x="35.62500000000001" y="585.8682022517257"/>
      <point x="35.625" y="479.5073339412444" type="curve"/>
    </contour>
  </outline>
</glyph>
<glyph name="f" format="2">
  <advance width="308.75"/>
  <unicode hex="0066"/>
  <outline>
    <contour>
      <point x="35.625" y="0" type="line"/>
      <point x="135.625" y="0" type="line"/>
      <point x="135.625" y="800" type="line"/>
      <point x="97.19025805098799" y="800.0"/>
      <point x="35.62500000000001" y="780.8682022517257"/>
      <point x="35.625" y="674.5073339412444" type="curve"/>
    </contour>
    <contour>
      <point x="173.125" y="800.0" type="line"/>
      <point x="173.125" y="744.8085"/>
      <point x="217.9335" y="700.0"/>
      <point x="273.125" y="700.0" type="curve"/>
      <point x="273.125" y="800.0" type="line"/>
    </contour>
    <contour>
      <point x="173.125" y="587.5" type="line"/>
      <point x="173.125" y="532.3085"/>
      <point x="217.9335" y="487.5"/>
      <point x="273.125" y="487.5" type="curve"/>
      <point x="273.125" y="587.5" type="line"/>
    </contour>
  </outline>
</glyph>
<glyph name="h" format="2">
  <advance width="308.75"/>
  <unicode hex="0068"/>
  <outline>
    <contour>
      <point x="35.625" y="0" type="line"/>
      <point x="135.625" y="0" type="line"/>
      <point x="135.625" y="800" type="line"/>
      <point x="35.625" y="800" type="line"/>
    </contour>
    <contour>
      <point x="173.125" y="0" type="line"/>
      <point x="273.125" y="0" type="line"/>
      <point x="273.125" y="479.5073339412444" type="line"/>
      <point x="273.125" y="585.8682022517257"/>
      <point x="211.559741949012" y="605.0"/>
      <point x="173.125" y="605.0" type="curve"/>
    </contour>
  </outline>
</glyph>
<glyph name="i" format="2">
  <advance width="171.25"/>
  <unicode hex="0069"/>
  <outline>
    <contour>
      <point x="140.625" y="697.22222" type="curve" smooth="yes"/>
      <point x="140.625" y="727.57755"/>
      <point x="115.98033" y="752.22222"/>
      <point x="85.625" y="752.22222" type="curve" smooth="yes"/>
      <point x="55.269670000000005" y="752.22222"/>
      <point x="30.625" y="727.57755"/>
      <point x="30.625" y="697.22222" type="curve" smooth="yes"/>
      <point x="30.625" y="666.86689"/>
      <point x="55.269670000000005" y="642.22222"/>
      <point x="85.625" y="642.22222" type="curve" smooth="yes"/>
      <point x="115.98033" y="642.22222"/>
      <point x="140.625" y="666.86689"/>
    </contour>
    <contour>
      <point x="35.625" y="0" type="line"/>
      <point x="135.625" y="0" type="line"/>
      <point x="135.625" y="600" type="line"/>
      <point x="35.625" y="600" type="line"/>
    </contour>
  </outline>
</glyph>
<glyph name="j" format="2">
  <advance width="308.75"/>
  <unicode hex="006A"/>
  <outline>
    <contour>
      <point x="278.125" y="697.22222" type="curve" smooth="yes"/>
      <point x="278.125" y="727.57755"/>
      <point x="253.48033" y="752.22222"/>
      <point x="223.125" y="752.22222" type="curve" smooth="yes"/>
      <point x="192.76967" y="752.22222"/>
      <point x="168.125" y="727.57755"/>
      <point x="168.125" y="697.22222" type="curve" smooth="yes"/>
      <point x="168.125" y="666.86689"/>
      <point x="192.76967" y="642.22222"/>
      <point x="223.125" y="642.22222" type="curve" smooth="yes"/>
      <point x="253.48033" y="642.22222"/>
      <point x="278.125" y="666.86689"/>
    </contour>
    <contour>
      <point x="173.125" y="-210" type="line"/>
      <point x="211.559741949012" y="-210.0"/>
      <point x="273.125" y="-190.86820225172582"/>
      <point x="273.125" y="-84.50733394124443" type="curve"/>
      <point x="273.125" y="600" type="line"/>
      <point x="173.125" y="600" type="line"/>
    </contour>
    <contour>
      <point x="138.75" y="-160.0" type="curve" smooth="yes"/>
      <point x="138.75" y="-132.40425"/>
      <point x="116.34575" y="-110.0"/>
      <point x="88.75" y="-110.0" type="curve" smooth="yes"/>
      <point x="61.154250000000005" y="-110.0"/>
      <point x="38.75" y="-132.40425"/>
      <point x="38.75" y="-160.0" type="curve" smooth="yes"/>
      <point x="38.75" y="-187.59575"/>
      <point x="61.154250000000005" y="-210.0"/>
      <point x="88.75" y="-210.0" type="curve" smooth="yes"/>
      <point x="116.34575" y="-210.0"/>
      <point x="138.75" y="-187.59575"/>
    </contour>
  </outline>
</glyph>
<glyph name="l" format="2">
  <advance width="171.25"/>
  <unicode hex="006C"/>
  <outline>
    <contour>
      <point x="35.625" y="120.49266605875559" type="line"/>
      <point x="35.62500000000001" y="14.131797748274195"/>
      <point x="97.19025805098799" y="-4.999999999999996"/>
      <point x="135.625" y="-5.0" type="curve"/>
      <point x="135.625" y="800" type="line"/>
      <point x="35.625" y="800" type="line"/>
    </contour>
  </outline>
</glyph>
<glyph name="m" format="2">
  <advance width="446.25"/>
  <unicode hex="006D"/>
  <outline>
    <contour>
      <point x="35.625" y="0" type="line"/>
      <point x="135.625" y="0" type="line"/>
      <point x="135.625" y="600" type="line"/>
      <point x="35.625" y="600" type="line"/>
    </contour>
    <contour>
      <point x="173.125" y="0" type="line"/>
      <point x="273.125" y="0" type="line"/>
      <point x="273.125" y="600" type="line"/>
      <point x="173.125" y="600" type="line"/>
    </contour>
    <contour>
      <point x="310.625" y="0" type="line"/>
      <point x="410.625" y="0" type="line"/>
      <point x="410.625" y="474.5073339412444" type="line"/>
      <point x="410.625" y="580.8682022517257"/>
      <point x="349.059741949012" y="600.0"/>
      <point x="310.625" y="600.0" type="curve"/>
    </contour>
  </outline>
</glyph>
<glyph name="n" format="2">
  <advance width="308.75"/>
  <unicode hex="006E"/>
  <outline>
    <contour>
      <point x="35.625" y="0" type="line"/>
      <point x="135.625" y="0" type="line"/>
      <point x="135.625" y="600" type="line"/>
      <point x="35.625" y="600" type="line"/>
    </contour>
    <contour>
      <point x="173.125" y="0" type="line"/>
      <point x="273.125" y="0" type="line"/>
      <point x="273.125" y="474.5073339412444" type="line"/>
      <point x="273.125" y="580.8682022517257"/>
      <point x="211.559741949012" y="600.0"/>
      <point x="173.125" y="600.0" type="curve"/>
    </contour>
  </outline>
</glyph>
<glyph name="p" format="2">
  <advance width="308.75"/>
  <unicode hex="0070"/>
  <outline>
    <contour>
      <point x="35.625" y="-200" type="line"/>
      <point x="135.625" y="-200" type="line"/>
      <point x="135.625" y="600" type="line"/>
      <point x="35.625" y="600" type="line"/>
    </contour>
    <contour>
      <point x="173.125" y="0" type="line"/>
      <point x="211.559741949012" y="0.0"/>
      <point x="273.125" y="19.131797748274195"/>
      <point x="273.125" y="125.49266605875559" type="curve"/>
      <point x="273.125" y="474.5073339412444" type="line"/>
      <point x="273.125" y="580.8682022517257"/>
      <point x="211.559741949012" y="600.0"/>
      <point x="173.125" y="600.0" type="curve"/>
    </contour>
  </outline>
</glyph>
<glyph name="t" format="2">
  <advance width="308.75"/>
  <unicode hex="0074"/>
  <outline>
    <contour>
      <point x="35.625" y="0" type="line"/>
      <point x="135.625" y="0" type="line"/>
      <point x="135.625" y="800" type="line"/>
      <point x="97.19025805098799" y="800.0"/>
      <point x="35.62500000000001" y="780.8682022517257"/>
      <point x="35.625" y="674.5073339412444" type="curve"/>
    </contour>
    <contour>
      <point x="173.125" y="500.0" type="line"/>
      <point x="228.3165" y="500.0"/>
      <point x="273.125" y="544.8085"/>
      <point x="273.125" y="600.0" type="curve"/>
      <point x="173.125" y="600.0" type="line"/>
    </contour>
  </outline>
</glyph>
<glyph name="v" format="2">
  <advance width="308.75"/>
  <unicode hex="0076"/>
  <outline>
    <contour>
      <point x="35.625" y="120.49266605875559" type="line"/>
      <point x="35.62500000000001" y="14.131797748274195"/>
      <point x="97.19025805098799" y="-4.999999999999996"/>
      <point x="135.625" y="-5.0" type="curve"/>
      <point x="135.625" y="479.5073339412444" type="line"/>
      <point x="135.625" y="585.8682022517257"/>
      <point x="74.05974194901201" y="605.0"/>
      <point x="35.625" y="605.0" type="curve"/>
    </contour>
    <contour>
      <point x="173.125" y="-5" type="line"/>
      <point x="211.559741949012" y="-5.0"/>
      <point x="273.125" y="14.131797748274195"/>
      <point x="273.125" y="120.49266605875559" type="curve"/>
      <point x="273.125" y="600" type="line"/>
      <point x="173.125" y="600" type="line"/>
    </contour>
  </outline>
</glyph>
<glyph name="braceleft" format="2">
  <advance width="171.25"/>
  <unicode hex="007B"/>
  <outline>
    <contour>
      <point x="35.625" y="400" type="line"/>
      <point x="74.05974194901201" y="400.0"/>
      <point x="135.625" y="419.1317977482742"/>
      <point x="135.625" y="525.4926660587556" type="curve"/>
      <point x="135.625" y="900" type="line"/>
      <point x="97.19025805098799" y="900.0"/>
      <point x="35.62500000000001" y="880.8682022517257"/>
      <point x="35.625" y="774.5073339412444" type="curve"/>
    </contour>
    <contour>
      <point x="35.625" y="25.492666058755592" type="line"/>
      <point x="35.62500000000001" y="-80.8682022517258"/>
      <point x="97.19025805098799" y="-100.0"/>
      <point x="135.625" y="-100.0" type="curve"/>
      <point x="135.625" y="274.5073339412444" type="line"/>
      <point x="135.625" y="380.8682022517258"/>
      <point x="74.05974194901201" y="400.0"/>
      <point x="35.625" y="400.0" type="curve"/>
    </contour>
  </outline>
</glyph>
<glyph name="tilde" format="2">
  <advance width="308.75"/>
  <unicode hex="007E"/>
  <outline>
    <contour>
      <point x="147.6323339412444" y="350.0" type="line"/>
      <point x="253.9932022517258" y="350.0"/>
      <point x="273.125" y="411.565258050988"/>
      <point x="273.125" y="450.0" type="curve"/>
      <point x="161.11766605875562" y="450.0" type="line"/>
      <point x="54.756797748274224" y="450.0"/>
      <point x="35.625" y="388.434741949012"/>
      <point x="35.625" y="350.0" type="curve"/>
    </contour>
  </outline>
</glyph>
<glyph name="cent" format="2">
  <advance width="308.75"/>
  <unicode hex="00A2"/>
  <outline>
    <contour>
      <point x="85.625" y="0" type="line"/>
      <point x="135.625" y="0" type="line"/>
      <point x="135.625" y="600" type="line"/>
      <point x="85.625" y="600" type="line"/>
      <point x="85.625" y="486.5763397216797" type="line"/>
      <point x="37.06808920615962" y="458.507025658589"/>
      <point x="35.625000000000014" y="413.2493091650678"/>
      <point x="35.625000000000014" y="374.5073340292789" type="curve"/>
      <point x="35.625" y="225.49266616882633" type="line"/>
      <point x="35.625" y="186.7499509626834"/>
      <point x="37.06674746954555" y="141.4977891783361"/>
      <point x="85.625" y="113.41719818115234" type="curve"/>
    </contour>
    <contour>
      <point x="173.125" y="525.4926660587556" type="line"/>
      <point x="173.125" y="419.1317977482742"/>
      <point x="234.690258050988" y="400.0"/>
      <point x="273.125" y="400.0" type="curve"/>
      <point x="273.125" y="500" type="line"/>
      <point x="223.125" y="500" type="line"/>
      <point x="223.125" y="600" type="line"/>
      <point x="173.125" y="600" type="line"/>
    </contour>
    <contour>
      <point x="173.125" y="0" type="line"/>
      <point x="223.125" y="0" type="line"/>
      <point x="223.125" y="100" type="line"/>
      <point x="273.125" y="100" type="line"/>
      <point x="273.125" y="200" type="line"/>
      <point x="234.690258050988" y="200.0"/>
      <point x="173.125" y="180.86820225172582"/>
      <point x="173.125" y="74.50733394124443" type="curve"/>
    </contour>
  </outline>
</glyph>
<glyph name="pound" format="2">
  <advance width="401.25"/>
  <unicode hex="00A3"/>
  <outline>
    <contour>
      <point x="123.125" y="0" type="line"/>
      <point x="223.125" y="0" type="line"/>
      <point x="223.125" y="805" type="line"/>
      <point x="184.690258050988" y="805.0"/>
      <point x="123.125" y="785.8682022517257"/>
      <point x="123.125" y="679.5073339412444" type="curve"/>
    </contour>
    <contour>
      <point x="365.625" y="750.0" type="curve" smooth="yes"/>
      <point x="365.625" y="780.35533"/>
      <point x="340.98033" y="805.0"/>
      <point x="310.625" y="805.0" type="curve" smooth="yes"/>
      <point x="280.26967" y="805.0"/>
      <point x="255.625" y="780.35533"/>
      <point x="255.625" y="750.0" type="curve" smooth="yes"/>
      <point x="255.625" y="719.64467"/>
      <point x="280.26967" y="695.0"/>
      <point x="310.625" y="695.0" type="curve" smooth="yes"/>
      <point x="340.98033" y="695.0"/>
      <point x="365.625" y="719.64467"/>
    </contour>
    <contour>
      <point x="35.625" y="375.0" type="line"/>
      <point x="85.625" y="375.0" type="line"/>
      <point x="85.625" y="425.0" type="line"/>
      <point x="35.625" y="425.0" type="line"/>
    </contour>
    <contour>
      <point x="260.625" y="375" type="line"/>
      <point x="335.625" y="375" type="line"/>
      <point x="335.625" y="425" type="line"/>
      <point x="260.625" y="425" type="line"/>
    </contour>
    <contour>
      <point x="360.625" y="100.0" type="line"/>
      <point x="305.4335" y="100.0"/>
      <point x="260.625" y="55.1915"/>
      <point x="260.625" y="0.0" type="curve"/>
      <point x="360.625" y="0.0" type="line"/>
    </contour>
    <contour>
      <point x="35.625" y="0" type="line"/>
      <point x="85.625" y="0" type="line"/>
      <point x="85.625" y="50.0" type="line"/>
      <point x="35.625" y="50.0" type="line"/>
    </contour>
  </outline>
</glyph>
<glyph name="currency" format="2">
  <advance width="308.75"/>
  <unicode hex="00A4"/>
  <outline>
    <contour>
      <point x="35.625" y="225" type="line"/>
      <point x="85.625" y="225" type="line"/>
      <point x="85.625" y="263.41719818115234" type="line"/>
      <point x="100.3372905885008" y="254.8773687476996"/>
      <point x="117.41605474549999" y="250.0"/>
      <point x="135.625" y="250.00000000000003" type="curve"/>
      <point x="135.625" y="550" type="line"/>
      <point x="117.4160547455" y="550.0"/>
      <point x="100.3372905885008" y="545.1226312523004"/>
      <point x="85.625" y="536.5763397216797" type="curve"/>
      <point x="85.625" y="575" type="line"/>
      <point x="35.625" y="575" type="line"/>
      <point x="35.625" y="525" type="line"/>
      <point x="69.55768585205078" y="525" type="line"/>
      <point x="35.62499980859033" y="495.16819492516913"/>
      <point x="35.62500000000001" y="459.075619900616"/>
      <point x="35.62500000000001" y="424.50733418412545" type="curve"/>
      <point x="35.625" y="375.49266589901436" type="line"/>
      <point x="35.625" y="340.9353744719813"/>
      <point x="35.624999863667504" y="304.89393418135353"/>
      <point x="69.51183319091797" y="275" type="curve"/>
      <point x="35.625" y="275" type="line"/>
    </contour>
    <contour>
      <point x="173.125" y="250" type="line"/>
      <point x="191.3339452545" y="250.0"/>
      <point x="208.4127094114992" y="254.8773687476996"/>
      <point x="223.125" y="263.4236602783203" type="curve"/>
      <point x="223.125" y="225" type="line"/>
      <point x="273.125" y="225" type="line"/>
      <point x="273.125" y="275" type="line"/>
      <point x="239.19231414794922" y="275" type="line"/>
      <point x="273.1250001914097" y="304.83180507483087"/>
      <point x="273.125" y="340.924380099384"/>
      <point x="273.125" y="375.4926658158745" type="curve"/>
      <point x="273.125" y="424.5073341009857" type="line"/>
      <point x="273.125" y="459.0646255280187"/>
      <point x="273.12500013633246" y="495.10606581864647"/>
      <point x="239.23816680908203" y="525" type="curve"/>
      <point x="273.125" y="525" type="line"/>
      <point x="273.125" y="575" type="line"/>
      <point x="223.125" y="575" type="line"/>
      <point x="223.125" y="536.5828018188477" type="line"/>
      <point x="208.41270941149918" y="545.1226312523004"/>
      <point x="191.33394525449998" y="550.0"/>
      <point x="173.125" y="549.9999999999999" type="curve"/>
    </contour>
  </outline>
</glyph>
<glyph name="yen" format="2">
  <advance width="483.75"/>
  <unicode hex="00A5"/>
  <outline>
    <contour>
      <point x="123.125" y="325.49266605875556" type="line"/>
      <point x="123.125" y="219.13179774827415"/>
      <point x="184.690258050988" y="200.0"/>
      <point x="223.125" y="200.0" type="curve"/>
      <point x="223.125" y="679.5073339412444" type="line"/>
      <point x="223.125" y="785.8682022517257"/>
      <point x="161.559741949012" y="805.0"/>
      <point x="123.125" y="805.0" type="curve"/>
    </contour>
    <contour>
      <point x="260.625" y="-5" type="line"/>
      <point x="299.059741949012" y="-5.0"/>
      <point x="360.625" y="14.13179774827421"/>
      <point x="360.625" y="120.4926660587556" type="curve"/>
      <point x="360.625" y="800" type="line"/>
      <point x="260.625" y="800" type="line"/>
    </contour>
    <contour>
      <point x="35.625" y="550.0" type="line"/>
      <point x="85.625" y="550.0" type="line"/>
      <point x="85.625" y="600.0" type="line"/>
      <point x="35.625" y="600.0" type="line"/>
    </contour>
    <contour>
      <point x="398.125" y="550.0" type="line"/>
      <point x="448.125" y="550.0" type="line"/>
      <point x="448.125" y="600.0" type="line"/>
      <point x="398.125" y="600.0" type="line"/>
    </contour>
    <contour>
      <point x="35.625" y="400.0" type="line"/>
      <point x="85.625" y="400.0" type="line"/>
      <point x="85.625" y="450.0" type="line"/>
      <point x="35.625" y="450.0" type="line"/>
    </contour>
    <contour>
      <point x="398.125" y="400.0" type="line"/>
      <point x="448.125" y="400.0" type="line"/>
      <point x="448.125" y="450.0" type="line"/>
      <point x="398.125" y="450.0" type="line"/>
    </contour>
  </outline>
</glyph>
<glyph name="section" format="2">
  <advance width="308.75"/>
  <unicode hex="00A7"/>
  <outline>
    <contour>
      <point x="35.625" y="225.4926660587556" type="line"/>
      <point x="35.62500000000001" y="119.1317977482742"/>
      <point x="97.19025805098799" y="100.0"/>
      <point x="135.625" y="100.0" type="curve"/>
      <point x="135.625" y="800" type="line"/>
      <point x="97.19025805098799" y="800.0"/>
      <point x="35.62500000000001" y="780.8682022517257"/>
      <point x="35.625" y="674.5073339412444" type="curve"/>
      <point x="35.625" y="575.4926658286569" type="line"/>
      <point x="35.625" y="540.9272886935893"/>
      <point x="35.6249998082007" y="504.8746233931381"/>
      <point x="69.53523254394531" y="474.9803771972656" type="curve"/>
      <point x="35.62499988360058" y="445.15014913158564"/>
      <point x="35.62500000000001" y="409.06775807380166"/>
      <point x="35.62500000000001" y="374.50733408721663" type="curve"/>
    </contour>
    <contour>
      <point x="173.125" y="800.0" type="line"/>
      <point x="173.125" y="744.8085"/>
      <point x="217.9335" y="700.0"/>
      <point x="273.125" y="700.0" type="curve"/>
      <point x="273.125" y="800.0" type="line"/>
    </contour>
    <contour>
      <point x="173.125" y="-200" type="line"/>
      <point x="211.559741949012" y="-200.0"/>
      <point x="273.125" y="-180.86820225172582"/>
      <point x="273.125" y="-74.50733394124443" type="curve"/>
      <point x="273.125" y="24.507334171343203" type="line"/>
      <point x="273.125" y="59.072711306410774"/>
      <point x="273.12500019179924" y="95.12537660686183"/>
      <point x="239.2147674560547" y="125.01962280273438" type="curve"/>
      <point x="273.12500011639935" y="154.84985086841442"/>
      <point x="273.125" y="190.9322419261983"/>
      <point x="273.125" y="225.49266591278325" type="curve"/>
      <point x="273.125" y="374.5073339412444" type="line"/>
      <point x="273.125" y="480.8682022517258"/>
      <point x="211.559741949012" y="500.0"/>
      <point x="173.125" y="500.0" type="curve"/>
    </contour>
    <contour>
      <point x="135.625" y="-200" type="line"/>
      <point x="135.625" y="-144.8085"/>
      <point x="90.81649999999999" y="-100.0"/>
      <point x="35.625" y="-100.0" type="curve"/>
      <point x="35.625" y="-200" type="line"/>
    </contour>
  </outline>
</glyph>
<glyph name="diaeresis" format="2">
  <advance width="308.75"/>
  <unicode hex="00A8"/>
  <outline>
    <contour>
      <point x="140.625" y="850.0" type="curve" smooth="yes"/>
      <point x="140.625" y="880.35533"/>
      <point x="115.98033" y="905.0"/>
      <point x="85.625" y="905.0" type="curve" smooth="yes"/>
      <point x="55.269670000000005" y="905.0"/>
      <point x="30.625" y="880.35533"/>
      <point x="30.625" y="850.0" type="curve" smooth="yes"/>
      <point x="30.625" y="819.64467"/>
      <point x="55.269670000000005" y="795.0"/>
      <point x="85.625" y="795.0" type="curve" smooth="yes"/>
      <point x="115.98033" y="795.0"/>
      <point x="140.625" y="819.64467"/>
    </contour>
    <contour>
      <point x="278.125" y="850.0" type="curve" smooth="yes"/>
      <point x="278.125" y="880.35533"/>
      <point x="253.48033" y="905.0"/>
      <point x="223.125" y="905.0" type="curve" smooth="yes"/>
      <point x="192.76967" y="905.0"/>
      <point x="168.125" y="880.35533"/>
      <point x="168.125" y="850.0" type="curve" smooth="yes"/>
      <point x="168.125" y="819.64467"/>
      <point x="192.76967" y="795.0"/>
      <point x="223.125" y="795.0" type="curve" smooth="yes"/>
      <point x="253.48033" y="795.0"/>
      <point x="278.125" y="819.64467"/>
    </contour>
  </outline>
</glyph>
<glyph name="copyright" format="2">
  <advance width="842.0704"/>
  <unicode hex="00A9"/>
  <outline>
    <contour>
      <point x="756.4454" y="405.0" type="curve" smooth="yes"/>
      <point x="756.4454" y="590.11793"/>
      <point x="606.15313" y="740.4102"/>
      <point x="421.03520000000003" y="740.4102" type="curve" smooth="yes"/>
      <point x="235.91727" y="740.4102"/>
      <point x="85.625" y="590.11793"/>
      <point x="85.625" y="405.0" type="curve" smooth="yes"/>
      <point x="85.625" y="219.88207"/>
      <point x="235.91727" y="69.5898"/>
      <point x="421.03520000000003" y="69.5898" type="curve" smooth="yes"/>
      <point x="606.15313" y="69.5898"/>
      <point x="756.4454" y="219.88207"/>
    </contour>
    <contour>
      <point x="533.5352" y="560.0" type="curve" smooth="yes"/>
      <point x="533.5352" y="532.40425"/>
      <point x="511.13095" y="510.0"/>
      <point x="483.53520000000003" y="510.0" type="curve" smooth="yes"/>
      <point x="455.93944999999997" y="510.0"/>
      <point x="433.53520000000003" y="532.40425"/>
      <point x="433.53520000000003" y="560.0" type="curve" smooth="yes"/>
      <point x="433.53520000000003" y="587.59575"/>
      <point x="455.93944999999997" y="610.0"/>
      <point x="483.53520000000003" y="610.0" type="curve" smooth="yes"/>
      <point x="511.13095" y="610.0"/>
      <point x="533.5352" y="587.59575"/>
    </contour>
    <contour>
      <point x="296.0352002519879" y="325.49266793069245" type="curve"/>
      <point x="296.0352017743794" y="479.50733383834756" type="line"/>
      <point x="296.03520282572657" y="585.8682021488289"/>
      <point x="357.60045805098804" y="605.0"/>
      <point x="396.03520000000003" y="605.0" type="curve"/>
      <point x="396.0352020263672" y="200" type="line"/>
      <point x="357.6004600773552" y="200.0"/>
      <point x="296.03519920064065" y="219.13179962021104"/>
    </contour>
    <contour>
      <point x="531.9727" y="300.0" type="curve"/>
      <point x="531.9727" y="200.0" type="line"/>
      <point x="431.97270000000003" y="200.0" type="line"/>
      <point x="431.97270000000003" y="255.1915"/>
      <point x="476.7812" y="300.0"/>
    </contour>
  </outline>
</glyph>
<glyph name="ordinalfeminine" format="2">
  <advance width="308.75"/>
  <unicode hex="00AA"/>
  <outline>
    <contour>
      <point x="35.625" y="525.4926660587556" type="line"/>
      <point x="35.62500000000001" y="419.1317977482742"/>
      <point x="97.19025805098799" y="400.0"/>
      <point x="135.625" y="400.0" type="curve"/>
      <point x="135.625" y="800" type="line"/>
      <point x="97.19025805098799" y="800.0"/>
      <point x="35.62500000000001" y="780.8682022517257"/>
      <point x="35.625" y="674.5073339412444" type="curve"/>
    </contour>
    <contour>
      <point x="173.125" y="525.4926660587556" type="line"/>
      <point x="173.125" y="419.1317977482742"/>
      <point x="234.690258050988" y="400.0"/>
      <point x="273.125" y="400.0" type="curve"/>
      <point x="273.125" y="800" type="line"/>
      <point x="173.125" y="800" type="line"/>
    </contour>
  </outline>
</glyph>
<glyph name="registered" format="2">
  <advance width="842.0704"/>
  <unicode hex="00AE"/>
  <outline>
    <contour>
      <point x="756.4454" y="400.0" type="curve" smooth="yes"/>
      <point x="756.4454" y="585.11793"/>
      <point x="606.15313" y="735.4102"/>
      <point x="421.03520000000003" y="735.4102" type="curve" smooth="yes"/>
      <point x="235.91727" y="735.4102"/>
      <point x="85.625" y="585.11793"/>
      <point x="85.625" y="400.0" type="curve" smooth="yes"/>
      <point x="85.625" y="214.88207"/>
      <point x="235.91727" y="64.5898"/>
      <point x="421.03520000000003" y="64.5898" type="curve" smooth="yes"/>
      <point x="606.15313" y="64.5898"/>
      <point x="756.4454" y="214.88207"/>
    </contour>
    <contour>
      <point x="314.7852020263672" y="200" type="line"/>
      <point x="314.7852020263672" y="600" type="line"/>
      <point x="414.7852020263672" y="600" type="line"/>
      <point x="414.7852020263672" y="200" type="line"/>
    </contour>
    <contour>
      <point x="552.2852" y="550.0" type="curve" smooth="yes"/>
      <point x="552.2852" y="522.40425"/>
      <point x="529.88095" y="500.0"/>
      <point x="502.28520000000003" y="500.0" type="curve" smooth="yes"/>
      <point x="474.68944999999997" y="500.0"/>
      <point x="452.28520000000003" y="522.40425"/>
      <point x="452.28520000000003" y="550.0" type="curve" smooth="yes"/>
      <point x="452.28520000000003" y="577.59575"/>
      <point x="474.68944999999997" y="600.0"/>
      <point x="502.28520000000003" y="600.0" type="curve" smooth="yes"/>
      <point x="529.88095" y="600.0"/>
      <point x="552.2852" y="577.59575"/>
    </contour>
  </outline>
</glyph>
<glyph name="degree" format="2">
  <advance width="218.75"/>
  <unicode hex="00B0"/>
  <outline>
    <contour>
      <point x="90.625" y="805.0" type="line"/>
      <point x="60.269670000000005" y="805.0"/>
      <point x="35.625" y="780.35533"/>
      <point x="35.625" y="750.0" type="curve" smooth="yes"/>
      <point x="35.625" y="719.64467"/>
      <point x="60.269670000000005" y="695.0"/>
      <point x="90.625" y="695.0" type="curve"/>
    </contour>
    <contour>
      <point x="128.125" y="695.0" type="line"/>
      <point x="158.48033" y="695.0"/>
      <point x="183.125" y="719.64467"/>
      <point x="183.125" y="750.0" type="curve" smooth="yes"/>
      <point x="183.125" y="780.35533"/>
      <point x="158.48033" y="805.0"/>
      <point x="128.125" y="805.0" type="curve"/>
    </contour>
  </outline>
</glyph>
<glyph name="sup_two" format="2">
  <advance width="308.75"/>
  <unicode hex="00B2"/>
  <outline>
    <contour>
      <point x="143.75" y="750.0" type="curve" smooth="yes"/>
      <point x="143.75" y="780.35533"/>
      <point x="119.10533" y="805.0"/>
      <point x="88.75" y="805.0" type="curve" smooth="yes"/>
      <point x="58.394670000000005" y="805.0"/>
      <point x="33.75" y="780.35533"/>
      <point x="33.75" y="750.0" type="curve" smooth="yes"/>
      <point x="33.75" y="719.64467"/>
      <point x="58.394670000000005" y="695.0"/>
      <point x="88.75" y="695.0" type="curve" smooth="yes"/>
      <point x="119.10533" y="695.0"/>
      <point x="143.75" y="719.64467"/>
    </contour>
    <contour>
      <point x="173.125" y="345" type="line"/>
      <point x="211.559741949012" y="345.0"/>
      <point x="273.125" y="364.1317977482742"/>
      <point x="273.125" y="470.4926660587556" type="curve"/>
      <point x="273.125" y="679.5073339412444" type="line"/>
      <point x="273.125" y="785.8682022517257"/>
      <point x="211.559741949012" y="805.0"/>
      <point x="173.125" y="805.0" type="curve"/>
    </contour>
    <contour>
      <point x="35.625" y="200.0" type="curve"/>
      <point x="273.125" y="200" type="line"/>
      <point x="273.125" y="300" type="line"/>
      <point x="161.1176660587556" y="300.0" type="line"/>
      <point x="54.756797748274195" y="300.0"/>
      <point x="35.625" y="238.434741949012"/>
    </contour>
  </outline>
</glyph>
<glyph name="acute" format="2">
  <advance width="171.25"/>
  <unicode hex="00B4"/>
  <outline>
    <contour>
      <point x="79.375" y="800.0" type="line"/>
      <point x="134.56650000000002" y="800.0"/>
      <point x="179.375" y="844.8085"/>
      <point x="179.375" y="900.0" type="curve"/>
      <point x="79.375" y="900.0" type="line"/>
    </contour>
  </outline>
</glyph>
<glyph name="mu" format="2">
  <advance width="346.25"/>
  <unicode hex="00B5"/>
  <outline>
    <contour>
      <point x="35.625" y="-200" type="line"/>
      <point x="135.625" y="-200" type="line"/>
      <point x="135.625" y="600" type="line"/>
      <point x="35.625" y="600" type="line"/>
    </contour>
    <contour>
      <point x="173.125" y="125.49266605875559" type="line"/>
      <point x="173.125" y="62.66630232706586"/>
      <point x="213.53791908095644" y="7.2973127918041e-15"/>
      <point x="305.625" y="-3.980102097228898e-15" type="curve"/>
      <point x="310.625" y="0" type="line"/>
      <point x="310.625" y="100" type="line"/>
      <point x="273.125" y="100" type="line"/>
      <point x="273.125" y="600" type="line"/>
      <point x="173.125" y="600" type="line"/>
    </contour>
  </outline>
</glyph>
<glyph name="cedilla" format="2">
  <advance width="171.25"/>
  <unicode hex="00B8"/>
  <outline>
    <contour>
      <point x="179.375" y="-100.0" type="line"/>
      <point x="179.375" y="-44.80850000000001"/>
      <point x="134.56650000000002" y="0.0"/>
      <point x="79.375" y="0.0" type="curve"/>
      <point x="79.375" y="-100.0" type="line"/>
    </contour>
  </outline>
</glyph>
<glyph name="one_over_four" format="2">
  <advance width="583.75"/>
  <unicode hex="00BC"/>
  <outline>
    <contour>
      <point x="16.875" y="200" type="line"/>
      <point x="116.875" y="200" type="line"/>
      <point x="116.875" y="800" type="line"/>
      <point x="16.875" y="800" type="line"/>
    </contour>
    <contour>
      <point x="173.125" y="-200" type="line"/>
      <point x="211.559741949012" y="-200.0"/>
      <point x="273.125" y="-180.86820225172582"/>
      <point x="273.125" y="-74.50733394124443" type="curve"/>
      <point x="273.125" y="800" type="line"/>
      <point x="234.690258050988" y="800.0"/>
      <point x="173.125" y="780.8682022517257"/>
      <point x="173.125" y="674.5073339412444" type="curve"/>
    </contour>
    <contour>
      <point x="329.375" y="0" type="line"/>
      <point x="367.809741949012" y="0.0"/>
      <point x="429.375" y="19.13179774827421"/>
      <point x="429.375" y="125.4926660587556" type="curve"/>
      <point x="429.375" y="400" type="line"/>
      <point x="329.375" y="400" type="line"/>
    </contour>
    <contour>
      <point x="466.875" y="-200" type="line"/>
      <point x="566.875" y="-200" type="line"/>
      <point x="566.875" y="200" type="line"/>
      <point x="466.875" y="200" type="line"/>
    </contour>
  </outline>
</glyph>
<glyph name="one_over_two" format="2">
  <advance width="583.75"/>
  <unicode hex="00BD"/>
  <outline>
    <contour>
      <point x="16.875" y="200" type="line"/>
      <point x="116.875" y="200" type="line"/>
      <point x="116.875" y="800" type="line"/>
      <point x="16.875" y="800" type="line"/>
    </contour>
    <contour>
      <point x="173.125" y="-200" type="line"/>
      <point x="211.559741949012" y="-200.0"/>
      <point x="273.125" y="-180.86820225172582"/>
      <point x="273.125" y="-74.50733394124443" type="curve"/>
      <point x="273.125" y="800" type="line"/>
      <point x="234.690258050988" y="800.0"/>
      <point x="173.125" y="780.8682022517257"/>
      <point x="173.125" y="674.5073339412444" type="curve"/>
    </contour>
    <contour>
      <point x="437.5" y="350.0" type="curve" smooth="yes"/>
      <point x="437.5" y="380.35533"/>
      <point x="412.85533" y="405.0"/>
      <point x="382.5" y="405.0" type="curve" smooth="yes"/>
      <point x="352.14467" y="405.0"/>
      <point x="327.5" y="380.35533"/>
      <point x="327.5" y="350.0" type="curve" smooth="yes"/>
      <point x="327.5" y="319.64467"/>
      <point x="352.14467" y="295.0"/>
      <point x="382.5" y="295.0" type="curve" smooth="yes"/>
      <point x="412.85533" y="295.0"/>
      <point x="437.5" y="319.64467"/>
    </contour>
    <contour>
      <point x="466.875" y="-55" type="line"/>
      <point x="505.309741949012" y="-55.0"/>
      <point x="566.875" y="-35.86820225172579"/>
      <point x="566.875" y="70.4926660587556" type="curve"/>
      <point x="566.875" y="279.5073339412444" type="line"/>
      <point x="566.875" y="385.8682022517258"/>
      <point x="505.309741949012" y="405.0"/>
      <point x="466.875" y="405.0" type="curve"/>
    </contour>
    <contour>
      <point x="329.375" y="-200.0" type="curve"/>
      <point x="566.875" y="-200" type="line"/>
      <point x="566.875" y="-100" type="line"/>
      <point x="454.8676660587556" y="-100.0" type="line"/>
      <point x="348.5067977482742" y="-99.99999999999999"/>
      <point x="329.375" y="-161.565258050988"/>
    </contour>
  </outline>
</glyph>
<glyph name="three_over_four" format="2">
  <advance width="721.25"/>
  <unicode hex="00BE"/>
  <outline>
    <contour>
      <point x="121.875" y="750.0" type="curve" smooth="yes"/>
      <point x="121.875" y="780.35533"/>
      <point x="97.23033000000001" y="805.0"/>
      <point x="66.875" y="805.0" type="curve" smooth="yes"/>
      <point x="36.51967" y="805.0"/>
      <point x="11.875" y="780.35533"/>
      <point x="11.875" y="750.0" type="curve" smooth="yes"/>
      <point x="11.875" y="719.64467"/>
      <point x="36.51967" y="695.0"/>
      <point x="66.875" y="695.0" type="curve" smooth="yes"/>
      <point x="97.23033000000001" y="695.0"/>
      <point x="121.875" y="719.64467"/>
    </contour>
    <contour>
      <point x="154.375" y="600" type="line"/>
      <point x="192.809741949012" y="600.0"/>
      <point x="254.375" y="619.1317977482743"/>
      <point x="254.375" y="725.4926660587556" type="curve"/>
      <point x="254.375" y="800" type="line"/>
      <point x="154.375" y="800" type="line"/>
    </contour>
    <contour>
      <point x="310.625" y="-200" type="line"/>
      <point x="349.059741949012" y="-200.0"/>
      <point x="410.625" y="-180.8682022517258"/>
      <point x="410.625" y="-74.50733394124441" type="curve"/>
      <point x="410.625" y="800" type="line"/>
      <point x="372.190258050988" y="800.0"/>
      <point x="310.625" y="780.8682022517257"/>
      <point x="310.625" y="674.5073339412444" type="curve"/>
    </contour>
    <contour>
      <point x="154.375" y="195" type="line"/>
      <point x="192.809741949012" y="195.0"/>
      <point x="254.375" y="214.13179774827415"/>
      <point x="254.375" y="320.49266605875556" type="curve"/>
      <point x="254.375" y="474.5073339412444" type="line"/>
      <point x="254.375" y="580.8682022517257"/>
      <point x="192.809741949012" y="600.0"/>
      <point x="154.375" y="600.0" type="curve"/>
    </contour>
    <contour>
      <point x="466.875" y="0" type="line"/>
      <point x="505.309741949012" y="0.0"/>
      <point x="566.875" y="19.13179774827421"/>
      <point x="566.875" y="125.4926660587556" type="curve"/>
      <point x="566.875" y="400" type="line"/>
      <point x="466.875" y="400" type="line"/>
    </contour>
    <contour>
      <point x="121.875" y="250.0" type="curve" smooth="yes"/>
      <point x="121.875" y="280.35533"/>
      <point x="97.23033000000001" y="305.0"/>
      <point x="66.875" y="305.0" type="curve" smooth="yes"/>
      <point x="36.51967" y="305.0"/>
      <point x="11.875" y="280.35533"/>
      <point x="11.875" y="250.0" type="curve" smooth="yes"/>
      <point x="11.875" y="219.64467"/>
      <point x="36.51967" y="195.0"/>
      <point x="66.875" y="195.0" type="curve" smooth="yes"/>
      <point x="97.23033000000001" y="195.0"/>
      <point x="121.875" y="219.64467"/>
    </contour>
    <contour>
      <point x="604.375" y="-200" type="line"/>
      <point x="704.375" y="-200" type="line"/>
      <point x="704.375" y="200" type="line"/>
      <point x="604.375" y="200" type="line"/>
    </contour>
  </outline>
</glyph>
<glyph name="invquestion" format="2">
  <advance width="308.75"/>
  <unicode hex="00BF"/>
  <outline>
    <contour>
      <point x="278.125" y="556.25" type="curve" smooth="yes"/>
      <point x="278.125" y="586.60533"/>
      <point x="253.48033" y="611.25"/>
      <point x="223.125" y="611.25" type="curve" smooth="yes"/>
      <point x="192.76967" y="611.25"/>
      <point x="168.125" y="586.60533"/>
      <point x="168.125" y="556.25" type="curve" smooth="yes"/>
      <point x="168.125" y="525.89467"/>
      <point x="192.76967" y="501.25"/>
      <point x="223.125" y="501.25" type="curve" smooth="yes"/>
      <point x="253.48033" y="501.25"/>
      <point x="278.125" y="525.89467"/>
    </contour>
    <contour>
      <point x="173.125" y="100" type="line"/>
      <point x="211.559741949012" y="100.0"/>
      <point x="273.125" y="119.1317977482742"/>
      <point x="273.125" y="225.4926660587556" type="curve"/>
      <point x="273.125" y="408.3333282470703" type="line"/>
      <point x="173.125" y="408.3333282470703" type="line"/>
    </contour>
    <contour>
      <point x="35.625" y="-79.50733394124443" type="line"/>
      <point x="35.62500000000001" y="-185.86820225172582"/>
      <point x="97.19025805098799" y="-205.0"/>
      <point x="135.625" y="-205.0" type="curve"/>
      <point x="135.625" y="195" type="line"/>
      <point x="97.19025805098799" y="195.0"/>
      <point x="35.62500000000001" y="175.86820225172582"/>
      <point x="35.625" y="69.50733394124443" type="curve"/>
    </contour>
    <contour>
      <point x="278.125" y="-162.5" type="curve" smooth="yes"/>
      <point x="278.125" y="-132.14467"/>
      <point x="253.48033" y="-107.5"/>
      <point x="223.125" y="-107.5" type="curve" smooth="yes"/>
      <point x="192.76967" y="-107.5"/>
      <point x="168.125" y="-132.14467"/>
      <point x="168.125" y="-162.5" type="curve" smooth="yes"/>
      <point x="168.125" y="-192.85533"/>
      <point x="192.76967" y="-217.5"/>
      <point x="223.125" y="-217.5" type="curve" smooth="yes"/>
      <point x="253.48033" y="-217.5"/>
      <point x="278.125" y="-192.85533"/>
    </contour>
  </outline>
</glyph>
<glyph name="A_with_circumflex" format="2">
  <advance width="308.75"/>
  <unicode hex="00C2"/>
  <outline>
    <contour>
      <point x="51.25" y="847.2222222222222" type="line"/>
      <point x="106.4415" y="847.2222222222222"/>
      <point x="151.25" y="892.0307222222222"/>
      <point x="151.25" y="947.2222222222222" type="curve"/>
      <point x="51.25" y="947.2222222222222" type="line"/>
    </contour>
    <contour>
      <point x="157.5" y="947.2222222222222" type="line"/>
      <point x="157.5" y="892.0307222222222"/>
      <point x="202.3085" y="847.2222222222222"/>
      <point x="257.5" y="847.2222222222222" type="curve"/>
      <point x="257.5" y="947.2222222222222" type="line"/>
    </contour>
    <contour>
      <point x="35.625" y="0" type="line"/>
      <point x="135.625" y="0" type="line"/>
      <point x="135.625" y="805" type="line"/>
      <point x="97.19025805098799" y="805.0"/>
      <point x="35.62500000000001" y="785.8682022517257"/>
      <point x="35.625" y="679.5073339412444" type="curve"/>
    </contour>
    <contour>
      <point x="173.125" y="0" type="line"/>
      <point x="273.125" y="0" type="line"/>
      <point x="273.125" y="679.5073339412444" type="line"/>
      <point x="273.125" y="785.8682022517257"/>
      <point x="211.559741949012" y="805.0"/>
      <point x="173.125" y="805.0" type="curve"/>
    </contour>
  </outline>
</glyph>
<glyph name="A_with_smalltilde" format="2">
  <advance width="308.75"/>
  <unicode hex="00C3"/>
  <outline>
    <contour>
      <point x="128.88233354969137" y="847.2222215906157" type="line"/>
      <point x="235.24320186017275" y="847.2222206889835"/>
      <point x="254.375" y="908.7874802732101"/>
      <point x="254.375" y="947.2222222222222" type="curve"/>
      <point x="179.86766593963108" y="947.2222215906157" type="line"/>
      <point x="73.50679762914969" y="947.2222206889835"/>
      <point x="54.375" y="885.6569641712342"/>
      <point x="54.375" y="847.2222222222222" type="curve"/>
    </contour>
    <contour>
      <point x="35.625" y="0" type="line"/>
      <point x="135.625" y="0" type="line"/>
      <point x="135.625" y="805" type="line"/>
      <point x="97.19025805098799" y="805.0"/>
      <point x="35.62500000000001" y="785.8682022517257"/>
      <point x="35.625" y="679.5073339412444" type="curve"/>
    </contour>
    <contour>
      <point x="173.125" y="0" type="line"/>
      <point x="273.125" y="0" type="line"/>
      <point x="273.125" y="679.5073339412444" type="line"/>
      <point x="273.125" y="785.8682022517257"/>
      <point x="211.559741949012" y="805.0"/>
      <point x="173.125" y="805.0" type="curve"/>
    </contour>
  </outline>
</glyph>
<glyph name="AE" format="2">
  <advance width="583.75"/>
  <unicode hex="00C6"/>
  <outline>
    <contour>
      <point x="35.625" y="0" type="line"/>
      <point x="135.625" y="0" type="line"/>
      <point x="135.625" y="805" type="line"/>
      <point x="97.19025805098799" y="805.0"/>
      <point x="35.62500000000001" y="785.8682022517257"/>
      <point x="35.625" y="679.5073339412444" type="curve"/>
    </contour>
    <contour>
      <point x="173.125" y="0" type="line"/>
      <point x="273.125" y="0" type="line"/>
      <point x="273.125" y="679.5073339412444" type="line"/>
      <point x="273.125" y="785.8682022517257"/>
      <point x="211.559741949012" y="805.0"/>
      <point x="173.125" y="805.0" type="curve"/>
    </contour>
    <contour>
      <point x="310.625" y="0" type="line"/>
      <point x="410.625" y="0" type="line"/>
      <point x="410.625" y="800" type="line"/>
      <point x="310.625" y="800" type="line"/>
    </contour>
    <contour>
      <point x="448.125" y="800.0" type="line"/>
      <point x="448.125" y="744.8085"/>
      <point x="492.9335" y="700.0"/>
      <point x="548.125" y="700.0" type="curve"/>
      <point x="548.125" y="800.0" type="line"/>
    </contour>
    <contour>
      <point x="448.125" y="500.0" type="line"/>
      <point x="448.125" y="444.8085"/>
      <point x="492.9335" y="400.0"/>
      <point x="548.125" y="400.0" type="curve"/>
      <point x="548.125" y="500.0" type="line"/>
    </contour>
    <contour>
      <point x="548.125" y="100.0" type="line"/>
      <point x="492.9335" y="100.0"/>
      <point x="448.125" y="55.1915"/>
      <point x="448.125" y="0.0" type="curve"/>
      <point x="548.125" y="0.0" type="line"/>
    </contour>
  </outline>
</glyph>
<glyph name="E_with_diaeresis" format="2">
  <advance width="308.75"/>
  <unicode hex="00CB"/>
  <outline>
    <contour>
      <point x="140.625" y="897.2222222222222" type="curve" smooth="yes"/>
      <point x="140.625" y="927.5775522222222"/>
      <point x="115.98033" y="952.2222222222222"/>
      <point x="85.625" y="952.2222222222222" type="curve" smooth="yes"/>
      <point x="55.269670000000005" y="952.2222222222222"/>
      <point x="30.625" y="927.5775522222222"/>
      <point x="30.625" y="897.2222222222222" type="curve" smooth="yes"/>
      <point x="30.625" y="866.8668922222222"/>
      <point x="55.269670000000005" y="842.2222222222222"/>
      <point x="85.625" y="842.2222222222222" type="curve" smooth="yes"/>
      <point x="115.98033" y="842.2222222222222"/>
      <point x="140.625" y="866.8668922222222"/>
    </contour>
    <contour>
      <point x="278.125" y="897.2222222222222" type="curve" smooth="yes"/>
      <point x="278.125" y="927.5775522222222"/>
      <point x="253.48033" y="952.2222222222222"/>
      <point x="223.125" y="952.2222222222222" type="curve" smooth="yes"/>
      <point x="192.76967" y="952.2222222222222"/>
      <point x="168.125" y="927.5775522222222"/>
      <point x="168.125" y="897.2222222222222" type="curve" smooth="yes"/>
      <point x="168.125" y="866.8668922222222"/>
      <point x="192.76967" y="842.2222222222222"/>
      <point x="223.125" y="842.2222222222222" type="curve" smooth="yes"/>
      <point x="253.48033" y="842.2222222222222"/>
      <point x="278.125" y="866.8668922222222"/>
    </contour>
    <contour>
      <point x="35.625" y="0" type="line"/>
      <point x="135.625" y="0" type="line"/>
      <point x="135.625" y="800" type="line"/>
      <point x="35.625" y="800" type="line"/>
    </contour>
    <contour>
      <point x="173.125" y="800.0" type="line"/>
      <point x="173.125" y="744.8085"/>
      <point x="217.9335" y="700.0"/>
      <point x="273.125" y="700.0" type="curve"/>
      <point x="273.125" y="800.0" type="line"/>
    </contour>
    <contour>
      <point x="173.125" y="450.0" type="line"/>
      <point x="173.125" y="394.8085"/>
      <point x="217.9335" y="350.0"/>
      <point x="273.125" y="350.0" type="curve"/>
      <point x="273.125" y="450.0" type="line"/>
    </contour>
    <contour>
      <point x="273.125" y="100.0" type="line"/>
      <point x="217.9335" y="100.0"/>
      <point x="173.125" y="55.1915"/>
      <point x="173.125" y="0.0" type="curve"/>
      <point x="273.125" y="0.0" type="line"/>
    </contour>
  </outline>
</glyph>
<glyph name="I_with_circumflex" format="2">
  <advance width="171.25"/>
  <unicode hex="00CE"/>
  <outline>
    <contour>
      <point x="-17.5" y="847.2222222222222" type="line"/>
      <point x="37.691500000000005" y="847.2222222222222"/>
      <point x="82.5" y="892.0307222222222"/>
      <point x="82.5" y="947.2222222222222" type="curve"/>
      <point x="-17.5" y="947.2222222222222" type="line"/>
    </contour>
    <contour>
      <point x="88.75" y="947.2222222222222" type="line"/>
      <point x="88.75" y="892.0307222222222"/>
      <point x="133.5585" y="847.2222222222222"/>
      <point x="188.75" y="847.2222222222222" type="curve"/>
      <point x="188.75" y="947.2222222222222" type="line"/>
    </contour>
    <contour>
      <point x="35.625" y="0" type="line"/>
      <point x="135.625" y="0" type="line"/>
      <point x="135.625" y="800" type="line"/>
      <point x="35.625" y="800" type="line"/>
    </contour>
  </outline>
</glyph>
<glyph name="ETH" format="2">
  <advance width="446.25"/>
  <unicode hex="00D0"/>
  <outline>
    <contour>
      <point x="173.125" y="0" type="line"/>
      <point x="273.125" y="0" type="line"/>
      <point x="273.125" y="800" type="line"/>
      <point x="173.125" y="800" type="line"/>
      <point x="173.125" y="446.8094482421875" type="line"/>
      <point x="130.01451854755925" y="435.7312231575185"/>
      <point x="98.125" y="396.560322081"/>
      <point x="98.12500000000001" y="350.0" type="curve"/>
      <point x="173.125" y="350" type="line"/>
    </contour>
    <contour>
      <point x="310.625" y="0" type="line"/>
      <point x="349.059741949012" y="0.0"/>
      <point x="410.625" y="19.13179774827421"/>
      <point x="410.625" y="125.4926660587556" type="curve"/>
      <point x="410.625" y="674.5073339412444" type="line"/>
      <point x="410.625" y="780.8682022517257"/>
      <point x="349.059741949012" y="800.0"/>
      <point x="310.625" y="800.0" type="curve"/>
    </contour>
  </outline>
</glyph>
<glyph name="O_with_grave" format="2">
  <advance width="308.75"/>
  <unicode hex="00D2"/>
  <outline>
    <contour>
      <point x="60.625" y="947.2222222222222" type="line"/>
      <point x="60.625" y="892.0307222222222"/>
      <point x="105.4335" y="847.2222222222222"/>
      <point x="160.625" y="847.2222222222222" type="curve"/>
      <point x="160.625" y="947.2222222222222" type="line"/>
    </contour>
    <contour>
      <point x="35.625" y="120.49266605875559" type="line"/>
      <point x="35.62500000000001" y="14.131797748274195"/>
      <point x="97.19025805098799" y="-4.999999999999996"/>
      <point x="135.625" y="-5.0" type="curve"/>
      <point x="135.625" y="805" type="line"/>
      <point x="97.19025805098799" y="805.0"/>
      <point x="35.62500000000001" y="785.8682022517257"/>
      <point x="35.625" y="679.5073339412444" type="curve"/>
    </contour>
    <contour>
      <point x="173.125" y="-5" type="line"/>
      <point x="211.559741949012" y="-5.0"/>
      <point x="273.125" y="14.131797748274195"/>
      <point x="273.125" y="120.49266605875559" type="curve"/>
      <point x="273.125" y="679.5073339412444" type="line"/>
      <point x="273.125" y="785.8682022517257"/>
      <point x="211.559741949012" y="805.0"/>
      <point x="173.125" y="805.0" type="curve"/>
    </contour>
  </outline>
</glyph>
<glyph name="O_with_diaeresis" format="2">
  <advance width="308.75"/>
  <unicode hex="00D6"/>
  <outline>
    <contour>
      <point x="140.625" y="897.2222222222222" type="curve" smooth="yes"/>
      <point x="140.625" y="927.5775522222222"/>
      <point x="115.98033" y="952.2222222222222"/>
      <point x="85.625" y="952.2222222222222" type="curve" smooth="yes"/>
      <point x="55.269670000000005" y="952.2222222222222"/>
      <point x="30.625" y="927.5775522222222"/>
      <point x="30.625" y="897.2222222222222" type="curve" smooth="yes"/>
      <point x="30.625" y="866.8668922222222"/>
      <point x="55.269670000000005" y="842.2222222222222"/>
      <point x="85.625" y="842.2222222222222" type="curve" smooth="yes"/>
      <point x="115.98033" y="842.2222222222222"/>
      <point x="140.625" y="866.8668922222222"/>
    </contour>
    <contour>
      <point x="278.125" y="897.2222222222222" type="curve" smooth="yes"/>
      <point x="278.125" y="927.5775522222222"/>
      <point x="253.48033" y="952.2222222222222"/>
      <point x="223.125" y="952.2222222222222" type="curve" smooth="yes"/>
      <point x="192.76967" y="952.2222222222222"/>
      <point x="168.125" y="927.5775522222222"/>
      <point x="168.125" y="897.2222222222222" type="curve" smooth="yes"/>
      <point x="168.125" y="866.8668922222222"/>
      <point x="192.76967" y="842.2222222222222"/>
      <point x="223.125" y="842.2222222222222" type="curve" smooth="yes"/>
      <point x="253.48033" y="842.2222222222222"/>
      <point x="278.125" y="866.8668922222222"/>
    </contour>
    <contour>
      <point x="35.625" y="120.49266605875559" type="line"/>
      <point x="35.62500000000001" y="14.131797748274195"/>
      <point x="97.19025805098799" y="-4.999999999999996"/>
      <point x="135.625" y="-5.0" type="curve"/>
      <point x="135.625" y="805" type="line"/>
      <point x="97.19025805098799" y="805.0"/>
      <point x="35.62500000000001" y="785.8682022517257"/>
      <point x="35.625" y="679.5073339412444" type="curve"/>
    </contour>
    <contour>
      <point x="173.125" y="-5" type="line"/>
      <point x="211.559741949012" y="-5.0"/>
      <point x="273.125" y="14.131797748274195"/>
      <point x="273.125" y="120.49266605875559" type="curve"/>
      <point x="273.125" y="679.5073339412444" type="line"/>
      <point x="273.125" y="785.8682022517257"/>
      <point x="211.559741949012" y="805.0"/>
      <point x="173.125" y="805.0" type="curve"/>
    </contour>
  </outline>
</glyph>
<glyph name="multiply" format="2">
  <advance width="308.75"/>
  <unicode hex="00D7"/>
  <outline>
    <contour>
      <point x="35.625" y="525.4926660587556" type="line"/>
      <point x="35.62500000000001" y="419.1317977482742"/>
      <point x="97.19025805098799" y="400.0"/>
      <point x="135.625" y="400.0" type="curve"/>
      <point x="135.625" y="600" type="line"/>
      <point x="35.625" y="600" type="line"/>
    </contour>
    <contour>
      <point x="173.125" y="400" type="line"/>
      <point x="211.559741949012" y="400.0"/>
      <point x="273.125" y="419.1317977482742"/>
      <point x="273.125" y="525.4926660587556" type="curve"/>
      <point x="273.125" y="600" type="line"/>
      <point x="173.125" y="600" type="line"/>
    </contour>
    <contour>
      <point x="35.625" y="200" type="line"/>
      <point x="135.625" y="200" type="line"/>
      <point x="135.625" y="400" type="line"/>
      <point x="97.19025805098799" y="400.0"/>
      <point x="35.62500000000001" y="380.8682022517258"/>
      <point x="35.625" y="274.5073339412444" type="curve"/>
    </contour>
    <contour>
      <point x="173.125" y="200" type="line"/>
      <point x="273.125" y="200" type="line"/>
      <point x="273.125" y="274.5073339412444" type="line"/>
      <point x="273.125" y="380.8682022517258"/>
      <point x="211.559741949012" y="400.0"/>
      <point x="173.125" y="400.0" type="curve"/>
    </contour>
  </outline>
</glyph>
<glyph name="O_with_stroke" format="2">
  <advance width="308.75"/>
  <unicode hex="00D8"/>
  <outline>
    <contour>
      <point x="173.125" y="-5" type="line"/>
      <point x="211.559741949012" y="-5.0"/>
      <point x="273.125" y="14.131797748274195"/>
      <point x="273.125" y="120.49266605875559" type="curve"/>
      <point x="273.125" y="679.5073335019789" type="line"/>
      <point x="273.125" y="708.8317936263467"/>
      <point x="273.1249997866925" y="739.1234235801066"/>
      <point x="252.31552124023438" y="765.9945068359375" type="curve"/>
      <point x="279.87161501587366" y="783.7776037988474"/>
      <point x="298.125" y="814.7739699335"/>
      <point x="298.125" y="850.0" type="curve"/>
      <point x="198.125" y="850" type="line"/>
      <point x="198.125" y="801.8408737182617" type="line"/>
      <point x="190.13342315751854" y="803.9041372904408"/>
      <point x="181.756177919" y="805.0"/>
      <point x="173.12500000000003" y="805.0000000000001" type="curve"/>
    </contour>
    <contour>
      <point x="35.625" y="120.4926664980212" type="line"/>
      <point x="35.625" y="91.16820637365329"/>
      <point x="35.625000213307544" y="60.876576419893404"/>
      <point x="56.434478759765625" y="34.0054931640625" type="curve"/>
      <point x="28.87838498412631" y="16.222396201152616"/>
      <point x="10.624999999999996" y="-14.773969933500002"/>
      <point x="10.62499999999999" y="-50.0" type="curve"/>
      <point x="110.625" y="-50" type="line"/>
      <point x="110.625" y="-1.8408737182617188" type="line"/>
      <point x="118.61657684248146" y="-3.9041372904407305"/>
      <point x="126.99382208099999" y="-4.9999999999999964"/>
      <point x="135.625" y="-4.9999999999999964" type="curve"/>
      <point x="135.625" y="805" type="line"/>
      <point x="97.19025805098799" y="805.0"/>
      <point x="35.62500000000001" y="785.8682022517257"/>
      <point x="35.625" y="679.5073339412444" type="curve"/>
    </contour>
  </outline>
</glyph>
<glyph name="U_with_acute" format="2">
  <advance width="308.75"/>
  <unicode hex="00DA"/>
  <outline>
    <contour>
      <point x="148.125" y="847.2222222222222" type="line"/>
      <point x="203.31650000000002" y="847.2222222222222"/>
      <point x="248.125" y="892.0307222222222"/>
      <point x="248.125" y="947.2222222222222" type="curve"/>
      <point x="148.125" y="947.2222222222222" type="line"/>
    </contour>
    <contour>
      <point x="35.625" y="120.49266605875559" type="line"/>
      <point x="35.62500000000001" y="14.131797748274195"/>
      <point x="97.19025805098799" y="-4.999999999999996"/>
      <point x="135.625" y="-5.0" type="curve"/>
      <point x="135.625" y="800" type="line"/>
      <point x="35.625" y="800" type="line"/>
    </contour>
    <contour>
      <point x="173.125" y="-5" type="line"/>
      <point x="211.559741949012" y="-5.0"/>
      <point x="273.125" y="14.131797748274195"/>
      <point x="273.125" y="120.49266605875559" type="curve"/>
      <point x="273.125" y="800" type="line"/>
      <point x="173.125" y="800" type="line"/>
    </contour>
  </outline>
</glyph>
<glyph name="U_with_diaeresis" format="2">
  <advance width="308.75"/>
  <unicode hex="00DC"/>
  <outline>
    <contour>
      <point x="140.625" y="897.2222222222222" type="curve" smooth="yes"/>
      <point x="140.625" y="927.5775522222222"/>
      <point x="115.98033" y="952.2222222222222"/>
      <point x="85.625" y="952.2222222222222" type="curve" smooth="yes"/>
      <point x="55.269670000000005" y="952.2222222222222"/>
      <point x="30.625" y="927.5775522222222"/>
      <point x="30.625" y="897.2222222222222" type="curve" smooth="yes"/>
      <point x="30.625" y="866.8668922222222"/>
      <point x="55.269670000000005" y="842.2222222222222"/>
      <point x="85.625" y="842.2222222222222" type="curve" smooth="yes"/>
      <point x="115.98033" y="842.2222222222222"/>
      <point x="140.625" y="866.8668922222222"/>
    </contour>
    <contour>
      <point x="278.125" y="897.2222222222222" type="curve" smooth="yes"/>
      <point x="278.125" y="927.5775522222222"/>
      <point x="253.48033" y="952.2222222222222"/>
      <point x="223.125" y="952.2222222222222" type="curve" smooth="yes"/>
      <point x="192.76967" y="952.2222222222222"/>
      <point x="168.125" y="927.5775522222222"/>
      <point x="168.125" y="897.2222222222222" type="curve" smooth="yes"/>
      <point x="168.125" y="866.8668922222222"/>
      <point x="192.76967" y="842.2222222222222"/>
      <point x="223.125" y="842.2222222222222" type="curve" smooth="yes"/>
      <point x="253.48033" y="842.2222222222222"/>
      <point x="278.125" y="866.8668922222222"/>
    </contour>
    <contour>
      <point x="35.625" y="120.49266605875559" type="line"/>
      <point x="35.62500000000001" y="14.131797748274195"/>
      <point x="97.19025805098799" y="-4.999999999999996"/>
      <point x="135.625" y="-5.0" type="curve"/>
      <point x="135.625" y="800" type="line"/>
      <point x="35.625" y="800" type="line"/>
    </contour>
    <contour>
      <point x="173.125" y="-5" type="line"/>
      <point x="211.559741949012" y="-5.0"/>
      <point x="273.125" y="14.131797748274195"/>
      <point x="273.125" y="120.49266605875559" type="curve"/>
      <point x="273.125" y="800" type="line"/>
      <point x="173.125" y="800" type="line"/>
    </contour>
  </outline>
</glyph>
<glyph name="Y_with_acute" format="2">
  <advance width="308.75"/>
  <unicode hex="00DD"/>
  <outline>
    <contour>
      <point x="147.1875" y="847.2222222222222" type="line"/>
      <point x="202.37900000000002" y="847.2222222222222"/>
      <point x="247.1875" y="892.0307222222222"/>
      <point x="247.1875" y="947.2222222222222" type="curve"/>
      <point x="147.1875" y="947.2222222222222" type="line"/>
    </contour>
    <contour>
      <point x="35.625" y="325.49266605875556" type="line"/>
      <point x="35.62500000000001" y="219.13179774827415"/>
      <point x="97.19025805098799" y="200.0"/>
      <point x="135.625" y="200.0" type="curve"/>
      <point x="135.625" y="679.5073339412444" type="line"/>
      <point x="135.625" y="785.8682022517257"/>
      <point x="74.05974194901201" y="805.0"/>
      <point x="35.625" y="805.0" type="curve"/>
    </contour>
    <contour>
      <point x="173.125" y="-5" type="line"/>
      <point x="211.559741949012" y="-5.0"/>
      <point x="273.125" y="14.131797748274195"/>
      <point x="273.125" y="120.49266605875559" type="curve"/>
      <point x="273.125" y="800" type="line"/>
      <point x="173.125" y="800" type="line"/>
    </contour>
    <contour>
      <point x="143.75" y="40.0" type="curve" smooth="yes"/>
      <point x="143.75" y="70.35533"/>
      <point x="119.10533" y="95.0"/>
      <point x="88.75" y="95.0" type="curve" smooth="yes"/>
      <point x="58.394670000000005" y="95.0"/>
      <point x="33.75" y="70.35533"/>
      <point x="33.75" y="40.0" type="curve" smooth="yes"/>
      <point x="33.75" y="9.64467"/>
      <point x="58.394670000000005" y="-15.0"/>
      <point x="88.75" y="-15.0" type="curve" smooth="yes"/>
      <point x="119.10533" y="-15.0"/>
      <point x="143.75" y="9.64467"/>
    </contour>
  </outline>
</glyph>
<glyph name="a_with_smalltilde" format="2">
  <advance width="308.75"/>
  <unicode hex="00E3"/>
  <outline>
    <contour>
      <point x="127.16358354969135" y="647.2222215906157" type="line"/>
      <point x="233.52445186017275" y="647.2222206889835"/>
      <point x="252.65625" y="708.7874802732101"/>
      <point x="252.65625" y="747.2222222222222" type="curve"/>
      <point x="178.14891593963108" y="747.2222215906157" type="line"/>
      <point x="71.78804762914969" y="747.2222206889835"/>
      <point x="52.65625" y="685.6569641712342"/>
      <point x="52.65625" y="647.2222222222222" type="curve"/>
    </contour>
    <contour>
      <point x="142.1875" y="550.0" type="curve" smooth="yes"/>
      <point x="142.1875" y="580.35533"/>
      <point x="117.54283" y="605.0"/>
      <point x="87.1875" y="605.0" type="curve" smooth="yes"/>
      <point x="56.832170000000005" y="605.0"/>
      <point x="32.1875" y="580.35533"/>
      <point x="32.1875" y="550.0" type="curve" smooth="yes"/>
      <point x="32.1875" y="519.64467"/>
      <point x="56.832170000000005" y="495.0"/>
      <point x="87.1875" y="495.0" type="curve" smooth="yes"/>
      <point x="117.54283" y="495.0"/>
      <point x="142.1875" y="519.64467"/>
    </contour>
    <contour>
      <point x="173.125" y="120.49266605875559" type="line"/>
      <point x="173.125" y="14.131797748274195"/>
      <point x="234.690258050988" y="-4.999999999999996"/>
      <point x="273.125" y="-5.0" type="curve"/>
      <point x="273.125" y="477.0073339412444" type="line"/>
      <point x="273.125" y="583.3682022517257"/>
      <point x="211.559741949012" y="602.5"/>
      <point x="173.125" y="602.5" type="curve"/>
    </contour>
    <contour>
      <point x="35.625" y="122.99266605875559" type="line"/>
      <point x="35.62500000000001" y="16.631797748274195"/>
      <point x="97.19025805098799" y="-2.499999999999995"/>
      <point x="135.625" y="-2.5" type="curve"/>
      <point x="135.625" y="400" type="line"/>
      <point x="97.19025805098799" y="400.0"/>
      <point x="35.62500000000001" y="380.8682022517258"/>
      <point x="35.625" y="274.5073339412444" type="curve"/>
    </contour>
  </outline>
</glyph>
<glyph name="ae" format="2">
  <advance width="583.75"/>
  <unicode hex="00E6"/>
  <outline>
    <contour>
      <point x="142.1875" y="550.0" type="curve" smooth="yes"/>
      <point x="142.1875" y="580.35533"/>
      <point x="117.54283" y="605.0"/>
      <point x="87.1875" y="605.0" type="curve" smooth="yes"/>
      <point x="56.832170000000005" y="605.0"/>
      <point x="32.1875" y="580.35533"/>
      <point x="32.1875" y="550.0" type="curve" smooth="yes"/>
      <point x="32.1875" y="519.64467"/>
      <point x="56.832170000000005" y="495.0"/>
      <point x="87.1875" y="495.0" type="curve" smooth="yes"/>
      <point x="117.54283" y="495.0"/>
      <point x="142.1875" y="519.64467"/>
    </contour>
    <contour>
      <point x="173.125" y="-5" type="line"/>
      <point x="211.559741949012" y="-5.0"/>
      <point x="273.125" y="14.131797748274195"/>
      <point x="273.125" y="120.49266605875559" type="curve"/>
      <point x="273.125" y="479.5073339412444" type="line"/>
      <point x="273.125" y="585.8682022517257"/>
      <point x="211.559741949012" y="605.0"/>
      <point x="173.125" y="605.0" type="curve"/>
    </contour>
    <contour>
      <point x="310.625" y="120.4926660587556" type="line"/>
      <point x="310.625" y="14.13179774827421"/>
      <point x="372.190258050988" y="-4.999999999999996"/>
      <point x="410.625" y="-5.0" type="curve"/>
      <point x="410.625" y="605" type="line"/>
      <point x="372.190258050988" y="605.0"/>
      <point x="310.625" y="585.8682022517257"/>
      <point x="310.625" y="479.5073339412444" type="curve"/>
    </contour>
    <contour>
      <point x="448.125" y="195" type="line"/>
      <point x="548.125" y="195" type="line"/>
      <point x="548.125" y="479.5073339412444" type="line"/>
      <point x="548.125" y="585.8682022517257"/>
      <point x="486.559741949012" y="605.0"/>
      <point x="448.125" y="605.0" type="curve"/>
    </contour>
    <contour>
      <point x="35.625" y="120.49266605875559" type="line"/>
      <point x="35.62500000000001" y="14.131797748274195"/>
      <point x="97.19025805098799" y="-4.999999999999996"/>
      <point x="135.625" y="-5.0" type="curve"/>
      <point x="135.625" y="395" type="line"/>
      <point x="97.19025805098799" y="395.0"/>
      <point x="35.62500000000001" y="375.8682022517258"/>
      <point x="35.625" y="269.5073339412444" type="curve"/>
    </contour>
  </outline>
</glyph>
<glyph name="i_with_diaeresis" format="2">
  <advance width="171.25"/>
  <unicode hex="00EF"/>
  <outline>
    <contour>
      <point x="71.875" y="697.2222222222222" type="curve" smooth="yes"/>
      <point x="71.875" y="727.5775522222222"/>
      <point x="47.230329999999995" y="752.2222222222222"/>
      <point x="16.875" y="752.2222222222222" type="curve" smooth="yes"/>
      <point x="-13.480329999999999" y="752.2222222222222"/>
      <point x="-38.125" y="727.5775522222222"/>
      <point x="-38.125" y="697.2222222222222" type="curve" smooth="yes"/>
      <point x="-38.125" y="666.8668922222222"/>
      <point x="-13.480329999999999" y="642.2222222222222"/>
      <point x="16.875" y="642.2222222222222" type="curve" smooth="yes"/>
      <point x="47.230329999999995" y="642.2222222222222"/>
      <point x="71.875" y="666.8668922222222"/>
    </contour>
    <contour>
      <point x="209.375" y="697.2222222222222" type="curve" smooth="yes"/>
      <point x="209.375" y="727.5775522222222"/>
      <point x="184.73033" y="752.2222222222222"/>
      <point x="154.375" y="752.2222222222222" type="curve" smooth="yes"/>
      <point x="124.01966999999999" y="752.2222222222222"/>
      <point x="99.375" y="727.5775522222222"/>
      <point x="99.375" y="697.2222222222222" type="curve" smooth="yes"/>
      <point x="99.375" y="666.8668922222222"/>
      <point x="124.01966999999999" y="642.2222222222222"/>
      <point x="154.375" y="642.2222222222222" type="curve" smooth="yes"/>
      <point x="184.73033" y="642.2222222222222"/>
      <point x="209.375" y="666.8668922222222"/>
    </contour>
    <contour>
      <point x="35.625" y="0" type="line"/>
      <point x="135.625" y="0" type="line"/>
      <point x="135.625" y="600" type="line"/>
      <point x="35.625" y="600" type="line"/>
    </contour>
  </outline>
</glyph>
<glyph name="eth" format="2">
  <advance width="308.75"/>
  <unicode hex="00F0"/>
  <outline>
    <contour>
      <point x="173.125" y="-5" type="line"/>
      <point x="211.559741949012" y="-5.0"/>
      <point x="273.125" y="14.131797748274195"/>
      <point x="273.125" y="120.49266605875559" type="curve"/>
      <point x="273.125" y="679.5073339412444" type="line"/>
      <point x="273.125" y="785.8682022517257"/>
      <point x="211.559741949012" y="805.0"/>
      <point x="173.125" y="805.0" type="curve"/>
    </contour>
    <contour>
      <point x="35.625" y="120.49266605875559" type="line"/>
      <point x="35.62500000000001" y="14.131797748274195"/>
      <point x="97.19025805098799" y="-4.999999999999996"/>
      <point x="135.625" y="-5.0" type="curve"/>
      <point x="135.625" y="600" type="line"/>
      <point x="97.19025805098799" y="600.0"/>
      <point x="35.62500000000001" y="580.8682022517257"/>
      <point x="35.625" y="474.5073339412444" type="curve"/>
    </contour>
  </outline>
</glyph>
<glyph name="n_with_smalltilde" format="2">
  <advance width="308.75"/>
  <unicode hex="00F1"/>
  <outline>
    <contour>
      <point x="128.88233354969137" y="647.2222215906157" type="line"/>
      <point x="235.24320186017275" y="647.2222206889835"/>
      <point x="254.375" y="708.7874802732101"/>
      <point x="254.375" y="747.2222222222222" type="curve"/>
      <point x="179.86766593963108" y="747.2222215906157" type="line"/>
      <point x="73.50679762914969" y="747.2222206889835"/>
      <point x="54.375" y="685.6569641712342"/>
      <point x="54.375" y="647.2222222222222" type="curve"/>
    </contour>
    <contour>
      <point x="35.625" y="0" type="line"/>
      <point x="135.625" y="0" type="line"/>
      <point x="135.625" y="600" type="line"/>
      <point x="35.625" y="600" type="line"/>
    </contour>
    <contour>
      <point x="173.125" y="0" type="line"/>
      <point x="273.125" y="0" type="line"/>
      <point x="273.125" y="474.5073339412444" type="line"/>
      <point x="273.125" y="580.8682022517257"/>
      <point x="211.559741949012" y="600.0"/>
      <point x="173.125" y="600.0" type="curve"/>
    </contour>
  </outline>
</glyph>
<glyph name="o_with_smalltilde" format="2">
  <advance width="308.75"/>
  <unicode hex="00F5"/>
  <outline>
    <contour>
      <point x="128.88233354969137" y="647.2222215906157" type="line"/>
      <point x="235.24320186017275" y="647.2222206889835"/>
      <point x="254.375" y="708.7874802732101"/>
      <point x="254.375" y="747.2222222222222" type="curve"/>
      <point x="179.86766593963108" y="747.2222215906157" type="line"/>
      <point x="73.50679762914969" y="747.2222206889835"/>
      <point x="54.375" y="685.6569641712342"/>
      <point x="54.375" y="647.2222222222222" type="curve"/>
    </contour>
    <contour>
      <point x="35.625" y="120.49266605875559" type="line"/>
      <point x="35.62500000000001" y="14.131797748274195"/>
      <point x="97.19025805098799" y="-4.999999999999996"/>
      <point x="135.625" y="-5.0" type="curve"/>
      <point x="135.625" y="605" type="line"/>
      <point x="97.19025805098799" y="605.0"/>
      <point x="35.62500000000001" y="585.8682022517257"/>
      <point x="35.625" y="479.5073339412444" type="curve"/>
    </contour>
    <contour>
      <point x="173.125" y="-5" type="line"/>
      <point x="211.559741949012" y="-5.0"/>
      <point x="273.125" y="14.131797748274195"/>
      <point x="273.125" y="120.49266605875559" type="curve"/>
      <point x="273.125" y="479.5073339412444" type="line"/>
      <point x="273.125" y="585.8682022517257"/>
      <point x="211.559741949012" y="605.0"/>
      <point x="173.125" y="605.0" type="curve"/>
    </contour>
  </outline>
</glyph>
<glyph name="o_with_diaeresis" format="2">
  <advance width="308.75"/>
  <unicode hex="00F6"/>
  <outline>
    <contour>
      <point x="140.625" y="697.2222222222222" type="curve" smooth="yes"/>
      <point x="140.625" y="727.5775522222222"/>
      <point x="115.98033" y="752.2222222222222"/>
      <point x="85.625" y="752.2222222222222" type="curve" smooth="yes"/>
      <point x="55.269670000000005" y="752.2222222222222"/>
      <point x="30.625" y="727.5775522222222"/>
      <point x="30.625" y="697.2222222222222" type="curve" smooth="yes"/>
      <point x="30.625" y="666.8668922222222"/>
      <point x="55.269670000000005" y="642.2222222222222"/>
      <point x="85.625" y="642.2222222222222" type="curve" smooth="yes"/>
      <point x="115.98033" y="642.2222222222222"/>
      <point x="140.625" y="666.8668922222222"/>
    </contour>
    <contour>
      <point x="278.125" y="697.2222222222222" type="curve" smooth="yes"/>
      <point x="278.125" y="727.5775522222222"/>
      <point x="253.48033" y="752.2222222222222"/>
      <point x="223.125" y="752.2222222222222" type="curve" smooth="yes"/>
      <point x="192.76967" y="752.2222222222222"/>
      <point x="168.125" y="727.5775522222222"/>
      <point x="168.125" y="697.2222222222222" type="curve" smooth="yes"/>
      <point x="168.125" y="666.8668922222222"/>
      <point x="192.76967" y="642.2222222222222"/>
      <point x="223.125" y="642.2222222222222" type="curve" smooth="yes"/>
      <point x="253.48033" y="642.2222222222222"/>
      <point x="278.125" y="666.8668922222222"/>
    </contour>
    <contour>
      <point x="35.625" y="120.49266605875559" type="line"/>
      <point x="35.62500000000001" y="14.131797748274195"/>
      <point x="97.19025805098799" y="-4.999999999999996"/>
      <point x="135.625" y="-5.0" type="curve"/>
      <point x="135.625" y="605" type="line"/>
      <point x="97.19025805098799" y="605.0"/>
      <point x="35.62500000000001" y="585.8682022517257"/>
      <point x="35.625" y="479.5073339412444" type="curve"/>
    </contour>
    <contour>
      <point x="173.125" y="-5" type="line"/>
      <point x="211.559741949012" y="-5.0"/>
      <point x="273.125" y="14.131797748274195"/>
      <point x="273.125" y="120.49266605875559" type="curve"/>
      <point x="273.125" y="479.5073339412444" type="line"/>
      <point x="273.125" y="585.8682022517257"/>
      <point x="211.559741949012" y="605.0"/>
      <point x="173.125" y="605.0" type="curve"/>
    </contour>
  </outline>
</glyph>
<glyph name="u_with_circumflex" format="2">
  <advance width="308.75"/>
  <unicode hex="00FB"/>
  <outline>
    <contour>
      <point x="51.25" y="647.2222222222222" type="line"/>
      <point x="106.4415" y="647.2222222222222"/>
      <point x="151.25" y="692.0307222222222"/>
      <point x="151.25" y="747.2222222222222" type="curve"/>
      <point x="51.25" y="747.2222222222222" type="line"/>
    </contour>
    <contour>
      <point x="157.5" y="747.2222222222222" type="line"/>
      <point x="157.5" y="692.0307222222222"/>
      <point x="202.3085" y="647.2222222222222"/>
      <point x="257.5" y="647.2222222222222" type="curve"/>
      <point x="257.5" y="747.2222222222222" type="line"/>
    </contour>
    <contour>
      <point x="35.625" y="120.49266605875559" type="line"/>
      <point x="35.62500000000001" y="14.131797748274195"/>
      <point x="97.19025805098799" y="-4.999999999999996"/>
      <point x="135.625" y="-5.0" type="curve"/>
      <point x="135.625" y="600" type="line"/>
      <point x="35.625" y="600" type="line"/>
    </contour>
    <contour>
      <point x="173.125" y="-5" type="line"/>
      <point x="211.559741949012" y="-5.0"/>
      <point x="273.125" y="14.131797748274195"/>
      <point x="273.125" y="120.49266605875559" type="curve"/>
      <point x="273.125" y="600" type="line"/>
      <point x="173.125" y="600" type="line"/>
    </contour>
  </outline>
</glyph>
<glyph name="y_with_acute" format="2">
  <advance width="308.75"/>
  <unicode hex="00FD"/>
  <outline>
    <contour>
      <point x="148.125" y="647.2222222222222" type="line"/>
      <point x="203.31650000000002" y="647.2222222222222"/>
      <point x="248.125" y="692.0307222222222"/>
      <point x="248.125" y="747.2222222222222" type="curve"/>
      <point x="148.125" y="747.2222222222222" type="line"/>
    </contour>
    <contour>
      <point x="35.625" y="125.49266605875559" type="line"/>
      <point x="35.62500000000001" y="19.131797748274195"/>
      <point x="97.19025805098799" y="4.706898370391206e-15"/>
      <point x="135.625" y="0.0" type="curve"/>
      <point x="135.625" y="479.5073339412444" type="line"/>
      <point x="135.625" y="585.8682022517257"/>
      <point x="74.05974194901201" y="605.0"/>
      <point x="35.625" y="605.0" type="curve"/>
    </contour>
    <contour>
      <point x="173.125" y="-210" type="line"/>
      <point x="211.559741949012" y="-210.0"/>
      <point x="273.125" y="-190.86820225172582"/>
      <point x="273.125" y="-84.50733394124443" type="curve"/>
      <point x="273.125" y="600" type="line"/>
      <point x="173.125" y="600" type="line"/>
    </contour>
    <contour>
      <point x="138.75" y="-160.0" type="curve" smooth="yes"/>
      <point x="138.75" y="-132.40425"/>
      <point x="116.34575" y="-110.0"/>
      <point x="88.75" y="-110.0" type="curve" smooth="yes"/>
      <point x="61.154250000000005" y="-110.0"/>
      <point x="38.75" y="-132.40425"/>
      <point x="38.75" y="-160.0" type="curve" smooth="yes"/>
      <point x="38.75" y="-187.59575"/>
      <point x="61.154250000000005" y="-210.0"/>
      <point x="88.75" y="-210.0" type="curve" smooth="yes"/>
      <point x="116.34575" y="-210.0"/>
      <point x="138.75" y="-187.59575"/>
    </contour>
  </outline>
</glyph>
<glyph name="y_with_diaeresis" format="2">
  <advance width="308.75"/>
  <unicode hex="00FF"/>
  <outline>
    <contour>
      <point x="140.625" y="697.2222222222222" type="curve" smooth="yes"/>
      <point x="140.625" y="727.5775522222222"/>
      <point x="115.98033" y="752.2222222222222"/>
      <point x="85.625" y="752.2222222222222" type="curve" smooth="yes"/>
      <point x="55.269670000000005" y="752.2222222222222"/>
      <point x="30.625" y="727.5775522222222"/>
      <point x="30.625" y="697.2222222222222" type="curve" smooth="yes"/>
      <point x="30.625" y="666.8668922222222"/>
      <point x="55.269670000000005" y="642.2222222222222"/>
      <point x="85.625" y="642.2222222222222" type="curve" smooth="yes"/>
      <point x="115.98033" y="642.2222222222222"/>
      <point x="140.625" y="666.8668922222222"/>
    </contour>
    <contour>
      <point x="278.125" y="697.2222222222222" type="curve" smooth="yes"/>
      <point x="278.125" y="727.5775522222222"/>
      <point x="253.48033" y="752.2222222222222"/>
      <point x="223.125" y="752.2222222222222" type="curve" smooth="yes"/>
      <point x="192.76967" y="752.2222222222222"/>
      <point x="168.125" y="727.5775522222222"/>
      <point x="168.125" y="697.2222222222222" type="curve" smooth="yes"/>
      <point x="168.125" y="666.8668922222222"/>
      <point x="192.76967" y="642.2222222222222"/>
      <point x="223.125" y="642.2222222222222" type="curve" smooth="yes"/>
      <point x="253.48033" y="642.2222222222222"/>
      <point x="278.125" y="666.8668922222222"/>
    </contour>
    <contour>
      <point x="35.625" y="125.49266605875559" type="line"/>
      <point x="35.62500000000001" y="19.131797748274195"/>
      <point x="97.19025805098799" y="4.706898370391206e-15"/>
      <point x="135.625" y="0.0" type="curve"/>
      <point x="135.625" y="479.5073339412444" type="line"/>
      <point x="135.625" y="585.8682022517257"/>
      <point x="74.05974194901201" y="605.0"/>
      <point x="35.625" y="605.0" type="curve"/>
    </contour>
    <contour>
      <point x="173.125" y="-210" type="line"/>
      <point x="211.559741949012" y="-210.0"/>
      <point x="273.125" y="-190.86820225172582"/>
      <point x="273.125" y="-84.50733394124443" type="curve"/>
      <point x="273.125" y="600" type="line"/>
      <point x="173.125" y="600" type="line"/>
    </contour>
    <contour>
      <point x="138.75" y="-160.0" type="curve" smooth="yes"/>
      <point x="138.75" y="-132.40425"/>
      <point x="116.34575" y="-110.0"/>
      <point x="88.75" y="-110.0" type="curve" smooth="yes"/>
      <point x="61.154250000000005" y="-110.0"/>
      <point x="38.75" y="-132.40425"/>
      <point x="38.75" y="-160.0" type="curve" smooth="yes"/>
      <point x="38.75" y="-187.59575"/>
      <point x="61.154250000000005" y="-210.0"/>
      <point x="88.75" y="-210.0" type="curve" smooth="yes"/>
      <point x="116.34575" y="-210.0"/>
      <point x="138.75" y="-187.59575"/>
    </contour>
  </outline>
</glyph>
<glyph name="A_with_ogonek" format="2">
  <advance width="308.75"/>
  <unicode hex="0104"/>
  <outline>
    <contour>
      <point x="35.625" y="0" type="line"/>
      <point x="135.625" y="0" type="line"/>
      <point x="135.625" y="805" type="line"/>
      <point x="97.19025805098799" y="805.0"/>
      <point x="35.62500000000001" y="785.8682022517257"/>
      <point x="35.625" y="679.5073339412444" type="curve"/>
    </contour>
    <contour>
      <point x="173.125" y="0" type="line"/>
      <point x="273.125" y="0" type="line"/>
      <point x="273.125" y="679.5073339412444" type="line"/>
      <point x="273.125" y="785.8682022517257"/>
      <point x="211.559741949012" y="805.0"/>
      <point x="173.125" y="805.0" type="curve"/>
    </contour>
    <contour>
      <point x="273.125" y="-25.0" type="line"/>
      <point x="217.9335" y="-25.0"/>
      <point x="173.125" y="-69.80850000000001"/>
      <point x="173.125" y="-125.0" type="curve"/>
      <point x="273.125" y="-125.0" type="line"/>
    </contour>
  </outline>
</glyph>
<glyph name="C_with_acute" format="2">
  <advance width="308.75"/>
  <unicode hex="0106"/>
  <outline>
    <contour>
      <point x="148.125" y="847.2222222222222" type="line"/>
      <point x="203.31650000000002" y="847.2222222222222"/>
      <point x="248.125" y="892.0307222222222"/>
      <point x="248.125" y="947.2222222222222" type="curve"/>
      <point x="148.125" y="947.2222222222222" type="line"/>
    </contour>
    <contour>
      <point x="35.625" y="125.49266605875559" type="line"/>
      <point x="35.62500000000001" y="19.131797748274195"/>
      <point x="97.19025805098799" y="4.706898370391206e-15"/>
      <point x="135.625" y="0.0" type="curve"/>
      <point x="135.625" y="800" type="line"/>
      <point x="97.19025805098799" y="800.0"/>
      <point x="35.62500000000001" y="780.8682022517257"/>
      <point x="35.625" y="674.5073339412444" type="curve"/>
    </contour>
    <contour>
      <point x="173.125" y="625.4926660587556" type="line"/>
      <point x="173.125" y="519.1317977482743"/>
      <point x="234.690258050988" y="500.0"/>
      <point x="273.125" y="500.0" type="curve"/>
      <point x="273.125" y="800" type="line"/>
      <point x="173.125" y="800" type="line"/>
    </contour>
    <contour>
      <point x="273.125" y="100.0" type="line"/>
      <point x="217.9335" y="100.0"/>
      <point x="173.125" y="55.1915"/>
      <point x="173.125" y="0.0" type="curve"/>
      <point x="273.125" y="0.0" type="line"/>
    </contour>
  </outline>
</glyph>
<glyph name="c_with_circumflex" format="2">
  <advance width="308.75"/>
  <unicode hex="0109"/>
  <outline>
    <contour>
      <point x="53.75" y="647.2222222222222" type="line"/>
      <point x="108.9415" y="647.2222222222222"/>
      <point x="153.75" y="692.0307222222222"/>
      <point x="153.75" y="747.2222222222222" type="curve"/>
      <point x="53.75" y="747.2222222222222" type="line"/>
    </contour>
    <contour>
      <point x="160.0" y="747.2222222222222" type="line"/>
      <point x="160.0" y="692.0307222222222"/>
      <point x="204.8085" y="647.2222222222222"/>
      <point x="260.0" y="647.2222222222222" type="curve"/>
      <point x="260.0" y="747.2222222222222" type="line"/>
    </contour>
    <contour>
      <point x="35.625" y="125.49266605875559" type="line"/>
      <point x="35.62500000000001" y="19.131797748274195"/>
      <point x="97.19025805098799" y="4.706898370391206e-15"/>
      <point x="135.625" y="0.0" type="curve"/>
      <point x="135.625" y="605" type="line"/>
      <point x="97.19025805098799" y="605.0"/>
      <point x="35.62500000000001" y="585.8682022517257"/>
      <point x="35.625" y="479.5073339412444" type="curve"/>
    </contour>
    <contour>
      <point x="278.125" y="550.0" type="curve" smooth="yes"/>
      <point x="278.125" y="580.35533"/>
      <point x="253.48033" y="605.0"/>
      <point x="223.125" y="605.0" type="curve" smooth="yes"/>
      <point x="192.76967" y="605.0"/>
      <point x="168.125" y="580.35533"/>
      <point x="168.125" y="550.0" type="curve" smooth="yes"/>
      <point x="168.125" y="519.64467"/>
      <point x="192.76967" y="495.0"/>
      <point x="223.125" y="495.0" type="curve" smooth="yes"/>
      <point x="253.48033" y="495.0"/>
      <point x="278.125" y="519.64467"/>
    </contour>
    <contour>
      <point x="271.5625" y="100.0" type="line"/>
      <point x="216.371" y="100.0"/>
      <point x="171.5625" y="55.1915"/>
      <point x="171.5625" y="0.0" type="curve"/>
      <point x="271.5625" y="0.0" type="line"/>
    </contour>
  </outline>
</glyph>
<glyph name="e_with_dotabove" format="2">
  <advance width="308.75"/>
  <unicode hex="0117"/>
  <outline>
    <contour>
      <point x="209.375" y="697.2222222222222" type="curve" smooth="yes"/>
      <point x="209.375" y="727.5775522222222"/>
      <point x="184.73032999999998" y="752.2222222222222"/>
      <point x="154.375" y="752.2222222222222" type="curve" smooth="yes"/>
      <point x="124.01967" y="752.2222222222222"/>
      <point x="99.375" y="727.5775522222222"/>
      <point x="99.375" y="697.2222222222222" type="curve" smooth="yes"/>
      <point x="99.375" y="666.8668922222222"/>
      <point x="124.01967" y="642.2222222222222"/>
      <point x="154.375" y="642.2222222222222" type="curve" smooth="yes"/>
      <point x="184.73032999999998" y="642.2222222222222"/>
      <point x="209.375" y="666.8668922222222"/>
    </contour>
    <contour>
      <point x="35.625" y="120.49266605875559" type="line"/>
      <point x="35.62500000000001" y="14.131797748274195"/>
      <point x="97.19025805098799" y="-4.999999999999996"/>
      <point x="135.625" y="-5.0" type="curve"/>
      <point x="135.625" y="605" type="line"/>
      <point x="97.19025805098799" y="605.0"/>
      <point x="35.62500000000001" y="585.8682022517257"/>
      <point x="35.625" y="479.5073339412444" type="curve"/>
    </contour>
    <contour>
      <point x="173.125" y="195" type="line"/>
      <point x="273.125" y="195" type="line"/>
      <point x="273.125" y="479.5073339412444" type="line"/>
      <point x="273.125" y="585.8682022517257"/>
      <point x="211.559741949012" y="605.0"/>
      <point x="173.125" y="605.0" type="curve"/>
    </contour>
  </outline>
</glyph>
<glyph name="E_with_ogonek" format="2">
  <advance width="308.75"/>
  <unicode hex="0118"/>
  <outline>
    <contour>
      <point x="35.625" y="0" type="line"/>
      <point x="135.625" y="0" type="line"/>
      <point x="135.625" y="800" type="line"/>
      <point x="35.625" y="800" type="line"/>
    </contour>
    <contour>
      <point x="173.125" y="800.0" type="line"/>
      <point x="173.125" y="744.8085"/>
      <point x="217.9335" y="700.0"/>
      <point x="273.125" y="700.0" type="curve"/>
      <point x="273.125" y="800.0" type="line"/>
    </contour>
    <contour>
      <point x="173.125" y="450.0" type="line"/>
      <point x="173.125" y="394.8085"/>
      <point x="217.9335" y="350.0"/>
      <point x="273.125" y="350.0" type="curve"/>
      <point x="273.125" y="450.0" type="line"/>
    </contour>
    <contour>
      <point x="273.125" y="100.0" type="line"/>
      <point x="217.9335" y="100.0"/>
      <point x="173.125" y="55.1915"/>
      <point x="173.125" y="0.0" type="curve"/>
      <point x="273.125" y="0.0" type="line"/>
    </contour>
    <contour>
      <point x="273.125" y="-25.0" type="line"/>
      <point x="217.9335" y="-25.0"/>
      <point x="173.125" y="-69.80850000000001"/>
      <point x="173.125" y="-125.0" type="curve"/>
      <point x="273.125" y="-125.0" type="line"/>
    </contour>
  </outline>
</glyph>
<glyph name="G_with_breve" format="2">
  <advance width="308.75"/>
  <unicode hex="011E"/>
  <outline>
    <contour>
      <point x="54.375" y="947.2222213745117" type="line"/>
      <point x="54.375" y="892.0307222222222"/>
      <point x="99.18350000000001" y="847.2222222222222"/>
      <point x="154.375" y="847.2222222222222" type="curve"/>
      <point x="209.5665" y="847.2222222222222"/>
      <point x="254.375" y="892.0307222222222"/>
      <point x="254.375" y="947.2222222222222" type="curve"/>
    </contour>
    <contour>
      <point x="35.625" y="125.49266605875559" type="line"/>
      <point x="35.62500000000001" y="19.131797748274195"/>
      <point x="97.19025805098799" y="4.706898370391206e-15"/>
      <point x="135.625" y="0.0" type="curve"/>
      <point x="135.625" y="800" type="line"/>
      <point x="97.19025805098799" y="800.0"/>
      <point x="35.62500000000001" y="780.8682022517257"/>
      <point x="35.625" y="674.5073339412444" type="curve"/>
    </contour>
    <contour>
      <point x="173.125" y="800.0" type="line"/>
      <point x="173.125" y="744.8085"/>
      <point x="217.9335" y="700.0"/>
      <point x="273.125" y="700.0" type="curve"/>
      <point x="273.125" y="800.0" type="line"/>
    </contour>
    <contour>
      <point x="173.125" y="125.49266605875559" type="line"/>
      <point x="173.125" y="19.131797748274195"/>
      <point x="234.690258050988" y="4.706898370391206e-15"/>
      <point x="273.125" y="0.0" type="curve"/>
      <point x="273.125" y="400" type="line"/>
      <point x="173.125" y="400" type="line"/>
    </contour>
  </outline>
</glyph>
<glyph name="G_with_dotabove" format="2">
  <advance width="308.75"/>
  <unicode hex="0120"/>
  <outline>
    <contour>
      <point x="209.375" y="897.2222222222222" type="curve" smooth="yes"/>
      <point x="209.375" y="927.5775522222222"/>
      <point x="184.73032999999998" y="952.2222222222222"/>
      <point x="154.375" y="952.2222222222222" type="curve" smooth="yes"/>
      <point x="124.01967" y="952.2222222222222"/>
      <point x="99.375" y="927.5775522222222"/>
      <point x="99.375" y="897.2222222222222" type="curve" smooth="yes"/>
      <point x="99.375" y="866.8668922222222"/>
      <point x="124.01967" y="842.2222222222222"/>
      <point x="154.375" y="842.2222222222222" type="curve" smooth="yes"/>
      <point x="184.73032999999998" y="842.2222222222222"/>
      <point x="209.375" y="866.8668922222222"/>
    </contour>
    <contour>
      <point x="35.625" y="125.49266605875559" type="line"/>
      <point x="35.62500000000001" y="19.131797748274195"/>
      <point x="97.19025805098799" y="4.706898370391206e-15"/>
      <point x="135.625" y="0.0" type="curve"/>
      <point x="135.625" y="800" type="line"/>
      <point x="97.19025805098799" y="800.0"/>
      <point x="35.62500000000001" y="780.8682022517257"/>
      <point x="35.625" y="674.5073339412444" type="curve"/>
    </contour>
    <contour>
      <point x="173.125" y="800.0" type="line"/>
      <point x="173.125" y="744.8085"/>
      <point x="217.9335" y="700.0"/>
      <point x="273.125" y="700.0" type="curve"/>
      <point x="273.125" y="800.0" type="line"/>
    </contour>
    <contour>
      <point x="173.125" y="125.49266605875559" type="line"/>
      <point x="173.125" y="19.131797748274195"/>
      <point x="234.690258050988" y="4.706898370391206e-15"/>
      <point x="273.125" y="0.0" type="curve"/>
      <point x="273.125" y="400" type="line"/>
      <point x="173.125" y="400" type="line"/>
    </contour>
  </outline>
</glyph>
<glyph name="g_with_dotabove" format="2">
  <advance width="308.75"/>
  <unicode hex="0121"/>
  <outline>
    <contour>
      <point x="209.375" y="697.2222222222222" type="curve" smooth="yes"/>
      <point x="209.375" y="727.5775522222222"/>
      <point x="184.73032999999998" y="752.2222222222222"/>
      <point x="154.375" y="752.2222222222222" type="curve" smooth="yes"/>
      <point x="124.01967" y="752.2222222222222"/>
      <point x="99.375" y="727.5775522222222"/>
      <point x="99.375" y="697.2222222222222" type="curve" smooth="yes"/>
      <point x="99.375" y="666.8668922222222"/>
      <point x="124.01967" y="642.2222222222222"/>
      <point x="154.375" y="642.2222222222222" type="curve" smooth="yes"/>
      <point x="184.73032999999998" y="642.2222222222222"/>
      <point x="209.375" y="666.8668922222222"/>
    </contour>
    <contour>
      <point x="35.625" y="125.49266605875559" type="line"/>
      <point x="35.62500000000001" y="19.131797748274195"/>
      <point x="97.19025805098799" y="4.706898370391206e-15"/>
      <point x="135.625" y="0.0" type="curve"/>
      <point x="135.625" y="600" type="line"/>
      <point x="97.19025805098799" y="600.0"/>
      <point x="35.62500000000001" y="580.8682022517257"/>
      <point x="35.625" y="474.5073339412444" type="curve"/>
    </contour>
    <contour>
      <point x="173.125" y="-210" type="line"/>
      <point x="211.559741949012" y="-210.0"/>
      <point x="273.125" y="-190.86820225172582"/>
      <point x="273.125" y="-84.50733394124443" type="curve"/>
      <point x="273.125" y="600" type="line"/>
      <point x="173.125" y="600" type="line"/>
    </contour>
    <contour>
      <point x="138.75" y="-160.0" type="curve" smooth="yes"/>
      <point x="138.75" y="-132.40425"/>
      <point x="116.34575" y="-110.0"/>
      <point x="88.75" y="-110.0" type="curve" smooth="yes"/>
      <point x="61.154250000000005" y="-110.0"/>
      <point x="38.75" y="-132.40425"/>
      <point x="38.75" y="-160.0" type="curve" smooth="yes"/>
      <point x="38.75" y="-187.59575"/>
      <point x="61.154250000000005" y="-210.0"/>
      <point x="88.75" y="-210.0" type="curve" smooth="yes"/>
      <point x="116.34575" y="-210.0"/>
      <point x="138.75" y="-187.59575"/>
    </contour>
  </outline>
</glyph>
<glyph name="I_with_smalltilde" format="2">
  <advance width="171.25"/>
  <unicode hex="0128"/>
  <outline>
    <contour>
      <point x="60.13233354969135" y="847.2222215906157" type="line"/>
      <point x="166.49320186017275" y="847.2222206889835"/>
      <point x="185.625" y="908.7874802732101"/>
      <point x="185.625" y="947.2222222222222" type="curve"/>
      <point x="111.11766593963108" y="947.2222215906157" type="line"/>
      <point x="4.756797629149688" y="947.2222206889835"/>
      <point x="-14.374999999999998" y="885.6569641712342"/>
      <point x="-14.375" y="847.2222222222222" type="curve"/>
    </contour>
    <contour>
      <point x="35.625" y="0" type="line"/>
      <point x="135.625" y="0" type="line"/>
      <point x="135.625" y="800" type="line"/>
      <point x="35.625" y="800" type="line"/>
    </contour>
  </outline>
</glyph>
<glyph name="i_with_breve" format="2">
  <advance width="171.25"/>
  <unicode hex="012D"/>
  <outline>
    <contour>
      <point x="-14.375" y="747.2222213745117" type="line"/>
      <point x="-14.375" y="692.0307222222222"/>
      <point x="30.433500000000002" y="647.2222222222222"/>
      <point x="85.625" y="647.2222222222222" type="curve"/>
      <point x="140.8165" y="647.2222222222222"/>
      <point x="185.625" y="692.0307222222222"/>
      <point x="185.625" y="747.2222222222222" type="curve"/>
    </contour>
    <contour>
      <point x="35.625" y="0" type="line"/>
      <point x="135.625" y="0" type="line"/>
      <point x="135.625" y="600" type="line"/>
      <point x="35.625" y="600" type="line"/>
    </contour>
  </outline>
</glyph>
<glyph name="i_with_ogonek" format="2">
  <advance width="171.25"/>
  <unicode hex="012F"/>
  <outline>
    <contour>
      <point x="140.625" y="697.22222" type="curve" smooth="yes"/>
      <point x="140.625" y="727.57755"/>
      <point x="115.98033" y="752.22222"/>
      <point x="85.625" y="752.22222" type="curve" smooth="yes"/>
      <point x="55.269670000000005" y="752.22222"/>
      <point x="30.625" y="727.57755"/>
      <point x="30.625" y="697.22222" type="curve" smooth="yes"/>
      <point x="30.625" y="666.86689"/>
      <point x="55.269670000000005" y="642.22222"/>
      <point x="85.625" y="642.22222" type="curve" smooth="yes"/>
      <point x="115.98033" y="642.22222"/>
      <point x="140.625" y="666.86689"/>
    </contour>
    <contour>
      <point x="35.625" y="0" type="line"/>
      <point x="135.625" y="0" type="line"/>
      <point x="135.625" y="600" type="line"/>
      <point x="35.625" y="600" type="line"/>
    </contour>
    <contour>
      <point x="140.625" y="-25.0" type="line"/>
      <point x="85.4335" y="-25.0"/>
      <point x="40.625" y="-69.80850000000001"/>
      <point x="40.625" y="-125.0" type="curve"/>
      <point x="140.625" y="-125.0" type="line"/>
    </contour>
  </outline>
</glyph>
<glyph name="j_with_circumflex" format="2">
  <advance width="308.75"/>
  <unicode hex="0135"/>
  <outline>
    <contour>
      <point x="119.0625" y="647.2222222222222" type="line"/>
      <point x="174.25400000000002" y="647.2222222222222"/>
      <point x="219.0625" y="692.0307222222222"/>
      <point x="219.0625" y="747.2222222222222" type="curve"/>
      <point x="119.0625" y="747.2222222222222" type="line"/>
    </contour>
    <contour>
      <point x="225.3125" y="747.2222222222222" type="line"/>
      <point x="225.3125" y="692.0307222222222"/>
      <point x="270.121" y="647.2222222222222"/>
      <point x="325.3125" y="647.2222222222222" type="curve"/>
      <point x="325.3125" y="747.2222222222222" type="line"/>
    </contour>
    <contour>
      <point x="173.125" y="-210" type="line"/>
      <point x="211.559741949012" y="-210.0"/>
      <point x="273.125" y="-190.86820225172582"/>
      <point x="273.125" y="-84.50733394124443" type="curve"/>
      <point x="273.125" y="600" type="line"/>
      <point x="173.125" y="600" type="line"/>
    </contour>
    <contour>
      <point x="138.75" y="-160.0" type="curve" smooth="yes"/>
      <point x="138.75" y="-132.40425"/>
      <point x="116.34575" y="-110.0"/>
      <point x="88.75" y="-110.0" type="curve" smooth="yes"/>
      <point x="61.154250000000005" y="-110.0"/>
      <point x="38.75" y="-132.40425"/>
      <point x="38.75" y="-160.0" type="curve" smooth="yes"/>
      <point x="38.75" y="-187.59575"/>
      <point x="61.154250000000005" y="-210.0"/>
      <point x="88.75" y="-210.0" type="curve" smooth="yes"/>
      <point x="116.34575" y="-210.0"/>
      <point x="138.75" y="-187.59575"/>
    </contour>
  </outline>
</glyph>
<glyph name="k_with_cedilla" format="2">
  <advance width="308.75"/>
  <unicode hex="0137"/>
  <outline>
    <contour>
      <point x="35.625" y="0" type="line"/>
      <point x="135.625" y="0" type="line"/>
      <point x="135.625" y="800" type="line"/>
      <point x="35.625" y="800" type="line"/>
    </contour>
    <contour>
      <point x="173.125" y="300" type="line"/>
      <point x="211.559741949012" y="300.0"/>
      <point x="273.125" y="319.1317977482742"/>
      <point x="273.125" y="425.4926660587556" type="curve"/>
      <point x="273.125" y="600" type="line"/>
      <point x="173.125" y="600" type="line"/>
    </contour>
    <contour>
      <point x="173.125" y="0" type="line"/>
      <point x="273.125" y="0" type="line"/>
      <point x="273.125" y="174.5073339412444" type="line"/>
      <point x="273.125" y="280.8682022517258"/>
      <point x="211.559741949012" y="300.0"/>
      <point x="173.125" y="300.0" type="curve"/>
    </contour>
    <contour>
      <point x="248.125" y="-125.0" type="line"/>
      <point x="248.125" y="-69.80850000000001"/>
      <point x="203.31650000000002" y="-25.0"/>
      <point x="148.125" y="-25.0" type="curve"/>
      <point x="148.125" y="-125.0" type="line"/>
    </contour>
  </outline>
</glyph>
<glyph name="kra" format="2">
  <advance width="308.75"/>
  <unicode hex="0138"/>
  <outline>
    <contour>
      <point x="35.625" y="0" type="line"/>
      <point x="135.625" y="0" type="line"/>
      <point x="135.625" y="600" type="line"/>
      <point x="35.625" y="600" type="line"/>
    </contour>
    <contour>
      <point x="173.125" y="300" type="line"/>
      <point x="211.559741949012" y="300.0"/>
      <point x="273.125" y="319.1317977482742"/>
      <point x="273.125" y="425.4926660587556" type="curve"/>
      <point x="273.125" y="600" type="line"/>
      <point x="173.125" y="600" type="line"/>
    </contour>
    <contour>
      <point x="173.125" y="0" type="line"/>
      <point x="273.125" y="0" type="line"/>
      <point x="273.125" y="174.5073339412444" type="line"/>
      <point x="273.125" y="280.8682022517258"/>
      <point x="211.559741949012" y="300.0"/>
      <point x="173.125" y="300.0" type="curve"/>
    </contour>
  </outline>
</glyph>
<glyph name="l_with_acute" format="2">
  <advance width="171.25"/>
  <unicode hex="013A"/>
  <outline>
    <contour>
      <point x="79.375" y="847.2222222222222" type="line"/>
      <point x="134.56650000000002" y="847.2222222222222"/>
      <point x="179.375" y="892.0307222222222"/>
      <point x="179.375" y="947.2222222222222" type="curve"/>
      <point x="79.375" y="947.2222222222222" type="line"/>
    </contour>
    <contour>
      <point x="35.625" y="120.49266605875559" type="line"/>
      <point x="35.62500000000001" y="14.131797748274195"/>
      <point x="97.19025805098799" y="-4.999999999999996"/>
      <point x="135.625" y="-5.0" type="curve"/>
      <point x="135.625" y="800" type="line"/>
      <point x="35.625" y="800" type="line"/>
    </contour>
  </outline>
</glyph>
<glyph name="l_with_cedilla" format="2">
  <advance width="171.25"/>
  <unicode hex="013C"/>
  <outline>
    <contour>
      <point x="35.625" y="120.49266605875559" type="line"/>
      <point x="35.62500000000001" y="14.131797748274195"/>
      <point x="97.19025805098799" y="-4.999999999999996"/>
      <point x="135.625" y="-5.0" type="curve"/>
      <point x="135.625" y="800" type="line"/>
      <point x="35.625" y="800" type="line"/>
    </contour>
    <contour>
      <point x="179.375" y="-130.0" type="line"/>
      <point x="179.375" y="-74.80850000000001"/>
      <point x="134.56650000000002" y="-30.0"/>
      <point x="79.375" y="-30.0" type="curve"/>
      <point x="79.375" y="-130.0" type="line"/>
    </contour>
  </outline>
</glyph>
<glyph name="L_with_stroke" format="2">
  <advance width="321.25"/>
  <unicode hex="0141"/>
  <outline>
    <contour>
      <point x="48.125" y="0" type="line"/>
      <point x="148.125" y="0" type="line"/>
      <point x="148.125" y="507.29522705078125" type="line"/>
      <point x="184.7587964608781" y="522.1272373036562"/>
      <point x="210.625" y="558.0667677045"/>
      <point x="210.625" y="600.0" type="curve"/>
      <point x="148.125" y="600" type="line"/>
      <point x="148.125" y="800" type="line"/>
      <point x="48.125" y="800" type="line"/>
      <point x="48.125" y="492.70477294921875" type="line"/>
      <point x="11.49120353912189" y="477.8727626963438"/>
      <point x="-14.37500000000001" y="441.9332322955"/>
      <point x="-14.375000000000014" y="399.99999999999994" type="curve"/>
      <point x="48.125" y="400" type="line"/>
    </contour>
    <contour>
      <point x="285.625" y="100.0" type="line"/>
      <point x="230.4335" y="100.0"/>
      <point x="185.625" y="55.1915"/>
      <point x="185.625" y="0.0" type="curve"/>
      <point x="285.625" y="0.0" type="line"/>
    </contour>
  </outline>
</glyph>
<glyph name="l_with_stroke" format="2">
  <advance width="196.25"/>
  <unicode hex="0142"/>
  <outline>
    <contour>
      <point x="48.125" y="120.49266605875559" type="line"/>
      <point x="48.12500000000001" y="14.131797748274195"/>
      <point x="109.69025805098799" y="-4.999999999999996"/>
      <point x="148.125" y="-5.0" type="curve"/>
      <point x="148.125" y="507.29522705078125" type="line"/>
      <point x="184.7587964608781" y="522.1272373036562"/>
      <point x="210.625" y="558.0667677045"/>
      <point x="210.625" y="600.0" type="curve"/>
      <point x="148.125" y="600" type="line"/>
      <point x="148.125" y="800" type="line"/>
      <point x="48.125" y="800" type="line"/>
      <point x="48.125" y="492.70477294921875" type="line"/>
      <point x="11.49120353912189" y="477.8727626963438"/>
      <point x="-14.37500000000001" y="441.9332322955"/>
      <point x="-14.375000000000014" y="399.99999999999994" type="curve"/>
      <point x="48.125" y="400" type="line"/>
    </contour>
  </outline>
</glyph>
<glyph name="N_with_acute" format="2">
  <advance width="308.75"/>
  <unicode hex="0143"/>
  <outline>
    <contour>
      <point x="148.125" y="847.2222222222222" type="line"/>
      <point x="203.31650000000002" y="847.2222222222222"/>
      <point x="248.125" y="892.0307222222222"/>
      <point x="248.125" y="947.2222222222222" type="curve"/>
      <point x="148.125" y="947.2222222222222" type="line"/>
    </contour>
    <contour>
      <point x="35.625" y="0" type="line"/>
      <point x="135.625" y="0" type="line"/>
      <point x="135.625" y="800" type="line"/>
      <point x="35.625" y="800" type="line"/>
    </contour>
    <contour>
      <point x="173.125" y="0" type="line"/>
      <point x="273.125" y="0" type="line"/>
      <point x="273.125" y="674.5073339412444" type="line"/>
      <point x="273.125" y="780.8682022517257"/>
      <point x="211.559741949012" y="800.0"/>
      <point x="173.125" y="800.0" type="curve"/>
    </contour>
  </outline>
</glyph>
<glyph name="n_with_acute" format="2">
  <advance width="308.75"/>
  <unicode hex="0144"/>
  <outline>
    <contour>
      <point x="148.125" y="647.2222222222222" type="line"/>
      <point x="203.31650000000002" y="647.2222222222222"/>
      <point x="248.125" y="692.0307222222222"/>
      <point x="248.125" y="747.2222222222222" type="curve"/>
      <point x="148.125" y="747.2222222222222" type="line"/>
    </contour>
    <contour>
      <point x="35.625" y="0" type="line"/>
      <point x="135.625" y="0" type="line"/>
      <point x="135.625" y="600" type="line"/>
      <point x="35.625" y="600" type="line"/>
    </contour>
    <contour>
      <point x="173.125" y="0" type="line"/>
      <point x="273.125" y="0" type="line"/>
      <point x="273.125" y="474.5073339412444" type="line"/>
      <point x="273.125" y="580.8682022517257"/>
      <point x="211.559741949012" y="600.0"/>
      <point x="173.125" y="600.0" type="curve"/>
    </contour>
  </outline>
</glyph>
<glyph name="N_with_cedilla" format="2">
  <advance width="308.75"/>
  <unicode hex="0145"/>
  <outline>
    <contour>
      <point x="35.625" y="0" type="line"/>
      <point x="135.625" y="0" type="line"/>
      <point x="135.625" y="800" type="line"/>
      <point x="35.625" y="800" type="line"/>
    </contour>
    <contour>
      <point x="173.125" y="0" type="line"/>
      <point x="273.125" y="0" type="line"/>
      <point x="273.125" y="674.5073339412444" type="line"/>
      <point x="273.125" y="780.8682022517257"/>
      <point x="211.559741949012" y="800.0"/>
      <point x="173.125" y="800.0" type="curve"/>
    </contour>
    <contour>
      <point x="248.125" y="-125.0" type="line"/>
      <point x="248.125" y="-69.80850000000001"/>
      <point x="203.31650000000002" y="-25.0"/>
      <point x="148.125" y="-25.0" type="curve"/>
      <point x="148.125" y="-125.0" type="line"/>
    </contour>
  </outline>
</glyph>
<glyph name="n_with_cedilla" format="2">
  <advance width="308.75"/>
  <unicode hex="0146"/>
  <outline>
    <contour>
      <point x="35.625" y="0" type="line"/>
      <point x="135.625" y="0" type="line"/>
      <point x="135.625" y="600" type="line"/>
      <point x="35.625" y="600" type="line"/>
    </contour>
    <contour>
      <point x="173.125" y="0" type="line"/>
      <point x="273.125" y="0" type="line"/>
      <point x="273.125" y="474.5073339412444" type="line"/>
      <point x="273.125" y="580.8682022517257"/>
      <point x="211.559741949012" y="600.0"/>
      <point x="173.125" y="600.0" type="curve"/>
    </contour>
    <contour>
      <point x="248.125" y="-125.0" type="line"/>
      <point x="248.125" y="-69.80850000000001"/>
      <point x="203.31650000000002" y="-25.0"/>
      <point x="148.125" y="-25.0" type="curve"/>
      <point x="148.125" y="-125.0" type="line"/>
    </contour>
  </outline>
</glyph>
<glyph name="N_with_caron" format="2">
  <advance width="308.75"/>
  <unicode hex="0147"/>
  <outline>
    <contour>
      <point x="151.25" y="847.2222222222222" type="line"/>
      <point x="151.25" y="902.4137222222222"/>
      <point x="106.4415" y="947.2222222222222"/>
      <point x="51.25" y="947.2222222222222" type="curve"/>
      <point x="51.25" y="847.2222222222222" type="line"/>
    </contour>
    <contour>
      <point x="257.5" y="947.2222222222222" type="line"/>
      <point x="202.3085" y="947.2222222222222"/>
      <point x="157.5" y="902.4137222222222"/>
      <point x="157.5" y="847.2222222222222" type="curve"/>
      <point x="257.5" y="847.2222222222222" type="line"/>
    </contour>
    <contour>
      <point x="35.625" y="0" type="line"/>
      <point x="135.625" y="0" type="line"/>
      <point x="135.625" y="800" type="line"/>
      <point x="35.625" y="800" type="line"/>
    </contour>
    <contour>
      <point x="173.125" y="0" type="line"/>
      <point x="273.125" y="0" type="line"/>
      <point x="273.125" y="674.5073339412444" type="line"/>
      <point x="273.125" y="780.8682022517257"/>
      <point x="211.559741949012" y="800.0"/>
      <point x="173.125" y="800.0" type="curve"/>
    </contour>
  </outline>
</glyph>
<glyph name="O_with_macron" format="2">
  <advance width="308.75"/>
  <unicode hex="014C"/>
  <outline>
    <contour>
      <point x="54.375" y="847.2222213745117" type="line"/>
      <point x="254.375" y="847.2222213745117" type="line"/>
      <point x="254.375" y="947.2222213745117" type="line"/>
      <point x="54.375" y="947.2222213745117" type="line"/>
    </contour>
    <contour>
      <point x="35.625" y="120.49266605875559" type="line"/>
      <point x="35.62500000000001" y="14.131797748274195"/>
      <point x="97.19025805098799" y="-4.999999999999996"/>
      <point x="135.625" y="-5.0" type="curve"/>
      <point x="135.625" y="805" type="line"/>
      <point x="97.19025805098799" y="805.0"/>
      <point x="35.62500000000001" y="785.8682022517257"/>
      <point x="35.625" y="679.5073339412444" type="curve"/>
    </contour>
    <contour>
      <point x="173.125" y="-5" type="line"/>
      <point x="211.559741949012" y="-5.0"/>
      <point x="273.125" y="14.131797748274195"/>
      <point x="273.125" y="120.49266605875559" type="curve"/>
      <point x="273.125" y="679.5073339412444" type="line"/>
      <point x="273.125" y="785.8682022517257"/>
      <point x="211.559741949012" y="805.0"/>
      <point x="173.125" y="805.0" type="curve"/>
    </contour>
  </outline>
</glyph>
<glyph name="R_with_cedilla" format="2">
  <advance width="308.75"/>
  <unicode hex="0156"/>
  <outline>
    <contour>
      <point x="35.625" y="0" type="line"/>
      <point x="135.625" y="0" type="line"/>
      <point x="135.625" y="800" type="line"/>
      <point x="35.625" y="800" type="line"/>
    </contour>
    <contour>
      <point x="173.125" y="200" type="line"/>
      <point x="211.559741949012" y="200.0"/>
      <point x="273.125" y="219.13179774827415"/>
      <point x="273.125" y="325.49266605875556" type="curve"/>
      <point x="273.125" y="674.5073339412444" type="line"/>
      <point x="273.125" y="780.8682022517257"/>
      <point x="211.559741949012" y="800.0"/>
      <point x="173.125" y="800.0" type="curve"/>
    </contour>
    <contour>
      <point x="173.125" y="0" type="line"/>
      <point x="273.125" y="0" type="line"/>
      <point x="273.125" y="74.50733394124443" type="line"/>
      <point x="273.125" y="180.86820225172582"/>
      <point x="211.559741949012" y="200.0"/>
      <point x="173.125" y="200.0" type="curve"/>
    </contour>
    <contour>
      <point x="248.125" y="-125.0" type="line"/>
      <point x="248.125" y="-69.80850000000001"/>
      <point x="203.31650000000002" y="-25.0"/>
      <point x="148.125" y="-25.0" type="curve"/>
      <point x="148.125" y="-125.0" type="line"/>
    </contour>
  </outline>
</glyph>
<glyph name="R_with_caron" format="2">
  <advance width="308.75"/>
  <unicode hex="0158"/>
  <outline>
    <contour>
      <point x="151.25" y="847.2222222222222" type="line"/>
      <point x="151.25" y="902.4137222222222"/>
      <point x="106.4415" y="947.2222222222222"/>
      <point x="51.25" y="947.2222222222222" type="curve"/>
      <point x="51.25" y="847.2222222222222" type="line"/>
    </contour>
    <contour>
      <point x="257.5" y="947.2222222222222" type="line"/>
      <point x="202.3085" y="947.2222222222222"/>
      <point x="157.5" y="902.4137222222222"/>
      <point x="157.5" y="847.2222222222222" type="curve"/>
      <point x="257.5" y="847.2222222222222" type="line"/>
    </contour>
    <contour>
      <point x="35.625" y="0" type="line"/>
      <point x="135.625" y="0" type="line"/>
      <point x="135.625" y="800" type="line"/>
      <point x="35.625" y="800" type="line"/>
    </contour>
    <contour>
      <point x="173.125" y="200" type="line"/>
      <point x="211.559741949012" y="200.0"/>
      <point x="273.125" y="219.13179774827415"/>
      <point x="273.125" y="325.49266605875556" type="curve"/>
      <point x="273.125" y="674.5073339412444" type="line"/>
      <point x="273.125" y="780.8682022517257"/>
      <point x="211.559741949012" y="800.0"/>
      <point x="173.125" y="800.0" type="curve"/>
    </contour>
    <contour>
      <point x="173.125" y="0" type="line"/>
      <point x="273.125" y="0" type="line"/>
      <point x="273.125" y="74.50733394124443" type="line"/>
      <point x="273.125" y="180.86820225172582"/>
      <point x="211.559741949012" y="200.0"/>
      <point x="173.125" y="200.0" type="curve"/>
    </contour>
  </outline>
</glyph>
<glyph name="r_with_caron" format="2">
  <advance width="308.75"/>
  <unicode hex="0159"/>
  <outline>
    <contour>
      <point x="153.75" y="647.2222222222222" type="line"/>
      <point x="153.75" y="702.4137222222222"/>
      <point x="108.9415" y="747.2222222222222"/>
      <point x="53.75" y="747.2222222222222" type="curve"/>
      <point x="53.75" y="647.2222222222222" type="line"/>
    </contour>
    <contour>
      <point x="260.0" y="747.2222222222222" type="line"/>
      <point x="204.8085" y="747.2222222222222"/>
      <point x="160.0" y="702.4137222222222"/>
      <point x="160.0" y="647.2222222222222" type="curve"/>
      <point x="260.0" y="647.2222222222222" type="line"/>
    </contour>
    <contour>
      <point x="278.125" y="550.0" type="curve" smooth="yes"/>
      <point x="278.125" y="580.35533"/>
      <point x="253.48033" y="605.0"/>
      <point x="223.125" y="605.0" type="curve" smooth="yes"/>
      <point x="192.76967" y="605.0"/>
      <point x="168.125" y="580.35533"/>
      <point x="168.125" y="550.0" type="curve" smooth="yes"/>
      <point x="168.125" y="519.64467"/>
      <point x="192.76967" y="495.0"/>
      <point x="223.125" y="495.0" type="curve" smooth="yes"/>
      <point x="253.48033" y="495.0"/>
      <point x="278.125" y="519.64467"/>
    </contour>
    <contour>
      <point x="35.625" y="0" type="line"/>
      <point x="135.625" y="0" type="line"/>
      <point x="135.625" y="600" type="line"/>
      <point x="35.625" y="600" type="line"/>
    </contour>
  </outline>
</glyph>
<glyph name="S_with_cedilla" format="2">
  <advance width="308.75"/>
  <unicode hex="015E"/>
  <outline>
    <contour>
      <point x="35.625" y="475.4926660587556" type="line"/>
      <point x="35.62500000000001" y="369.1317977482742"/>
      <point x="97.19025805098799" y="350.0"/>
      <point x="135.625" y="350.0" type="curve"/>
      <point x="135.625" y="800" type="line"/>
      <point x="97.19025805098799" y="800.0"/>
      <point x="35.62500000000001" y="780.8682022517257"/>
      <point x="35.625" y="674.5073339412444" type="curve"/>
    </contour>
    <contour>
      <point x="170.0" y="800.0" type="line"/>
      <point x="170.0" y="744.8085"/>
      <point x="214.8085" y="700.0"/>
      <point x="270.0" y="700.0" type="curve"/>
      <point x="270.0" y="800.0" type="line"/>
    </contour>
    <contour>
      <point x="173.125" y="0" type="line"/>
      <point x="211.559741949012" y="0.0"/>
      <point x="273.125" y="19.131797748274195"/>
      <point x="273.125" y="125.49266605875559" type="curve"/>
      <point x="273.125" y="324.5073339412444" type="line"/>
      <point x="273.125" y="430.8682022517258"/>
      <point x="211.559741949012" y="450.0"/>
      <point x="173.125" y="450.0" type="curve"/>
    </contour>
    <contour>
      <point x="137.1875" y="0" type="line"/>
      <point x="137.1875" y="55.1915"/>
      <point x="92.37899999999999" y="100.0"/>
      <point x="37.1875" y="100.0" type="curve"/>
      <point x="37.1875" y="0" type="line"/>
    </contour>
    <contour>
      <point x="248.125" y="-125.0" type="line"/>
      <point x="248.125" y="-69.80850000000001"/>
      <point x="203.31650000000002" y="-25.0"/>
      <point x="148.125" y="-25.0" type="curve"/>
      <point x="148.125" y="-125.0" type="line"/>
    </contour>
  </outline>
</glyph>
<glyph name="s_with_caron" format="2">
  <advance width="308.75"/>
  <unicode hex="0161"/>
  <outline>
    <contour>
      <point x="151.25" y="647.2222222222222" type="line"/>
      <point x="151.25" y="702.4137222222222"/>
      <point x="106.4415" y="747.2222222222222"/>
      <point x="51.25" y="747.2222222222222" type="curve"/>
      <point x="51.25" y="647.2222222222222" type="line"/>
    </contour>
    <contour>
      <point x="257.5" y="747.2222222222222" type="line"/>
      <point x="202.3085" y="747.2222222222222"/>
      <point x="157.5" y="702.4137222222222"/>
      <point x="157.5" y="647.2222222222222" type="curve"/>
      <point x="257.5" y="647.2222222222222" type="line"/>
    </contour>
    <contour>
      <point x="35.625" y="375.4926660587556" type="line"/>
      <point x="35.62500000000001" y="269.1317977482742"/>
      <point x="97.19025805098799" y="250.0"/>
      <point x="135.625" y="250.0" type="curve"/>
      <point x="135.625" y="600" type="line"/>
      <point x="97.19025805098799" y="600.0"/>
      <point x="35.62500000000001" y="580.8682022517257"/>
      <point x="35.625" y="474.5073339412444" type="curve"/>
    </contour>
    <contour>
      <point x="170.0" y="600.0" type="line"/>
      <point x="170.0" y="544.8085"/>
      <point x="214.8085" y="500.0"/>
      <point x="270.0" y="500.0" type="curve"/>
      <point x="270.0" y="600.0" type="line"/>
    </contour>
    <contour>
      <point x="173.125" y="-5" type="line"/>
      <point x="211.559741949012" y="-5.0"/>
      <point x="273.125" y="14.131797748274195"/>
      <point x="273.125" y="120.49266605875559" type="curve"/>
      <point x="273.125" y="219.50733394124438" type="line"/>
      <point x="273.125" y="325.8682022517258"/>
      <point x="211.559741949012" y="345.0"/>
      <point x="173.125" y="345.0" type="curve"/>
    </contour>
    <contour>
      <point x="137.1875" y="0" type="line"/>
      <point x="137.1875" y="55.1915"/>
      <point x="92.37899999999999" y="100.0"/>
      <point x="37.1875" y="100.0" type="curve"/>
      <point x="37.1875" y="0" type="line"/>
    </contour>
  </outline>
</glyph>
<glyph name="t_with_cedilla" format="2">
  <advance width="308.75"/>
  <unicode hex="0163"/>
  <outline>
    <contour>
      <point x="35.625" y="0" type="line"/>
      <point x="135.625" y="0" type="line"/>
      <point x="135.625" y="800" type="line"/>
      <point x="97.19025805098799" y="800.0"/>
      <point x="35.62500000000001" y="780.8682022517257"/>
      <point x="35.625" y="674.5073339412444" type="curve"/>
    </contour>
    <contour>
      <point x="173.125" y="500.0" type="line"/>
      <point x="228.3165" y="500.0"/>
      <point x="273.125" y="544.8085"/>
      <point x="273.125" y="600.0" type="curve"/>
      <point x="173.125" y="600.0" type="line"/>
    </contour>
    <contour>
      <point x="188.75" y="-125.0" type="line"/>
      <point x="188.75" y="-69.80850000000001"/>
      <point x="143.94150000000002" y="-25.0"/>
      <point x="88.75" y="-25.0" type="curve"/>
      <point x="88.75" y="-125.0" type="line"/>
    </contour>
  </outline>
</glyph>
<glyph name="u_with_macron" format="2">
  <advance width="308.75"/>
  <unicode hex="016B"/>
  <outline>
    <contour>
      <point x="54.375" y="647.2222213745117" type="line"/>
      <point x="254.375" y="647.2222213745117" type="line"/>
      <point x="254.375" y="747.2222213745117" type="line"/>
      <point x="54.375" y="747.2222213745117" type="line"/>
    </contour>
    <contour>
      <point x="35.625" y="120.49266605875559" type="line"/>
      <point x="35.62500000000001" y="14.131797748274195"/>
      <point x="97.19025805098799" y="-4.999999999999996"/>
      <point x="135.625" y="-5.0" type="curve"/>
      <point x="135.625" y="600" type="line"/>
      <point x="35.625" y="600" type="line"/>
    </contour>
    <contour>
      <point x="173.125" y="-5" type="line"/>
      <point x="211.559741949012" y="-5.0"/>
      <point x="273.125" y="14.131797748274195"/>
      <point x="273.125" y="120.49266605875559" type="curve"/>
      <point x="273.125" y="600" type="line"/>
      <point x="173.125" y="600" type="line"/>
    </contour>
  </outline>
</glyph>
<glyph name="U_with_ring" format="2">
  <advance width="308.75"/>
  <unicode hex="016E"/>
  <outline>
    <contour>
      <point x="135.625" y="952.2222222222222" type="line"/>
      <point x="105.26967" y="952.2222222222222"/>
      <point x="80.625" y="927.5775522222222"/>
      <point x="80.625" y="897.2222222222222" type="curve" smooth="yes"/>
      <point x="80.625" y="866.8668922222222"/>
      <point x="105.26967" y="842.2222222222222"/>
      <point x="135.625" y="842.2222222222222" type="curve"/>
    </contour>
    <contour>
      <point x="173.125" y="842.2222222222222" type="line"/>
      <point x="203.48033" y="842.2222222222222"/>
      <point x="228.125" y="866.8668922222222"/>
      <point x="228.125" y="897.2222222222222" type="curve" smooth="yes"/>
      <point x="228.125" y="927.5775522222222"/>
      <point x="203.48033" y="952.2222222222222"/>
      <point x="173.125" y="952.2222222222222" type="curve"/>
    </contour>
    <contour>
      <point x="35.625" y="120.49266605875559" type="line"/>
      <point x="35.62500000000001" y="14.131797748274195"/>
      <point x="97.19025805098799" y="-4.999999999999996"/>
      <point x="135.625" y="-5.0" type="curve"/>
      <point x="135.625" y="800" type="line"/>
      <point x="35.625" y="800" type="line"/>
    </contour>
    <contour>
      <point x="173.125" y="-5" type="line"/>
      <point x="211.559741949012" y="-5.0"/>
      <point x="273.125" y="14.131797748274195"/>
      <point x="273.125" y="120.49266605875559" type="curve"/>
      <point x="273.125" y="800" type="line"/>
      <point x="173.125" y="800" type="line"/>
    </contour>
  </outline>
</glyph>
<glyph name="u_with_ring" format="2">
  <advance width="308.75"/>
  <unicode hex="016F"/>
  <outline>
    <contour>
      <point x="135.625" y="752.2222222222222" type="line"/>
      <point x="105.26967" y="752.2222222222222"/>
      <point x="80.625" y="727.5775522222222"/>
      <point x="80.625" y="697.2222222222222" type="curve" smooth="yes"/>
      <point x="80.625" y="666.8668922222222"/>
      <point x="105.26967" y="642.2222222222222"/>
      <point x="135.625" y="642.2222222222222" type="curve"/>
    </contour>
    <contour>
      <point x="173.125" y="642.2222222222222" type="line"/>
      <point x="203.48033" y="642.2222222222222"/>
      <point x="228.125" y="666.8668922222222"/>
      <point x="228.125" y="697.2222222222222" type="curve" smooth="yes"/>
      <point x="228.125" y="727.5775522222222"/>
      <point x="203.48033" y="752.2222222222222"/>
      <point x="173.125" y="752.2222222222222" type="curve"/>
    </contour>
    <contour>
      <point x="35.625" y="120.49266605875559" type="line"/>
      <point x="35.62500000000001" y="14.131797748274195"/>
      <point x="97.19025805098799" y="-4.999999999999996"/>
      <point x="135.625" y="-5.0" type="curve"/>
      <point x="135.625" y="600" type="line"/>
      <point x="35.625" y="600" type="line"/>
    </contour>
    <contour>
      <point x="173.125" y="-5" type="line"/>
      <point x="211.559741949012" y="-5.0"/>
      <point x="273.125" y="14.131797748274195"/>
      <point x="273.125" y="120.49266605875559" type="curve"/>
      <point x="273.125" y="600" type="line"/>
      <point x="173.125" y="600" type="line"/>
    </contour>
  </outline>
</glyph>
<glyph name="W_with_circumflex" format="2">
  <advance width="446.25"/>
  <unicode hex="0174"/>
  <outline>
    <contour>
      <point x="120.0" y="847.2222222222222" type="line"/>
      <point x="175.19150000000002" y="847.2222222222222"/>
      <point x="220.0" y="892.0307222222222"/>
      <point x="220.0" y="947.2222222222222" type="curve"/>
      <point x="120.0" y="947.2222222222222" type="line"/>
    </contour>
    <contour>
      <point x="226.25" y="947.2222222222222" type="line"/>
      <point x="226.25" y="892.0307222222222"/>
      <point x="271.0585" y="847.2222222222222"/>
      <point x="326.25" y="847.2222222222222" type="curve"/>
      <point x="326.25" y="947.2222222222222" type="line"/>
    </contour>
    <contour>
      <point x="35.625" y="125.49266605875559" type="line"/>
      <point x="35.62500000000001" y="19.131797748274195"/>
      <point x="97.19025805098799" y="4.706898370391206e-15"/>
      <point x="135.625" y="0.0" type="curve"/>
      <point x="135.625" y="674.5073339412444" type="line"/>
      <point x="135.625" y="780.8682022517257"/>
      <point x="74.05974194901201" y="800.0"/>
      <point x="35.625" y="800.0" type="curve"/>
    </contour>
    <contour>
      <point x="173.125" y="0" type="line"/>
      <point x="273.125" y="0" type="line"/>
      <point x="273.125" y="674.5073339412444" type="line"/>
      <point x="273.125" y="780.8682022517257"/>
      <point x="211.559741949012" y="800.0"/>
      <point x="173.125" y="800.0" type="curve"/>
    </contour>
    <contour>
      <point x="310.625" y="0" type="line"/>
      <point x="349.059741949012" y="0.0"/>
      <point x="410.625" y="19.13179774827421"/>
      <point x="410.625" y="125.4926660587556" type="curve"/>
      <point x="410.625" y="800" type="line"/>
      <point x="310.625" y="800" type="line"/>
    </contour>
  </outline>
</glyph>
<glyph name="Z_with_acute" format="2">
  <advance width="308.75"/>
  <unicode hex="0179"/>
  <outline>
    <contour>
      <point x="148.125" y="847.2222222222222" type="line"/>
      <point x="203.31650000000002" y="847.2222222222222"/>
      <point x="248.125" y="892.0307222222222"/>
      <point x="248.125" y="947.2222222222222" type="curve"/>
      <point x="148.125" y="947.2222222222222" type="line"/>
    </contour>
    <contour>
      <point x="35.625" y="700.0" type="line"/>
      <point x="90.81649999999999" y="700.0"/>
      <point x="135.625" y="744.8085"/>
      <point x="135.625" y="800.0" type="curve"/>
      <point x="35.625" y="800.0" type="line"/>
    </contour>
    <contour>
      <point x="173.125" y="350" type="line"/>
      <point x="211.559741949012" y="350.0"/>
      <point x="273.125" y="369.1317977482742"/>
      <point x="273.125" y="475.4926660587556" type="curve"/>
      <point x="273.125" y="800" type="line"/>
      <point x="173.125" y="800" type="line"/>
    </contour>
    <contour>
      <point x="35.625" y="0" type="line"/>
      <point x="135.625" y="0" type="line"/>
      <point x="135.625" y="450" type="line"/>
      <point x="97.19025805098799" y="450.0"/>
      <point x="35.62500000000001" y="430.8682022517258"/>
      <point x="35.625" y="324.5073339412444" type="curve"/>
    </contour>
    <contour>
      <point x="273.125" y="100.0" type="line"/>
      <point x="217.9335" y="100.0"/>
      <point x="173.125" y="55.1915"/>
      <point x="173.125" y="0.0" type="curve"/>
      <point x="273.125" y="0.0" type="line"/>
    </contour>
  </outline>
</glyph>
<glyph name="z_with_acute" format="2">
  <advance width="308.75"/>
  <unicode hex="017A"/>
  <outline>
    <contour>
      <point x="148.125" y="647.2222222222222" type="line"/>
      <point x="203.31650000000002" y="647.2222222222222"/>
      <point x="248.125" y="692.0307222222222"/>
      <point x="248.125" y="747.2222222222222" type="curve"/>
      <point x="148.125" y="747.2222222222222" type="line"/>
    </contour>
    <contour>
      <point x="35.625" y="500.0" type="line"/>
      <point x="90.81649999999999" y="500.0"/>
      <point x="135.625" y="544.8085"/>
      <point x="135.625" y="600.0" type="curve"/>
      <point x="35.625" y="600.0" type="line"/>
    </contour>
    <contour>
      <point x="173.125" y="250" type="line"/>
      <point x="211.559741949012" y="250.0"/>
      <point x="273.125" y="269.1317977482742"/>
      <point x="273.125" y="375.4926660587556" type="curve"/>
      <point x="273.125" y="600" type="line"/>
      <point x="173.125" y="600" type="line"/>
    </contour>
    <contour>
      <point x="35.625" y="0" type="line"/>
      <point x="135.625" y="0" type="line"/>
      <point x="135.625" y="350" type="line"/>
      <point x="97.19025805098799" y="350.0"/>
      <point x="35.62500000000001" y="330.8682022517258"/>
      <point x="35.625" y="224.50733394124438" type="curve"/>
    </contour>
    <contour>
      <point x="273.125" y="100.0" type="line"/>
      <point x="217.9335" y="100.0"/>
      <point x="173.125" y="55.1915"/>
      <point x="173.125" y="0.0" type="curve"/>
      <point x="273.125" y="0.0" type="line"/>
    </contour>
  </outline>
</glyph>
<glyph name="Z_with_dotabove" format="2">
  <advance width="308.75"/>
  <unicode hex="017B"/>
  <outline>
    <contour>
      <point x="209.375" y="897.2222222222222" type="curve" smooth="yes"/>
      <point x="209.375" y="927.5775522222222"/>
      <point x="184.73032999999998" y="952.2222222222222"/>
      <point x="154.375" y="952.2222222222222" type="curve" smooth="yes"/>
      <point x="124.01967" y="952.2222222222222"/>
      <point x="99.375" y="927.5775522222222"/>
      <point x="99.375" y="897.2222222222222" type="curve" smooth="yes"/>
      <point x="99.375" y="866.8668922222222"/>
      <point x="124.01967" y="842.2222222222222"/>
      <point x="154.375" y="842.2222222222222" type="curve" smooth="yes"/>
      <point x="184.73032999999998" y="842.2222222222222"/>
      <point x="209.375" y="866.8668922222222"/>
    </contour>
    <contour>
      <point x="35.625" y="700.0" type="line"/>
      <point x="90.81649999999999" y="700.0"/>
      <point x="135.625" y="744.8085"/>
      <point x="135.625" y="800.0" type="curve"/>
      <point x="35.625" y="800.0" type="line"/>
    </contour>
    <contour>
      <point x="173.125" y="350" type="line"/>
      <point x="211.559741949012" y="350.0"/>
      <point x="273.125" y="369.1317977482742"/>
      <point x="273.125" y="475.4926660587556" type="curve"/>
      <point x="273.125" y="800" type="line"/>
      <point x="173.125" y="800" type="line"/>
    </contour>
    <contour>
      <point x="35.625" y="0" type="line"/>
      <point x="135.625" y="0" type="line"/>
      <point x="135.625" y="450" type="line"/>
      <point x="97.19025805098799" y="450.0"/>
      <point x="35.62500000000001" y="430.8682022517258"/>
      <point x="35.625" y="324.5073339412444" type="curve"/>
    </contour>
    <contour>
      <point x="273.125" y="100.0" type="line"/>
      <point x="217.9335" y="100.0"/>
      <point x="173.125" y="55.1915"/>
      <point x="173.125" y="0.0" type="curve"/>
      <point x="273.125" y="0.0" type="line"/>
    </contour>
  </outline>
</glyph>
<glyph name="z_with_dotabove" format="2">
  <advance width="308.75"/>
  <unicode hex="017C"/>
  <outline>
    <contour>
      <point x="209.375" y="697.2222222222222" type="curve" smooth="yes"/>
      <point x="209.375" y="727.5775522222222"/>
      <point x="184.73032999999998" y="752.2222222222222"/>
      <point x="154.375" y="752.2222222222222" type="curve" smooth="yes"/>
      <point x="124.01967" y="752.2222222222222"/>
      <point x="99.375" y="727.5775522222222"/>
      <point x="99.375" y="697.2222222222222" type="curve" smooth="yes"/>
      <point x="99.375" y="666.8668922222222"/>
      <point x="124.01967" y="642.2222222222222"/>
      <point x="154.375" y="642.2222222222222" type="curve" smooth="yes"/>
      <point x="184.73032999999998" y="642.2222222222222"/>
      <point x="209.375" y="666.8668922222222"/>
    </contour>
    <contour>
      <point x="35.625" y="500.0" type="line"/>
      <point x="90.81649999999999" y="500.0"/>
      <point x="135.625" y="544.8085"/>
      <point x="135.625" y="600.0" type="curve"/>
      <point x="35.625" y="600.0" type="line"/>
    </contour>
    <contour>
      <point x="173.125" y="250" type="line"/>
      <point x="211.559741949012" y="250.0"/>
      <point x="273.125" y="269.1317977482742"/>
      <point x="273.125" y="375.4926660587556" type="curve"/>
      <point x="273.125" y="600" type="line"/>
      <point x="173.125" y="600" type="line"/>
    </contour>
    <contour>
      <point x="35.625" y="0" type="line"/>
      <point x="135.625" y="0" type="line"/>
      <point x="135.625" y="350" type="line"/>
      <point x="97.19025805098799" y="350.0"/>
      <point x="35.62500000000001" y="330.8682022517258"/>
      <point x="35.625" y="224.50733394124438" type="curve"/>
    </contour>
    <contour>
      <point x="273.125" y="100.0" type="line"/>
      <point x="217.9335" y="100.0"/>
      <point x="173.125" y="55.1915"/>
      <point x="173.125" y="0.0" type="curve"/>
      <point x="273.125" y="0.0" type="line"/>
    </contour>
  </outline>
</glyph>
<glyph name="z_with_caron" format="2">
  <advance width="308.75"/>
  <unicode hex="017E"/>
  <outline>
    <contour>
      <point x="151.25" y="647.2222222222222" type="line"/>
      <point x="151.25" y="702.4137222222222"/>
      <point x="106.4415" y="747.2222222222222"/>
      <point x="51.25" y="747.2222222222222" type="curve"/>
      <point x="51.25" y="647.2222222222222" type="line"/>
    </contour>
    <contour>
      <point x="257.5" y="747.2222222222222" type="line"/>
      <point x="202.3085" y="747.2222222222222"/>
      <point x="157.5" y="702.4137222222222"/>
      <point x="157.5" y="647.2222222222222" type="curve"/>
      <point x="257.5" y="647.2222222222222" type="line"/>
    </contour>
    <contour>
      <point x="35.625" y="500.0" type="line"/>
      <point x="90.81649999999999" y="500.0"/>
      <point x="135.625" y="544.8085"/>
      <point x="135.625" y="600.0" type="curve"/>
      <point x="35.625" y="600.0" type="line"/>
    </contour>
    <contour>
      <point x="173.125" y="250" type="line"/>
      <point x="211.559741949012" y="250.0"/>
      <point x="273.125" y="269.1317977482742"/>
      <point x="273.125" y="375.4926660587556" type="curve"/>
      <point x="273.125" y="600" type="line"/>
      <point x="173.125" y="600" type="line"/>
    </contour>
    <contour>
      <point x="35.625" y="0" type="line"/>
      <point x="135.625" y="0" type="line"/>
      <point x="135.625" y="350" type="line"/>
      <point x="97.19025805098799" y="350.0"/>
      <point x="35.62500000000001" y="330.8682022517258"/>
      <point x="35.625" y="224.50733394124438" type="curve"/>
    </contour>
    <contour>
      <point x="273.125" y="100.0" type="line"/>
      <point x="217.9335" y="100.0"/>
      <point x="173.125" y="55.1915"/>
      <point x="173.125" y="0.0" type="curve"/>
      <point x="273.125" y="0.0" type="line"/>
    </contour>
  </outline>
</glyph>
<glyph name="florin" format="2">
  <advance width="446.25"/>
  <unicode hex="0192"/>
  <outline>
    <contour>
      <point x="173.125" y="0" type="line"/>
      <point x="211.559741949012" y="0.0"/>
      <point x="273.125" y="19.131797748274195"/>
      <point x="273.125" y="125.49266605875559" type="curve"/>
      <point x="273.125" y="805" type="line"/>
      <point x="234.690258050988" y="805.0"/>
      <point x="173.125" y="785.8682022517257"/>
      <point x="173.125" y="679.5073339412444" type="curve"/>
    </contour>
    <contour>
      <point x="415.625" y="750.0" type="curve" smooth="yes"/>
      <point x="415.625" y="780.35533"/>
      <point x="390.98033" y="805.0"/>
      <point x="360.625" y="805.0" type="curve" smooth="yes"/>
      <point x="330.26967" y="805.0"/>
      <point x="305.625" y="780.35533"/>
      <point x="305.625" y="750.0" type="curve" smooth="yes"/>
      <point x="305.625" y="719.64467"/>
      <point x="330.26967" y="695.0"/>
      <point x="360.625" y="695.0" type="curve" smooth="yes"/>
      <point x="390.98033" y="695.0"/>
      <point x="415.625" y="719.64467"/>
    </contour>
    <contour>
      <point x="73.125" y="425" type="line"/>
      <point x="135.625" y="425" type="line"/>
      <point x="135.625" y="475" type="line"/>
      <point x="73.125" y="475" type="line"/>
    </contour>
    <contour>
      <point x="310.625" y="425" type="line"/>
      <point x="385.625" y="425" type="line"/>
      <point x="385.625" y="475" type="line"/>
      <point x="310.625" y="475" type="line"/>
    </contour>
    <contour>
      <point x="140.625" y="50.0" type="curve" smooth="yes"/>
      <point x="140.625" y="80.35533"/>
      <point x="115.98033" y="105.0"/>
      <point x="85.625" y="105.0" type="curve" smooth="yes"/>
      <point x="55.269670000000005" y="105.0"/>
      <point x="30.625" y="80.35533"/>
      <point x="30.625" y="50.0" type="curve" smooth="yes"/>
      <point x="30.625" y="19.64467"/>
      <point x="55.269670000000005" y="-5.0"/>
      <point x="85.625" y="-5.0" type="curve" smooth="yes"/>
      <point x="115.98033" y="-5.0"/>
      <point x="140.625" y="19.64467"/>
    </contour>
  </outline>
</glyph>
<glyph name="g_with_caron" format="2">
  <advance width="308.75"/>
  <unicode hex="01E7"/>
  <outline>
    <contour>
      <point x="151.25" y="647.2222222222222" type="line"/>
      <point x="151.25" y="702.4137222222222"/>
      <point x="106.4415" y="747.2222222222222"/>
      <point x="51.25" y="747.2222222222222" type="curve"/>
      <point x="51.25" y="647.2222222222222" type="line"/>
    </contour>
    <contour>
      <point x="257.5" y="747.2222222222222" type="line"/>
      <point x="202.3085" y="747.2222222222222"/>
      <point x="157.5" y="702.4137222222222"/>
      <point x="157.5" y="647.2222222222222" type="curve"/>
      <point x="257.5" y="647.2222222222222" type="line"/>
    </contour>
    <contour>
      <point x="35.625" y="125.49266605875559" type="line"/>
      <point x="35.62500000000001" y="19.131797748274195"/>
      <point x="97.19025805098799" y="4.706898370391206e-15"/>
      <point x="135.625" y="0.0" type="curve"/>
      <point x="135.625" y="600" type="line"/>
      <point x="97.19025805098799" y="600.0"/>
      <point x="35.62500000000001" y="580.8682022517257"/>
      <point x="35.625" y="474.5073339412444" type="curve"/>
    </contour>
    <contour>
      <point x="173.125" y="-210" type="line"/>
      <point x="211.559741949012" y="-210.0"/>
      <point x="273.125" y="-190.86820225172582"/>
      <point x="273.125" y="-84.50733394124443" type="curve"/>
      <point x="273.125" y="600" type="line"/>
      <point x="173.125" y="600" type="line"/>
    </contour>
    <contour>
      <point x="138.75" y="-160.0" type="curve" smooth="yes"/>
      <point x="138.75" y="-132.40425"/>
      <point x="116.34575" y="-110.0"/>
      <point x="88.75" y="-110.0" type="curve" smooth="yes"/>
      <point x="61.154250000000005" y="-110.0"/>
      <point x="38.75" y="-132.40425"/>
      <point x="38.75" y="-160.0" type="curve" smooth="yes"/>
      <point x="38.75" y="-187.59575"/>
      <point x="61.154250000000005" y="-210.0"/>
      <point x="88.75" y="-210.0" type="curve" smooth="yes"/>
      <point x="116.34575" y="-210.0"/>
      <point x="138.75" y="-187.59575"/>
    </contour>
  </outline>
</glyph>
<glyph name="o_with_ogonek" format="2">
  <advance width="308.75"/>
  <unicode hex="01EB"/>
  <outline>
    <contour>
      <point x="35.625" y="120.49266605875559" type="line"/>
      <point x="35.62500000000001" y="14.131797748274195"/>
      <point x="97.19025805098799" y="-4.999999999999996"/>
      <point x="135.625" y="-5.0" type="curve"/>
      <point x="135.625" y="605" type="line"/>
      <point x="97.19025805098799" y="605.0"/>
      <point x="35.62500000000001" y="585.8682022517257"/>
      <point x="35.625" y="479.5073339412444" type="curve"/>
    </contour>
    <contour>
      <point x="173.125" y="-5" type="line"/>
      <point x="211.559741949012" y="-5.0"/>
      <point x="273.125" y="14.131797748274195"/>
      <point x="273.125" y="120.49266605875559" type="curve"/>
      <point x="273.125" y="479.5073339412444" type="line"/>
      <point x="273.125" y="585.8682022517257"/>
      <point x="211.559741949012" y="605.0"/>
      <point x="173.125" y="605.0" type="curve"/>
    </contour>
    <contour>
      <point x="154.375" y="-30.0" type="line"/>
      <point x="99.1835" y="-30.0"/>
      <point x="54.375" y="-74.80850000000001"/>
      <point x="54.375" y="-130.0" type="curve"/>
      <point x="154.375" y="-130.0" type="line"/>
    </contour>
  </outline>
</glyph>
<glyph name="ae_with_acute" format="2">
  <advance width="583.75"/>
  <unicode hex="01FD"/>
  <outline>
    <contour>
      <point x="283.90625" y="647.2222222222222" type="line"/>
      <point x="339.09775" y="647.2222222222222"/>
      <point x="383.90625" y="692.0307222222222"/>
      <point x="383.90625" y="747.2222222222222" type="curve"/>
      <point x="283.90625" y="747.2222222222222" type="line"/>
    </contour>
    <contour>
      <point x="142.1875" y="550.0" type="curve" smooth="yes"/>
      <point x="142.1875" y="580.35533"/>
      <point x="117.54283" y="605.0"/>
      <point x="87.1875" y="605.0" type="curve" smooth="yes"/>
      <point x="56.832170000000005" y="605.0"/>
      <point x="32.1875" y="580.35533"/>
      <point x="32.1875" y="550.0" type="curve" smooth="yes"/>
      <point x="32.1875" y="519.64467"/>
      <point x="56.832170000000005" y="495.0"/>
      <point x="87.1875" y="495.0" type="curve" smooth="yes"/>
      <point x="117.54283" y="495.0"/>
      <point x="142.1875" y="519.64467"/>
    </contour>
    <contour>
      <point x="173.125" y="-5" type="line"/>
      <point x="211.559741949012" y="-5.0"/>
      <point x="273.125" y="14.131797748274195"/>
      <point x="273.125" y="120.49266605875559" type="curve"/>
      <point x="273.125" y="479.5073339412444" type="line"/>
      <point x="273.125" y="585.8682022517257"/>
      <point x="211.559741949012" y="605.0"/>
      <point x="173.125" y="605.0" type="curve"/>
    </contour>
    <contour>
      <point x="310.625" y="120.4926660587556" type="line"/>
      <point x="310.625" y="14.13179774827421"/>
      <point x="372.190258050988" y="-4.999999999999996"/>
      <point x="410.625" y="-5.0" type="curve"/>
      <point x="410.625" y="605" type="line"/>
      <point x="372.190258050988" y="605.0"/>
      <point x="310.625" y="585.8682022517257"/>
      <point x="310.625" y="479.5073339412444" type="curve"/>
    </contour>
    <contour>
      <point x="448.125" y="195" type="line"/>
      <point x="548.125" y="195" type="line"/>
      <point x="548.125" y="479.5073339412444" type="line"/>
      <point x="548.125" y="585.8682022517257"/>
      <point x="486.559741949012" y="605.0"/>
      <point x="448.125" y="605.0" type="curve"/>
    </contour>
    <contour>
      <point x="35.625" y="120.49266605875559" type="line"/>
      <point x="35.62500000000001" y="14.131797748274195"/>
      <point x="97.19025805098799" y="-4.999999999999996"/>
      <point x="135.625" y="-5.0" type="curve"/>
      <point x="135.625" y="395" type="line"/>
      <point x="97.19025805098799" y="395.0"/>
      <point x="35.62500000000001" y="375.8682022517258"/>
      <point x="35.625" y="269.5073339412444" type="curve"/>
    </contour>
  </outline>
</glyph>
<glyph name="e_with_gravedbl" format="2">
  <advance width="308.75"/>
  <unicode hex="0205"/>
  <outline>
    <contour>
      <point x="35.625" y="747.2222222222222" type="line"/>
      <point x="35.625" y="692.0307222222222"/>
      <point x="80.43350000000001" y="647.2222222222222"/>
      <point x="135.625" y="647.2222222222222" type="curve"/>
      <point x="135.625" y="747.2222222222222" type="line"/>
    </contour>
    <contour>
      <point x="173.125" y="747.2222222222222" type="line"/>
      <point x="173.125" y="692.0307222222222"/>
      <point x="217.9335" y="647.2222222222222"/>
      <point x="273.125" y="647.2222222222222" type="curve"/>
      <point x="273.125" y="747.2222222222222" type="line"/>
    </contour>
    <contour>
      <point x="35.625" y="120.49266605875559" type="line"/>
      <point x="35.62500000000001" y="14.131797748274195"/>
      <point x="97.19025805098799" y="-4.999999999999996"/>
      <point x="135.625" y="-5.0" type="curve"/>
      <point x="135.625" y="605" type="line"/>
      <point x="97.19025805098799" y="605.0"/>
      <point x="35.62500000000001" y="585.8682022517257"/>
      <point x="35.625" y="479.5073339412444" type="curve"/>
    </contour>
    <contour>
      <point x="173.125" y="195" type="line"/>
      <point x="273.125" y="195" type="line"/>
      <point x="273.125" y="479.5073339412444" type="line"/>
      <point x="273.125" y="585.8682022517257"/>
      <point x="211.559741949012" y="605.0"/>
      <point x="173.125" y="605.0" type="curve"/>
    </contour>
  </outline>
</glyph>
<glyph name="R_with_gravedbl" format="2">
  <advance width="308.75"/>
  <unicode hex="0210"/>
  <outline>
    <contour>
      <point x="35.625" y="947.2222222222222" type="line"/>
      <point x="35.625" y="892.0307222222222"/>
      <point x="80.43350000000001" y="847.2222222222222"/>
      <point x="135.625" y="847.2222222222222" type="curve"/>
      <point x="135.625" y="947.2222222222222" type="line"/>
    </contour>
    <contour>
      <point x="173.125" y="947.2222222222222" type="line"/>
      <point x="173.125" y="892.0307222222222"/>
      <point x="217.9335" y="847.2222222222222"/>
      <point x="273.125" y="847.2222222222222" type="curve"/>
      <point x="273.125" y="947.2222222222222" type="line"/>
    </contour>
    <contour>
      <point x="35.625" y="0" type="line"/>
      <point x="135.625" y="0" type="line"/>
      <point x="135.625" y="800" type="line"/>
      <point x="35.625" y="800" type="line"/>
    </contour>
    <contour>
      <point x="173.125" y="200" type="line"/>
      <point x="211.559741949012" y="200.0"/>
      <point x="273.125" y="219.13179774827415"/>
      <point x="273.125" y="325.49266605875556" type="curve"/>
      <point x="273.125" y="674.5073339412444" type="line"/>
      <point x="273.125" y="780.8682022517257"/>
      <point x="211.559741949012" y="800.0"/>
      <point x="173.125" y="800.0" type="curve"/>
    </contour>
    <contour>
      <point x="173.125" y="0" type="line"/>
      <point x="273.125" y="0" type="line"/>
      <point x="273.125" y="74.50733394124443" type="line"/>
      <point x="273.125" y="180.86820225172582"/>
      <point x="211.559741949012" y="200.0"/>
      <point x="173.125" y="200.0" type="curve"/>
    </contour>
  </outline>
</glyph>
<glyph name="r_with_gravedbl" format="2">
  <advance width="308.75"/>
  <unicode hex="0211"/>
  <outline>
    <contour>
      <point x="38.125" y="747.2222222222222" type="line"/>
      <point x="38.125" y="692.0307222222222"/>
      <point x="82.93350000000001" y="647.2222222222222"/>
      <point x="138.125" y="647.2222222222222" type="curve"/>
      <point x="138.125" y="747.2222222222222" type="line"/>
    </contour>
    <contour>
      <point x="175.625" y="747.2222222222222" type="line"/>
      <point x="175.625" y="692.0307222222222"/>
      <point x="220.4335" y="647.2222222222222"/>
      <point x="275.625" y="647.2222222222222" type="curve"/>
      <point x="275.625" y="747.2222222222222" type="line"/>
    </contour>
    <contour>
      <point x="278.125" y="550.0" type="curve" smooth="yes"/>
      <point x="278.125" y="580.35533"/>
      <point x="253.48033" y="605.0"/>
      <point x="223.125" y="605.0" type="curve" smooth="yes"/>
      <point x="192.76967" y="605.0"/>
      <point x="168.125" y="580.35533"/>
      <point x="168.125" y="550.0" type="curve" smooth="yes"/>
      <point x="168.125" y="519.64467"/>
      <point x="192.76967" y="495.0"/>
      <point x="223.125" y="495.0" type="curve" smooth="yes"/>
      <point x="253.48033" y="495.0"/>
      <point x="278.125" y="519.64467"/>
    </contour>
    <contour>
      <point x="35.625" y="0" type="line"/>
      <point x="135.625" y="0" type="line"/>
      <point x="135.625" y="600" type="line"/>
      <point x="35.625" y="600" type="line"/>
    </contour>
  </outline>
</glyph>
<glyph name="R_with_breveinv" format="2">
  <advance width="308.75"/>
  <unicode hex="0212"/>
  <outline>
    <contour>
      <point x="254.375" y="847.2222213745117" type="line"/>
      <point x="254.375" y="902.4137222222222"/>
      <point x="209.5665" y="947.2222222222222"/>
      <point x="154.375" y="947.2222222222222" type="curve"/>
      <point x="99.18350000000001" y="947.2222222222222"/>
      <point x="54.375" y="902.4137222222222"/>
      <point x="54.375" y="847.2222222222222" type="curve"/>
    </contour>
    <contour>
      <point x="35.625" y="0" type="line"/>
      <point x="135.625" y="0" type="line"/>
      <point x="135.625" y="800" type="line"/>
      <point x="35.625" y="800" type="line"/>
    </contour>
    <contour>
      <point x="173.125" y="200" type="line"/>
      <point x="211.559741949012" y="200.0"/>
      <point x="273.125" y="219.13179774827415"/>
      <point x="273.125" y="325.49266605875556" type="curve"/>
      <point x="273.125" y="674.5073339412444" type="line"/>
      <point x="273.125" y="780.8682022517257"/>
      <point x="211.559741949012" y="800.0"/>
      <point x="173.125" y="800.0" type="curve"/>
    </contour>
    <contour>
      <point x="173.125" y="0" type="line"/>
      <point x="273.125" y="0" type="line"/>
      <point x="273.125" y="74.50733394124443" type="line"/>
      <point x="273.125" y="180.86820225172582"/>
      <point x="211.559741949012" y="200.0"/>
      <point x="173.125" y="200.0" type="curve"/>
    </contour>
  </outline>
</glyph>
<glyph name="r_with_breveinv" format="2">
  <advance width="308.75"/>
  <unicode hex="0213"/>
  <outline>
    <contour>
      <point x="256.875" y="647.2222213745117" type="line"/>
      <point x="256.875" y="702.4137222222222"/>
      <point x="212.0665" y="747.2222222222222"/>
      <point x="156.875" y="747.2222222222222" type="curve"/>
      <point x="101.68350000000001" y="747.2222222222222"/>
      <point x="56.875" y="702.4137222222222"/>
      <point x="56.875" y="647.2222222222222" type="curve"/>
    </contour>
    <contour>
      <point x="278.125" y="550.0" type="curve" smooth="yes"/>
      <point x="278.125" y="580.35533"/>
      <point x="253.48033" y="605.0"/>
      <point x="223.125" y="605.0" type="curve" smooth="yes"/>
      <point x="192.76967" y="605.0"/>
      <point x="168.125" y="580.35533"/>
      <point x="168.125" y="550.0" type="curve" smooth="yes"/>
      <point x="168.125" y="519.64467"/>
      <point x="192.76967" y="495.0"/>
      <point x="223.125" y="495.0" type="curve" smooth="yes"/>
      <point x="253.48033" y="495.0"/>
      <point x="278.125" y="519.64467"/>
    </contour>
    <contour>
      <point x="35.625" y="0" type="line"/>
      <point x="135.625" y="0" type="line"/>
      <point x="135.625" y="600" type="line"/>
      <point x="35.625" y="600" type="line"/>
    </contour>
  </outline>
</glyph>
<glyph name="u_with_gravedbl" format="2">
  <advance width="308.75"/>
  <unicode hex="0215"/>
  <outline>
    <contour>
      <point x="35.625" y="747.2222222222222" type="line"/>
      <point x="35.625" y="692.0307222222222"/>
      <point x="80.43350000000001" y="647.2222222222222"/>
      <point x="135.625" y="647.2222222222222" type="curve"/>
      <point x="135.625" y="747.2222222222222" type="line"/>
    </contour>
    <contour>
      <point x="173.125" y="747.2222222222222" type="line"/>
      <point x="173.125" y="692.0307222222222"/>
      <point x="217.9335" y="647.2222222222222"/>
      <point x="273.125" y="647.2222222222222" type="curve"/>
      <point x="273.125" y="747.2222222222222" type="line"/>
    </contour>
    <contour>
      <point x="35.625" y="120.49266605875559" type="line"/>
      <point x="35.62500000000001" y="14.131797748274195"/>
      <point x="97.19025805098799" y="-4.999999999999996"/>
      <point x="135.625" y="-5.0" type="curve"/>
      <point x="135.625" y="600" type="line"/>
      <point x="35.625" y="600" type="line"/>
    </contour>
    <contour>
      <point x="173.125" y="-5" type="line"/>
      <point x="211.559741949012" y="-5.0"/>
      <point x="273.125" y="14.131797748274195"/>
      <point x="273.125" y="120.49266605875559" type="curve"/>
      <point x="273.125" y="600" type="line"/>
      <point x="173.125" y="600" type="line"/>
    </contour>
  </outline>
</glyph>
<glyph name="u_with_breveinv" format="2">
  <advance width="308.75"/>
  <unicode hex="0217"/>
  <outline>
    <contour>
      <point x="254.375" y="647.2222213745117" type="line"/>
      <point x="254.375" y="702.4137222222222"/>
      <point x="209.5665" y="747.2222222222222"/>
      <point x="154.375" y="747.2222222222222" type="curve"/>
      <point x="99.18350000000001" y="747.2222222222222"/>
      <point x="54.375" y="702.4137222222222"/>
      <point x="54.375" y="647.2222222222222" type="curve"/>
    </contour>
    <contour>
      <point x="35.625" y="120.49266605875559" type="line"/>
      <point x="35.62500000000001" y="14.131797748274195"/>
      <point x="97.19025805098799" y="-4.999999999999996"/>
      <point x="135.625" y="-5.0" type="curve"/>
      <point x="135.625" y="600" type="line"/>
      <point x="35.625" y="600" type="line"/>
    </contour>
    <contour>
      <point x="173.125" y="-5" type="line"/>
      <point x="211.559741949012" y="-5.0"/>
      <point x="273.125" y="14.131797748274195"/>
      <point x="273.125" y="120.49266605875559" type="curve"/>
      <point x="273.125" y="600" type="line"/>
      <point x="173.125" y="600" type="line"/>
    </contour>
  </outline>
</glyph>
